{
.appVersion = "919";
DisplayStrings = (
"tA\U00C1\U00C2\U00C4\U00C0\U00C5\U00C3\U00C6BC\U00C7D\U00D0E\U00C9\U00CA\U00CB\U00C8FGHI\U00CD\U00CE\U00CF\U00CCJKLMN\U00D1O\U00D3\U00D4\U00D6\U00D2\U00D8\U00D5/OE P\U00DEQRSTU\U00DA\U00DB\U00DC\U00D9VWXY\U00DDZ\012a\U00E1\U00E2\U00E4\U00E0\U00E5\U00E3\U00E6bc\U00E7d\U00F0e\U00E9\U00EA\U00EB\U00E8fghi/idotless \U00ED\U00EE\U00EF\U00ECjklmn\U00F1o\U00F3\U00F4\U00F6\U00F2\U00F8\U00F5/oe p\U00FEqrs\U00DFtu\U00FA\U00FB\U00FC\U00F9vwxy\U00FD/ydieresis z/g.ss01 \U00AA\U00BA\012/an-georgian/ban-georgian/gan-georgian/don-georgian/en-georgian/vin-georgian/zen-georgian/tan-georgian/in-georgian/kan-georgian/las-georgian/man-georgian/nar-georgian/on-georgian/par-georgian/zhar-georgian/rae-georgian/san-georgian/tar-georgian/un-georgian/phar-georgian/khar-georgian/ghan-georgian/qar-georgian/shin-georgian/chin-georgian/can-georgian/jil-georgian/cil-georgian/char-georgian/xan-georgian/jhan-georgian/hae-georgian/he-georgian/hie-georgian/we-georgian/har-georgian/hoe-georgian/fi-georgian/yn-georgian/elifi-georgian/turnedgan-georgian/ain-georgian/aen-georgian/hardsign-georgian/labial-georgian/nar-georgian.alt/shin-georgian.alt/narMod-georgian \0120123456789\U00B9\U00B2\U00B3/foursuperior/fraction \U00BD\U00BC\U00BE*/backslash \U00B7/bullet :,/ellipsis !\U00A1#.?\U00BF\"';//_/backslash.alt/colon.alt/slash.alt {}[]()/braceleft.alt/braceright.alt/bracketleft.alt/bracketright.alt/parenleft.alt/parenright.alt/emdash/endash -\U00AD\U00AB\U00BB/guilsinglleft/guilsinglright/quotedblbase/quotedblleft/quotedblright/quoteleft/quoteright/quotesinglbase/paragraph-georgian \U00A2\U00A4S$/euro/lari \U00A3\U00A5/divisionslash +/minus \U00D7=><\U00B1\U00AC~\U00B5%@&\U00B6\U00A7\U00A9\U00AE\U00B0|\U00A6^"
);
date = "2016-05-21 23:47:50 +0000";
designer = "Mihkeil Khiphiani, Zaza Chugoshvili, Akaki Razmadze";
familyName = "GL Akhali Venuri";
featurePrefixes = (
{
automatic = 1;
code = "languagesystem DFLT dflt;\012";
name = Languagesystems;
}
);
features = (
{

glyphs = (
{
glyphname = H;
lastChange = "2016-09-01 14:48:06 +0000";
layers = (
{
layerId = "9F5B1694-2A59-45B7-91CA-438A6316E2AD";
paths = (
{
closed = 1;
nodes = (
"140 0 LINE",
"140 690 LINE",
"80 690 LINE",
"80 0 LINE"
);
},
{
closed = 1;
nodes = (
"550 0 LINE",
"550 690 LINE",
"490 690 LINE",
"490 0 LINE"
);
},
{
closed = 1;
nodes = (
"121 330 LINE",
"531 330 LINE",
"531 380 LINE",
"121 380 LINE"
);
}
);
width = 630;
},
{
layerId = "4BC39443-182D-41DE-81B9-A713C9E8B1F3";
width = 600;
}
);
unicode = 0048;
},
{
glyphname = I;
lastChange = "2016-07-23 16:38:38 +0000";
layers = (
{
layerId = "9F5B1694-2A59-45B7-91CA-438A6316E2AD";
paths = (
{
closed = 1;
nodes = (
"140 0 LINE",
"140 690 LINE",
"80 690 LINE",
"80 0 LINE"
);
}
);
width = 220;
},
{
layerId = "4BC39443-182D-41DE-81B9-A713C9E8B1F3";
width = 600;
}
);
unicode = 0049;
},
{
glyphname = O;
lastChange = "2016-07-23 16:38:45 +0000";
layers = (
{
layerId = "9F5B1694-2A59-45B7-91CA-438A6316E2AD";
paths = (
{
closed = 1;
nodes = (
"50 147 OFFCURVE",
"169 -12 OFFCURVE",
"373 -12 CURVE",
"577 -12 OFFCURVE",
"695 147 OFFCURVE",
"695 347 CURVE SMOOTH",
"695 546 OFFCURVE",
"577 701 OFFCURVE",
"373 701 CURVE",
"173 701 OFFCURVE",
"50 551 OFFCURVE",
"50 347 CURVE SMOOTH"
);
},
{
closed = 1;
nodes = (
"115 538 OFFCURVE",
"227 651 OFFCURVE",
"373 651 CURVE SMOOTH",
"518 651 OFFCURVE",
"630 538 OFFCURVE",
"630 346 CURVE SMOOTH",
"630 154 OFFCURVE",
"518 39 OFFCURVE",
"373 39 CURVE SMOOTH",
"227 39 OFFCURVE",
"115 154 OFFCURVE",
"115 346 CURVE SMOOTH"
);
}
);
width = 745;
},
{
layerId = "4BC39443-182D-41DE-81B9-A713C9E8B1F3";
width = 600;
}
);
unicode = 004F;
},
{
color = 9;
glyphname = S;
lastChange = "2016-09-01 14:52:53 +0000";
layers = (
{
layerId = "9F5B1694-2A59-45B7-91CA-438A6316E2AD";
paths = (
{
closed = 1;
nodes = (
"82 52 OFFCURVE",
"160 -12 OFFCURVE",
"287 -12 CURVE SMOOTH",
"431 -12 OFFCURVE",
"508 69 OFFCURVE",
"508 175 CURVE SMOOTH",
"508 273 OFFCURVE",
"443 338 OFFCURVE",
"355 364 CURVE SMOOTH",
"255 393 LINE SMOOTH",
"189 412 OFFCURVE",
"129 451 OFFCURVE",
"129 530 CURVE SMOOTH",
"129 605 OFFCURVE",
"184 652 OFFCURVE",
"275 652 CURVE SMOOTH",
"354 652 OFFCURVE",
"408 615 OFFCURVE",
"440 535 CURVE",
"491 560 LINE",
"456 651 OFFCURVE",
"388 702 OFFCURVE",
"280 702 CURVE SMOOTH",
"151 702 OFFCURVE",
"66 633 OFFCURVE",
"66 527 CURVE SMOOTH",
"66 427 OFFCURVE",
"142 364 OFFCURVE",
"217 343 CURVE SMOOTH",
"324 313 LINE SMOOTH",
"382 297 OFFCURVE",
"443 251 OFFCURVE",
"443 170 CURVE SMOOTH",
"443 94 OFFCURVE",
"389 38 OFFCURVE",
"290 38 CURVE SMOOTH",
"199 38 OFFCURVE",
"135 85 OFFCURVE",
"102 178 CURVE",
"44 156 LINE"
);
}
);
width = 552;
},
{
layerId = "4BC39443-182D-41DE-81B9-A713C9E8B1F3";
width = 600;
}
);
unicode = 0053;
},
{
glyphname = a;
lastChange = "2016-07-23 16:33:35 +0000";
layers = (
{
background = {
paths = (
{
closed = 1;
nodes = (
"50 22 OFFCURVE",
"113 -12 OFFCURVE",
"190 -12 CURVE SMOOTH",
"240 -12 OFFCURVE",
"285 9 OFFCURVE",
"312 48 CURVE",
"314 48 LINE",
"319 0 LINE",
"368 0 LINE",
"368 225 LINE SMOOTH",
"368 304 OFFCURVE",
"316 362 OFFCURVE",
"211 362 CURVE SMOOTH",
"138 362 OFFCURVE",
"79 323 OFFCURVE",
"56 258 CURVE",
"105 239 LINE",
"122 289 OFFCURVE",
"165 316 OFFCURVE",
"211 316 CURVE SMOOTH",
"278 316 OFFCURVE",
"313 286 OFFCURVE",
"313 225 CURVE SMOOTH",
"313 143 LINE SMOOTH",
"313 87 OFFCURVE",
"263 32 OFFCURVE",
"197 32 CURVE SMOOTH",
"135 32 OFFCURVE",
"106 54 OFFCURVE",
"106 95 CURVE SMOOTH",
"106 137 OFFCURVE",
"135 159 OFFCURVE",
"197 159 CURVE SMOOTH",
"333 159 LINE",
"333 201 LINE",
"190 201 LINE SMOOTH",
"106 201 OFFCURVE",
"50 162 OFFCURVE",
"50 95 CURVE SMOOTH"
);
},
{
closed = 1;
nodes = (
"611 362 LINE",
"541 362 OFFCURVE",
"488 336 OFFCURVE",
"463 277 CURVE",
"507 259 LINE",
"532 305 OFFCURVE",
"569 318 OFFCURVE",
"611 318 CURVE"
);
}
);
};
layerId = "9F5B1694-2A59-45B7-91CA-438A6316E2AD";
paths = (
{
closed = 1;
nodes = (
"40 24 OFFCURVE",
"102 -12 OFFCURVE",
"166 -12 CURVE SMOOTH",
"215 -12 OFFCURVE",
"255 9 OFFCURVE",
"282 48 CURVE",
"284 48 LINE",
"289 0 LINE",
"338 0 LINE",
"338 230 LINE SMOOTH",
"338 307 OFFCURVE",
"285 362 OFFCURVE",
"197 362 CURVE SMOOTH",
"135 362 OFFCURVE",
"81 334 OFFCURVE",
"54 277 CURVE",
"97 258 LINE",
"122 304 OFFCURVE",
"153 316 OFFCURVE",
"193 316 CURVE SMOOTH",
"258 316 OFFCURVE",
"283 284 OFFCURVE",
"283 225 CURVE SMOOTH",
"283 200 LINE",
"170 200 LINE SMOOTH",
"98 200 OFFCURVE",
"40 162 OFFCURVE",
"40 94 CURVE SMOOTH"
);
},
{
closed = 1;
nodes = (
"96 136 OFFCURVE",
"127 157 OFFCURVE",
"177 157 CURVE SMOOTH",
"283 157 LINE",
"283 137 LINE SMOOTH",
"283 75 OFFCURVE",
"228 32 OFFCURVE",
"171 32 CURVE SMOOTH",
"130 32 OFFCURVE",
"96 54 OFFCURVE",
"96 96 CURVE SMOOTH"
);
}
);
width = 398;
},
{
associatedMasterId = "9F5B1694-2A59-45B7-91CA-438A6316E2AD";
layerId = "F4B55C0C-BD79-4408-A87D-FAFFF3DF22CD";
name = "Regular May 20 16, 16:05";
paths = (
{
closed = 1;
nodes = (
"50 22 OFFCURVE",
"113 -12 OFFCURVE",
"190 -12 CURVE SMOOTH",
"240 -12 OFFCURVE",
"285 9 OFFCURVE",
"312 48 CURVE",
"314 48 LINE",
"319 0 LINE",
"368 0 LINE",
"368 225 LINE SMOOTH",
"368 304 OFFCURVE",
"316 362 OFFCURVE",
"211 362 CURVE SMOOTH",
"138 362 OFFCURVE",
"79 323 OFFCURVE",
"56 258 CURVE",
"105 239 LINE",
"122 289 OFFCURVE",
"165 316 OFFCURVE",
"211 316 CURVE SMOOTH",
"278 316 OFFCURVE",
"313 286 OFFCURVE",
"313 225 CURVE SMOOTH",
"313 143 LINE SMOOTH",
"313 87 OFFCURVE",
"263 32 OFFCURVE",
"197 32 CURVE SMOOTH",
"135 32 OFFCURVE",
"106 54 OFFCURVE",
"106 95 CURVE SMOOTH",
"106 137 OFFCURVE",
"135 159 OFFCURVE",
"197 159 CURVE SMOOTH",
"333 159 LINE",
"333 201 LINE",
"190 201 LINE SMOOTH",
"106 201 OFFCURVE",
"50 162 OFFCURVE",
"50 95 CURVE SMOOTH"
);
}
);
width = 438;
},
{
associatedMasterId = "9F5B1694-2A59-45B7-91CA-438A6316E2AD";
background = {
paths = (
{
closed = 1;
nodes = (
"50 22 OFFCURVE",
"113 -12 OFFCURVE",
"190 -12 CURVE SMOOTH",
"240 -12 OFFCURVE",
"285 9 OFFCURVE",
"312 48 CURVE",
"314 48 LINE",
"319 0 LINE",
"368 0 LINE",
"368 225 LINE SMOOTH",
"368 304 OFFCURVE",
"316 362 OFFCURVE",
"211 362 CURVE SMOOTH",
"138 362 OFFCURVE",
"79 323 OFFCURVE",
"56 258 CURVE",
"105 239 LINE",
"122 289 OFFCURVE",
"165 316 OFFCURVE",
"211 316 CURVE SMOOTH",
"278 316 OFFCURVE",
"313 286 OFFCURVE",
"313 225 CURVE SMOOTH",
"313 143 LINE SMOOTH",
"313 87 OFFCURVE",
"263 32 OFFCURVE",
"197 32 CURVE SMOOTH",
"135 32 OFFCURVE",
"106 54 OFFCURVE",
"106 95 CURVE SMOOTH",
"106 137 OFFCURVE",
"135 159 OFFCURVE",
"197 159 CURVE SMOOTH",
"333 159 LINE",
"333 201 LINE",
"190 201 LINE SMOOTH",
"106 201 OFFCURVE",
"50 162 OFFCURVE",
"50 95 CURVE SMOOTH"
);
},
{
closed = 1;
nodes = (
"611 362 LINE",
"541 362 OFFCURVE",
"488 336 OFFCURVE",
"463 277 CURVE",
"507 259 LINE",
"532 305 OFFCURVE",
"569 318 OFFCURVE",
"611 318 CURVE"
);
}
);
};
layerId = "6F18759E-FD0A-4032-AF2E-D77559A15042";
name = "Regular May 20 16, 16:49";
paths = (
{
closed = 1;
nodes = (
"50 22 OFFCURVE",
"113 -12 OFFCURVE",
"190 -12 CURVE SMOOTH",
"240 -12 OFFCURVE",
"288 9 OFFCURVE",
"315 48 CURVE",
"317 48 LINE",
"320 28 OFFCURVE",
"325 16 OFFCURVE",
"332 0 CURVE",
"384 0 LINE",
"373 28 OFFCURVE",
"368 59 OFFCURVE",
"368 97 CURVE",
"368 225 LINE SMOOTH",
"368 304 OFFCURVE",
"316 362 OFFCURVE",
"211 362 CURVE SMOOTH",
"141 362 OFFCURVE",
"89 331 OFFCURVE",
"64 277 CURVE",
"108 257 LINE",
"133 303 OFFCURVE",
"169 316 OFFCURVE",
"211 316 CURVE SMOOTH",
"278 316 OFFCURVE",
"313 286 OFFCURVE",
"313 225 CURVE SMOOTH",
"313 200 LINE",
"190 200 LINE SMOOTH",
"106 200 OFFCURVE",
"50 162 OFFCURVE",
"50 95 CURVE SMOOTH"
);
},
{
closed = 1;
nodes = (
"106 137 OFFCURVE",
"135 157 OFFCURVE",
"197 157 CURVE SMOOTH",
"313 157 LINE",
"313 143 LINE SMOOTH",
"313 87 OFFCURVE",
"263 32 OFFCURVE",
"197 32 CURVE SMOOTH",
"135 32 OFFCURVE",
"106 54 OFFCURVE",
"106 95 CURVE SMOOTH"
);
}
);
width = 438;
},
{
layerId = "4BC39443-182D-41DE-81B9-A713C9E8B1F3";
width = 600;
}
);
leftMetricsKey = o;
rightMetricsKey = n;
unicode = 0061;
},
{
glyphname = b;
lastChange = "2016-07-23 16:33:57 +0000";
layers = (
{
layerId = "9F5B1694-2A59-45B7-91CA-438A6316E2AD";
paths = (
{
closed = 1;
nodes = (
"414 279 OFFCURVE",
"347 362 OFFCURVE",
"247 362 CURVE SMOOTH",
"197 362 OFFCURVE",
"155 342 OFFCURVE",
"128 303 CURVE",
"126 303 LINE",
"126 710 LINE",
"70 710 LINE",
"70 0 LINE",
"121 0 LINE",
"126 48 LINE",
"128 48 LINE",
"155 9 OFFCURVE",
"197 -12 OFFCURVE",
"247 -12 CURVE SMOOTH",
"347 -12 OFFCURVE",
"414 73 OFFCURVE",
"414 176 CURVE SMOOTH"
);
},
{
closed = 1;
nodes = (
"354 86 OFFCURVE",
"307 34 OFFCURVE",
"240 34 CURVE SMOOTH",
"174 34 OFFCURVE",
"126 86 OFFCURVE",
"126 176 CURVE SMOOTH",
"126 266 OFFCURVE",
"174 316 OFFCURVE",
"240 316 CURVE SMOOTH",
"307 316 OFFCURVE",
"354 266 OFFCURVE",
"354 176 CURVE SMOOTH"
);
}
);
width = 454;
},
{
layerId = "4BC39443-182D-41DE-81B9-A713C9E8B1F3";
width = 600;
}
);
leftMetricsKey = n;
rightMetricsKey = o;
unicode = 0062;
},
{
glyphname = c;
lastChange = "2016-07-23 16:34:04 +0000";
layers = (
{
background = {
paths = (
{
closed = 1;
nodes = (
"366 252 LINE",
"345 314 OFFCURVE",
"298 362 OFFCURVE",
"211 362 CURVE SMOOTH",
"103 362 OFFCURVE",
"41 275 OFFCURVE",
"41 175 CURVE SMOOTH",
"41 73 OFFCURVE",
"104 -12 OFFCURVE",
"214 -12 CURVE SMOOTH",
"301 -12 OFFCURVE",
"348 38 OFFCURVE",
"368 100 CURVE",
"326 121 LINE",
"304 66 OFFCURVE",
"271 34 OFFCURVE",
"214 34 CURVE SMOOTH",
"148 34 OFFCURVE",
"100 81 OFFCURVE",
"100 175 CURVE SMOOTH",
"100 268 OFFCURVE",
"146 317 OFFCURVE",
"211 317 CURVE SMOOTH",
"265 317 OFFCURVE",
"304 287 OFFCURVE",
"321 234 CURVE"
);
}
);
};
layerId = "9F5B1694-2A59-45B7-91CA-438A6316E2AD";
paths = (
{
closed = 1;
nodes = (
"367 258 LINE",
"344 323 OFFCURVE",
"290 362 OFFCURVE",
"214 362 CURVE",
"109 362 OFFCURVE",
"40 283 OFFCURVE",
"40 176 CURVE SMOOTH",
"40 71 OFFCURVE",
"107 -12 OFFCURVE",
"214 -12 CURVE",
"292 -12 OFFCURVE",
"346 25 OFFCURVE",
"370 97 CURVE",
"322 116 LINE",
"303 63 OFFCURVE",
"264 34 OFFCURVE",
"214 34 CURVE SMOOTH",
"147 34 OFFCURVE",
"100 87 OFFCURVE",
"100 176 CURVE SMOOTH",
"100 264 OFFCURVE",
"147 316 OFFCURVE",
"214 316 CURVE SMOOTH",
"263 316 OFFCURVE",
"301 289 OFFCURVE",
"318 239 CURVE"
);
}
);
width = 410;
},
{
layerId = "4BC39443-182D-41DE-81B9-A713C9E8B1F3";
width = 600;
}
);
leftMetricsKey = o;
rightMetricsKey = o;
unicode = 0063;
},
{
glyphname = d;
lastChange = "2016-07-23 16:34:11 +0000";
layers = (
{
layerId = "9F5B1694-2A59-45B7-91CA-438A6316E2AD";
paths = (
{
closed = 1;
nodes = (
"40 73 OFFCURVE",
"107 -12 OFFCURVE",
"207 -12 CURVE SMOOTH",
"257 -12 OFFCURVE",
"299 9 OFFCURVE",
"326 48 CURVE",
"328 48 LINE",
"333 0 LINE",
"384 0 LINE",
"384 710 LINE",
"328 710 LINE",
"328 303 LINE",
"326 303 LINE",
"299 342 OFFCURVE",
"257 362 OFFCURVE",
"207 362 CURVE SMOOTH",
"107 362 OFFCURVE",
"40 279 OFFCURVE",
"40 176 CURVE SMOOTH"
);
},
{
closed = 1;
nodes = (
"101 266 OFFCURVE",
"147 316 OFFCURVE",
"214 316 CURVE SMOOTH",
"280 316 OFFCURVE",
"328 266 OFFCURVE",
"328 176 CURVE SMOOTH",
"328 86 OFFCURVE",
"280 34 OFFCURVE",
"214 34 CURVE SMOOTH",
"147 34 OFFCURVE",
"100 86 OFFCURVE",
"100 176 CURVE SMOOTH"
);
}
);
width = 424;
},
{
layerId = "4BC39443-182D-41DE-81B9-A713C9E8B1F3";
width = 600;
}
);
leftMetricsKey = o;
rightMetricsKey = o;
unicode = 0064;
},
{
glyphname = e;
lastChange = "2016-07-23 16:34:24 +0000";
layers = (
{
layerId = "9F5B1694-2A59-45B7-91CA-438A6316E2AD";
paths = (
{
closed = 1;
nodes = (
"40 69 OFFCURVE",
"104 -12 OFFCURVE",
"219 -12 CURVE SMOOTH",
"283 -12 OFFCURVE",
"346 13 OFFCURVE",
"378 86 CURVE",
"329 105 LINE",
"305 55 OFFCURVE",
"263 34 OFFCURVE",
"217 34 CURVE SMOOTH",
"153 34 OFFCURVE",
"105 74 OFFCURVE",
"100 157 CURVE",
"385 157 LINE",
"387 163 OFFCURVE",
"388 172 OFFCURVE",
"388 184 CURVE SMOOTH",
"388 279 OFFCURVE",
"321 362 OFFCURVE",
"213 362 CURVE SMOOTH",
"109 362 OFFCURVE",
"40 284 OFFCURVE",
"40 175 CURVE SMOOTH"
);
},
{
closed = 1;
nodes = (
"104 271 OFFCURVE",
"154 316 OFFCURVE",
"214 316 CURVE SMOOTH",
"274 316 OFFCURVE",
"324 271 OFFCURVE",
"328 200 CURVE",
"100 200 LINE"
);
}
);
width = 428;
},
{
layerId = "4BC39443-182D-41DE-81B9-A713C9E8B1F3";
width = 600;
}
);
leftMetricsKey = o;
rightMetricsKey = o;
unicode = 0065;
},
{
glyphname = f;
lastChange = "2016-07-23 16:34:48 +0000";
layers = (
{
layerId = "9F5B1694-2A59-45B7-91CA-438A6316E2AD";
paths = (
{
closed = 1;
nodes = (
"228 304 LINE",
"228 350 LINE",
"10 350 LINE",
"10 304 LINE"
);
},
{
closed = 1;
nodes = (
"76 0 LINE",
"132 0 LINE",
"132 560 LINE SMOOTH",
"132 613 OFFCURVE",
"159 644 OFFCURVE",
"211 644 CURVE SMOOTH",
"238 644 LINE",
"238 690 LINE",
"211 690 LINE SMOOTH",
"119 690 OFFCURVE",
"76 635 OFFCURVE",
"76 560 CURVE SMOOTH"
);
}
);
width = 228;
},
{
layerId = "4BC39443-182D-41DE-81B9-A713C9E8B1F3";
width = 600;
}
);
unicode = 0066;
},
{
glyphname = g;
lastChange = "2016-07-23 16:35:02 +0000";
layers = (
{
layerId = "9F5B1694-2A59-45B7-91CA-438A6316E2AD";
paths = (
{
closed = 1;
nodes = (
"40 71 OFFCURVE",
"107 -12 OFFCURVE",
"207 -12 CURVE SMOOTH",
"257 -12 OFFCURVE",
"299 8 OFFCURVE",
"326 47 CURVE",
"328 47 LINE",
"328 -76 LINE SMOOTH",
"328 -152 OFFCURVE",
"286 -196 OFFCURVE",
"219 -196 CURVE SMOOTH",
"169 -196 OFFCURVE",
"121 -167 OFFCURVE",
"102 -114 CURVE",
"54 -133 LINE",
"78 -205 OFFCURVE",
"141 -242 OFFCURVE",
"219 -242 CURVE SMOOTH",
"326 -242 OFFCURVE",
"384 -168 OFFCURVE",
"384 -75 CURVE SMOOTH",
"384 350 LINE",
"333 350 LINE",
"328 302 LINE",
"326 302 LINE",
"299 341 OFFCURVE",
"257 362 OFFCURVE",
"207 362 CURVE SMOOTH",
"107 362 OFFCURVE",
"40 277 OFFCURVE",
"40 174 CURVE SMOOTH"
);
},
{
closed = 1;
nodes = (
"100 264 OFFCURVE",
"147 316 OFFCURVE",
"214 316 CURVE SMOOTH",
"280 316 OFFCURVE",
"328 264 OFFCURVE",
"328 174 CURVE SMOOTH",
"328 84 OFFCURVE",
"280 34 OFFCURVE",
"214 34 CURVE SMOOTH",
"147 34 OFFCURVE",
"100 84 OFFCURVE",
"100 174 CURVE SMOOTH"
);
}
);
width = 454;
},
{
layerId = "4BC39443-182D-41DE-81B9-A713C9E8B1F3";
width = 600;
}
);
leftMetricsKey = o;
rightMetricsKey = u;
unicode = 0067;
},
{
glyphname = h;
lastChange = "2016-07-23 16:33:17 +0000";
layers = (
{
layerId = "9F5B1694-2A59-45B7-91CA-438A6316E2AD";
paths = (
{
closed = 1;
nodes = (
"126 0 LINE",
"126 191 LINE",
"126 281 OFFCURVE",
"164 316 OFFCURVE",
"230 316 CURVE",
"297 316 OFFCURVE",
"334 281 OFFCURVE",
"334 191 CURVE",
"334 0 LINE",
"390 0 LINE",
"390 201 LINE",
"390 294 OFFCURVE",
"340 362 OFFCURVE",
"240 362 CURVE",
"190 362 OFFCURVE",
"150 342 OFFCURVE",
"128 303 CURVE",
"126 303 LINE",
"126 710 LINE",
"70 710 LINE",
"70 0 LINE"
);
}
);
width = 450;
},
{
layerId = "4BC39443-182D-41DE-81B9-A713C9E8B1F3";
width = 600;
}
);
leftMetricsKey = n;
rightMetricsKey = n;
unicode = 0068;
},
{
glyphname = i;
lastChange = "2016-08-25 14:25:35 +0000";
layers = (
{
components = (
{
name = period;
transform = "{1, 0, 0, 1, 13, 471}";
}
);
layerId = "9F5B1694-2A59-45B7-91CA-438A6316E2AD";
paths = (
{
closed = 1;
nodes = (
"126 0 LINE",
"126 350 LINE",
"70 350 LINE",
"70 0 LINE"
);
}
);
width = 196;
},
{
layerId = "4BC39443-182D-41DE-81B9-A713C9E8B1F3";
width = 600;
}
);
unicode = 0069;
},
{
glyphname = j;
lastChange = "2016-08-25 14:25:52 +0000";
layers = (
{
components = (
{
name = period;
transform = "{1, 0, 0, 1, 18, 471}";
}
);
layerId = "9F5B1694-2A59-45B7-91CA-438A6316E2AD";
paths = (
{
closed = 1;
nodes = (
"132 350 LINE",
"76 350 LINE",
"76 -120 LINE SMOOTH",
"76 -163 OFFCURVE",
"64 -184 OFFCURVE",
"17 -184 CURVE SMOOTH",
"-10 -184 LINE",
"-10 -230 LINE",
"17 -230 LINE SMOOTH",
"104 -230 OFFCURVE",
"132 -185 OFFCURVE",
"132 -120 CURVE SMOOTH"
);
}
);
width = 202;
},
{
layerId = "4BC39443-182D-41DE-81B9-A713C9E8B1F3";
width = 600;
}
);
unicode = 006A;
},
{
glyphname = k;
lastChange = "2016-07-23 16:35:50 +0000";
layers = (
{
layerId = "9F5B1694-2A59-45B7-91CA-438A6316E2AD";
paths = (
{
closed = 1;
nodes = (
"126 0 LINE",
"126 690 LINE",
"70 690 LINE",
"70 0 LINE"
);
},
{
closed = 1;
nodes = (
"153 188 LINE",
"298 0 LINE",
"367 0 LINE",
"196 219 LINE"
);
},
{
closed = 1;
nodes = (
"190 172 LINE",
"351 350 LINE",
"281 350 LINE",
"165 218 LINE",
"106 218 LINE",
"106 172 LINE"
);
}
);
width = 402;
},
{
layerId = "4BC39443-182D-41DE-81B9-A713C9E8B1F3";
width = 600;
}
);
leftMetricsKey = n;
rightMetricsKey = z;
unicode = 006B;
},
{
glyphname = l;
lastChange = "2016-07-23 16:36:32 +0000";
layers = (
{
layerId = "9F5B1694-2A59-45B7-91CA-438A6316E2AD";
paths = (
{
closed = 1;
nodes = (
"70 42 OFFCURVE",
"101 0 OFFCURVE",
"164 0 CURVE SMOOTH",
"192 0 LINE",
"192 46 LINE",
"175 46 LINE SMOOTH",
"142 46 OFFCURVE",
"126 58 OFFCURVE",
"126 97 CURVE SMOOTH",
"126 710 LINE",
"70 710 LINE",
"70 93 LINE SMOOTH"
);
}
);
width = 212;
},
{
layerId = "4BC39443-182D-41DE-81B9-A713C9E8B1F3";
width = 600;
}
);
leftMetricsKey = n;
rightMetricsKey = t;
unicode = 006C;
},
{
glyphname = m;
lastChange = "2016-07-23 16:36:38 +0000";
layers = (
{
layerId = "9F5B1694-2A59-45B7-91CA-438A6316E2AD";
paths = (
{
closed = 1;
nodes = (
"126 0 LINE",
"126 208 LINE SMOOTH",
"126 281 OFFCURVE",
"164 316 OFFCURVE",
"220 316 CURVE SMOOTH",
"277 316 OFFCURVE",
"314 281 OFFCURVE",
"314 208 CURVE SMOOTH",
"314 0 LINE",
"370 0 LINE",
"370 208 LINE SMOOTH",
"370 281 OFFCURVE",
"408 316 OFFCURVE",
"464 316 CURVE SMOOTH",
"521 316 OFFCURVE",
"558 281 OFFCURVE",
"558 208 CURVE SMOOTH",
"558 0 LINE",
"614 0 LINE",
"614 218 LINE SMOOTH",
"614 294 OFFCURVE",
"564 362 OFFCURVE",
"471 362 CURVE SMOOTH",
"420 362 OFFCURVE",
"372 336 OFFCURVE",
"350 286 CURVE",
"348 286 LINE",
"327 336 OFFCURVE",
"291 362 OFFCURVE",
"230 362 CURVE SMOOTH",
"190 362 OFFCURVE",
"150 342 OFFCURVE",
"128 303 CURVE",
"126 303 LINE",
"121 350 LINE",
"70 350 LINE",
"70 0 LINE"
);
}
);
width = 674;
},
{
layerId = "4BC39443-182D-41DE-81B9-A713C9E8B1F3";
width = 600;
}
);
leftMetricsKey = n;
rightMetricsKey = n;
unicode = 006D;
},
{
glyphname = n;
lastChange = "2016-07-23 16:33:08 +0000";
layers = (
{
layerId = "9F5B1694-2A59-45B7-91CA-438A6316E2AD";
paths = (
{
closed = 1;
nodes = (
"126 0 LINE",
"126 191 LINE",
"126 281 OFFCURVE",
"164 316 OFFCURVE",
"230 316 CURVE",
"297 316 OFFCURVE",
"334 281 OFFCURVE",
"334 191 CURVE",
"334 0 LINE",
"390 0 LINE",
"390 201 LINE",
"390 294 OFFCURVE",
"340 362 OFFCURVE",
"240 362 CURVE",
"190 362 OFFCURVE",
"150 342 OFFCURVE",
"128 303 CURVE",
"126 303 LINE",
"121 350 LINE",
"70 350 LINE",
"70 0 LINE"
);
}
);
width = 450;
},
{
layerId = "4BC39443-182D-41DE-81B9-A713C9E8B1F3";
width = 600;
}
);
unicode = 006E;
},
{
glyphname = o;
lastChange = "2016-07-23 16:32:25 +0000";
layers = (
{
layerId = "9F5B1694-2A59-45B7-91CA-438A6316E2AD";
paths = (
{
closed = 1;
nodes = (
"40 72 OFFCURVE",
"107 -12 OFFCURVE",
"214 -12 CURVE",
"321 -12 OFFCURVE",
"388 72 OFFCURVE",
"388 175 CURVE SMOOTH",
"388 281 OFFCURVE",
"321 362 OFFCURVE",
"214 362 CURVE",
"109 362 OFFCURVE",
"40 284 OFFCURVE",
"40 175 CURVE SMOOTH"
);
},
{
closed = 1;
nodes = (
"100 265 OFFCURVE",
"147 316 OFFCURVE",
"214 316 CURVE SMOOTH",
"281 316 OFFCURVE",
"328 265 OFFCURVE",
"328 174 CURVE SMOOTH",
"328 88 OFFCURVE",
"281 34 OFFCURVE",
"214 34 CURVE SMOOTH",
"147 34 OFFCURVE",
"100 88 OFFCURVE",
"100 174 CURVE SMOOTH"
);
}
);
width = 428;
},
{
layerId = "4BC39443-182D-41DE-81B9-A713C9E8B1F3";
width = 600;
}
);
unicode = 006F;
},
{
glyphname = p;
lastChange = "2016-07-23 16:36:52 +0000";
layers = (
{
layerId = "9F5B1694-2A59-45B7-91CA-438A6316E2AD";
paths = (
{
closed = 1;
nodes = (
"414 277 OFFCURVE",
"347 362 OFFCURVE",
"247 362 CURVE SMOOTH",
"197 362 OFFCURVE",
"155 341 OFFCURVE",
"128 302 CURVE",
"126 302 LINE",
"121 350 LINE",
"70 350 LINE",
"70 -230 LINE",
"126 -230 LINE",
"126 47 LINE",
"128 47 LINE",
"155 8 OFFCURVE",
"197 -12 OFFCURVE",
"247 -12 CURVE SMOOTH",
"347 -12 OFFCURVE",
"414 71 OFFCURVE",
"414 174 CURVE SMOOTH"
);
},
{
closed = 1;
nodes = (
"354 84 OFFCURVE",
"307 34 OFFCURVE",
"240 34 CURVE SMOOTH",
"174 34 OFFCURVE",
"126 84 OFFCURVE",
"126 174 CURVE SMOOTH",
"126 264 OFFCURVE",
"174 316 OFFCURVE",
"240 316 CURVE SMOOTH",
"307 316 OFFCURVE",
"354 264 OFFCURVE",
"354 174 CURVE SMOOTH"
);
}
);
width = 454;
},
{
layerId = "4BC39443-182D-41DE-81B9-A713C9E8B1F3";
width = 600;
}
);
leftMetricsKey = n;
rightMetricsKey = o;
unicode = 0070;
},
{
glyphname = r;
lastChange = "2016-07-23 16:37:01 +0000";
layers = (
{
layerId = "9F5B1694-2A59-45B7-91CA-438A6316E2AD";
paths = (
{
closed = 1;
nodes = (
"280 350 LINE",
"266 357 OFFCURVE",
"251 362 OFFCURVE",
"230 362 CURVE",
"190 362 OFFCURVE",
"150 342 OFFCURVE",
"128 303 CURVE",
"126 303 LINE",
"121 350 LINE",
"70 350 LINE",
"70 0 LINE",
"126 0 LINE",
"126 191 LINE",
"126 281 OFFCURVE",
"172 316 OFFCURVE",
"227 316 CURVE",
"241 316 OFFCURVE",
"251 314 OFFCURVE",
"260 310 CURVE"
);
}
);
width = 270;
},
{
layerId = "4BC39443-182D-41DE-81B9-A713C9E8B1F3";
width = 600;
}
);
leftMetricsKey = n;
rightMetricsKey = f;
unicode = 0072;
},
{
glyphname = s;
lastChange = "2016-07-23 16:37:24 +0000";
layers = (
{
background = {
paths = (
{
closed = 1;
nodes = (
"64 27 OFFCURVE",
"120 -12 OFFCURVE",
"207 -12 CURVE SMOOTH",
"305 -12 OFFCURVE",
"364 38 OFFCURVE",
"364 102 CURVE SMOOTH",
"364 157 OFFCURVE",
"319 192 OFFCURVE",
"262 200 CURVE SMOOTH",
"185 211 LINE SMOOTH",
"145 217 OFFCURVE",
"114 230 OFFCURVE",
"114 264 CURVE SMOOTH",
"114 314 OFFCURVE",
"181 318 OFFCURVE",
"205 318 CURVE SMOOTH",
"247 318 OFFCURVE",
"285 304 OFFCURVE",
"310 258 CURVE",
"353 277 LINE",
"328 336 OFFCURVE",
"275 362 OFFCURVE",
"205 362 CURVE SMOOTH",
"110 362 OFFCURVE",
"62 314 OFFCURVE",
"62 261 CURVE SMOOTH",
"62 207 OFFCURVE",
"113 171 OFFCURVE",
"167 164 CURVE SMOOTH",
"240 154 LINE SMOOTH",
"276 149 OFFCURVE",
"310 139 OFFCURVE",
"310 99 CURVE SMOOTH",
"310 50 OFFCURVE",
"258 33 OFFCURVE",
"210 33 CURVE SMOOTH",
"147 33 OFFCURVE",
"109 62 OFFCURVE",
"88 116 CURVE",
"40 97 LINE"
);
},
{
closed = 1;
nodes = (
"881 284 OFFCURVE",
"812 362 OFFCURVE",
"707 362 CURVE SMOOTH",
"600 362 OFFCURVE",
"533 278 OFFCURVE",
"533 185 CURVE SMOOTH",
"533 171 OFFCURVE",
"534 163 OFFCURVE",
"536 157 CURVE",
"821 157 LINE",
"817 78 OFFCURVE",
"769 34 OFFCURVE",
"707 34 CURVE SMOOTH",
"657 34 OFFCURVE",
"617 54 OFFCURVE",
"592 105 CURVE",
"543 86 LINE",
"574 17 OFFCURVE",
"629 -12 OFFCURVE",
"707 -12 CURVE SMOOTH",
"814 -12 OFFCURVE",
"881 69 OFFCURVE",
"881 175 CURVE SMOOTH"
);
},
{
closed = 1;
nodes = (
"593 200 LINE",
"597 271 OFFCURVE",
"647 316 OFFCURVE",
"707 316 CURVE SMOOTH",
"767 316 OFFCURVE",
"817 271 OFFCURVE",
"821 200 CURVE"
);
}
);
};
layerId = "9F5B1694-2A59-45B7-91CA-438A6316E2AD";
paths = (
{
closed = 1;
nodes = (
"65 30 OFFCURVE",
"109 -12 OFFCURVE",
"196 -12 CURVE SMOOTH",
"289 -12 OFFCURVE",
"341 36 OFFCURVE",
"341 96 CURVE SMOOTH",
"341 151 OFFCURVE",
"300 184 OFFCURVE",
"238 198 CURVE SMOOTH",
"169 214 LINE SMOOTH",
"132 223 OFFCURVE",
"113 239 OFFCURVE",
"113 266 CURVE SMOOTH",
"113 314 OFFCURVE",
"170 318 OFFCURVE",
"189 318 CURVE SMOOTH",
"235 318 OFFCURVE",
"266 296 OFFCURVE",
"287 258 CURVE",
"330 277 LINE",
"310 324 OFFCURVE",
"269 362 OFFCURVE",
"189 362 CURVE SMOOTH",
"104 362 OFFCURVE",
"59 315 OFFCURVE",
"59 263 CURVE SMOOTH",
"59 213 OFFCURVE",
"98 176 OFFCURVE",
"151 165 CURVE SMOOTH",
"217 151 LINE SMOOTH",
"256 143 OFFCURVE",
"285 131 OFFCURVE",
"285 94 CURVE SMOOTH",
"285 48 OFFCURVE",
"241 33 OFFCURVE",
"200 33 CURVE SMOOTH",
"141 33 OFFCURVE",
"110 63 OFFCURVE",
"89 105 CURVE",
"40 86 LINE"
);
}
);
width = 381;
},
{
associatedMasterId = "9F5B1694-2A59-45B7-91CA-438A6316E2AD";
layerId = "4EF14572-5A53-423B-880F-D4A5EF8F08EB";
name = "Regular May 20 16, 16:02";
width = 414;
},
{
associatedMasterId = "9F5B1694-2A59-45B7-91CA-438A6316E2AD";
background = {
paths = (
{
closed = 1;
nodes = (
"64 27 OFFCURVE",
"120 -12 OFFCURVE",
"207 -12 CURVE SMOOTH",
"305 -12 OFFCURVE",
"364 38 OFFCURVE",
"364 102 CURVE SMOOTH",
"364 157 OFFCURVE",
"319 192 OFFCURVE",
"262 200 CURVE SMOOTH",
"185 211 LINE SMOOTH",
"145 217 OFFCURVE",
"114 230 OFFCURVE",
"114 264 CURVE SMOOTH",
"114 314 OFFCURVE",
"181 318 OFFCURVE",
"205 318 CURVE SMOOTH",
"247 318 OFFCURVE",
"285 304 OFFCURVE",
"310 258 CURVE",
"353 277 LINE",
"328 336 OFFCURVE",
"275 362 OFFCURVE",
"205 362 CURVE SMOOTH",
"110 362 OFFCURVE",
"62 314 OFFCURVE",
"62 261 CURVE SMOOTH",
"62 207 OFFCURVE",
"113 171 OFFCURVE",
"167 164 CURVE SMOOTH",
"240 154 LINE SMOOTH",
"276 149 OFFCURVE",
"310 139 OFFCURVE",
"310 99 CURVE SMOOTH",
"310 50 OFFCURVE",
"258 33 OFFCURVE",
"210 33 CURVE SMOOTH",
"147 33 OFFCURVE",
"109 62 OFFCURVE",
"88 116 CURVE",
"40 97 LINE"
);
},
{
closed = 1;
nodes = (
"881 284 OFFCURVE",
"812 362 OFFCURVE",
"707 362 CURVE SMOOTH",
"600 362 OFFCURVE",
"533 278 OFFCURVE",
"533 185 CURVE SMOOTH",
"533 171 OFFCURVE",
"534 163 OFFCURVE",
"536 157 CURVE",
"821 157 LINE",
"817 78 OFFCURVE",
"769 34 OFFCURVE",
"707 34 CURVE SMOOTH",
"657 34 OFFCURVE",
"617 54 OFFCURVE",
"592 105 CURVE",
"543 86 LINE",
"574 17 OFFCURVE",
"629 -12 OFFCURVE",
"707 -12 CURVE SMOOTH",
"814 -12 OFFCURVE",
"881 69 OFFCURVE",
"881 175 CURVE SMOOTH"
);
},
{
closed = 1;
nodes = (
"593 200 LINE",
"597 271 OFFCURVE",
"647 316 OFFCURVE",
"707 316 CURVE SMOOTH",
"767 316 OFFCURVE",
"817 271 OFFCURVE",
"821 200 CURVE"
);
}
);
};
layerId = "A20DE0A1-E444-4463-B56E-4432BCA321C0";
name = "Regular May 20 16, 16:19";
paths = (
{
closed = 1;
nodes = (
"64 27 OFFCURVE",
"120 -12 OFFCURVE",
"207 -12 CURVE SMOOTH",
"305 -12 OFFCURVE",
"364 38 OFFCURVE",
"364 102 CURVE SMOOTH",
"364 157 OFFCURVE",
"319 192 OFFCURVE",
"262 200 CURVE SMOOTH",
"185 211 LINE SMOOTH",
"145 217 OFFCURVE",
"114 230 OFFCURVE",
"114 264 CURVE SMOOTH",
"114 314 OFFCURVE",
"181 318 OFFCURVE",
"205 318 CURVE SMOOTH",
"247 318 OFFCURVE",
"285 304 OFFCURVE",
"310 258 CURVE",
"353 277 LINE",
"328 336 OFFCURVE",
"275 362 OFFCURVE",
"205 362 CURVE SMOOTH",
"110 362 OFFCURVE",
"62 314 OFFCURVE",
"62 261 CURVE SMOOTH",
"62 207 OFFCURVE",
"113 171 OFFCURVE",
"167 164 CURVE SMOOTH",
"240 154 LINE SMOOTH",
"276 149 OFFCURVE",
"310 139 OFFCURVE",
"310 99 CURVE SMOOTH",
"310 50 OFFCURVE",
"258 33 OFFCURVE",
"210 33 CURVE SMOOTH",
"147 33 OFFCURVE",
"109 62 OFFCURVE",
"88 116 CURVE",
"40 97 LINE"
);
}
);
width = 414;
},
{
layerId = "4BC39443-182D-41DE-81B9-A713C9E8B1F3";
width = 600;
}
);
leftMetricsKey = o;
rightMetricsKey = o;
unicode = 0073;
},
{
glyphname = t;
lastChange = "2016-07-23 16:36:27 +0000";
layers = (
{
layerId = "9F5B1694-2A59-45B7-91CA-438A6316E2AD";
paths = (
{
closed = 1;
nodes = (
"76 45 OFFCURVE",
"104 0 OFFCURVE",
"191 0 CURVE SMOOTH",
"218 0 LINE",
"218 46 LINE",
"191 46 LINE SMOOTH",
"144 46 OFFCURVE",
"132 67 OFFCURVE",
"132 110 CURVE SMOOTH",
"132 510 LINE",
"76 510 LINE",
"76 110 LINE SMOOTH"
);
},
{
closed = 1;
nodes = (
"10 304 LINE",
"218 304 LINE",
"218 350 LINE",
"10 350 LINE"
);
}
);
width = 238;
},
{
layerId = "4BC39443-182D-41DE-81B9-A713C9E8B1F3";
width = 600;
}
);
unicode = 0074;
},
{
glyphname = v;
lastChange = "2016-07-23 16:37:32 +0000";
layers = (
{
layerId = "9F5B1694-2A59-45B7-91CA-438A6316E2AD";
paths = (
{
closed = 1;
nodes = (
"298 351 LINE",
"184 53 LINE",
"183 53 LINE",
"70 351 LINE",
"10 351 LINE",
"153 0 LINE",
"213 0 LINE",
"356 351 LINE"
);
}
);
width = 366;
},
{
layerId = "4BC39443-182D-41DE-81B9-A713C9E8B1F3";
width = 600;
}
);
unicode = 0076;
},
{
glyphname = w;
lastChange = "2016-07-23 16:37:38 +0000";
layers = (
{
layerId = "9F5B1694-2A59-45B7-91CA-438A6316E2AD";
paths = (
{
closed = 1;
nodes = (
"121 0 LINE",
"179 0 LINE",
"272 283 LINE",
"273 283 LINE",
"367 0 LINE",
"425 0 LINE",
"536 350 LINE",
"479 350 LINE",
"395 66 LINE",
"394 66 LINE",
"300 350 LINE",
"246 350 LINE",
"154 66 LINE",
"152 66 LINE",
"68 350 LINE",
"10 350 LINE"
);
}
);
width = 546;
},
{
layerId = "4BC39443-182D-41DE-81B9-A713C9E8B1F3";
width = 600;
}
);
leftMetricsKey = v;
rightMetricsKey = v;
unicode = 0077;
},
{
glyphname = x;
lastChange = "2016-07-23 16:37:50 +0000";
layers = (
{
layerId = "9F5B1694-2A59-45B7-91CA-438A6316E2AD";
paths = (
{
closed = 1;
nodes = (
"61 0 LINE",
"169 146 LINE",
"273 0 LINE",
"339 0 LINE",
"199 184 LINE",
"327 350 LINE",
"265 350 LINE",
"169 217 LINE",
"73 350 LINE",
"8 350 LINE",
"138 181 LINE",
"0 0 LINE"
);
}
);
width = 339;
},
{
layerId = "4BC39443-182D-41DE-81B9-A713C9E8B1F3";
width = 600;
}
);
leftMetricsKey = "=v-10";
rightMetricsKey = "=v-10";
unicode = 0078;
},
{
glyphname = y;
lastChange = "2016-07-23 16:37:57 +0000";
layers = (
{
layerId = "9F5B1694-2A59-45B7-91CA-438A6316E2AD";
paths = (
{
closed = 1;
nodes = (
"151 0 LINE",
"163 0 LINE",
"113 -126 LINE SMOOTH",
"97 -165 OFFCURVE",
"75 -184 OFFCURVE",
"46 -184 CURVE SMOOTH",
"29 -184 LINE",
"29 -230 LINE",
"46 -230 LINE SMOOTH",
"105 -230 OFFCURVE",
"144 -191 OFFCURVE",
"161 -147 CURVE SMOOTH",
"356 351 LINE",
"298 351 LINE",
"185 52 LINE",
"184 52 LINE",
"70 351 LINE",
"10 351 LINE"
);
}
);
width = 366;
},
{
layerId = "4BC39443-182D-41DE-81B9-A713C9E8B1F3";
width = 600;
}
);
leftMetricsKey = v;
rightMetricsKey = v;
unicode = 0079;
},
{
glyphname = z;
lastChange = "2016-07-23 16:35:45 +0000";
layers = (
{
layerId = "9F5B1694-2A59-45B7-91CA-438A6316E2AD";
paths = (
{
closed = 1;
nodes = (
"45 350 LINE",
"45 304 LINE",
"261 304 LINE",
"35 46 LINE",
"35 0 LINE",
"334 0 LINE",
"334 46 LINE",
"99 46 LINE",
"326 303 LINE",
"326 350 LINE"
);
}
);
width = 369;
},
{
layerId = "4BC39443-182D-41DE-81B9-A713C9E8B1F3";
width = 600;
}
);
unicode = 007A;
},
{
color = 3;
glyphname = g.ss01;
lastChange = "2016-07-23 16:38:06 +0000";
layers = (
{
guideLines = (
{
position = "{280, -242}";
}
);
layerId = "9F5B1694-2A59-45B7-91CA-438A6316E2AD";
paths = (
{
closed = 1;
nodes = (
"52 139 OFFCURVE",
"117 78 OFFCURVE",
"201 78 CURVE SMOOTH",
"284 78 OFFCURVE",
"350 138 OFFCURVE",
"350 214 CURVE SMOOTH",
"350 256 OFFCURVE",
"329 292 OFFCURVE",
"307 308 CURVE",
"307 310 LINE",
"314 309 OFFCURVE",
"322 308 OFFCURVE",
"331 308 CURVE SMOOTH",
"350 308 OFFCURVE",
"372 311 OFFCURVE",
"390 317 CURVE",
"390 362 LINE",
"363 355 OFFCURVE",
"338 350 OFFCURVE",
"308 350 CURVE SMOOTH",
"258 350 OFFCURVE",
"241 364 OFFCURVE",
"201 364 CURVE SMOOTH",
"119 364 OFFCURVE",
"52 304 OFFCURVE",
"52 221 CURVE SMOOTH"
);
},
{
closed = 1;
nodes = (
"108 280 OFFCURVE",
"146 320 OFFCURVE",
"201 320 CURVE SMOOTH",
"256 320 OFFCURVE",
"293 280 OFFCURVE",
"293 221 CURVE SMOOTH",
"293 162 OFFCURVE",
"256 122 OFFCURVE",
"201 122 CURVE SMOOTH",
"146 122 OFFCURVE",
"108 162 OFFCURVE",
"108 221 CURVE SMOOTH"
);
},
{
closed = 1;
nodes = (
"81 -29 OFFCURVE",
"35 -62 OFFCURVE",
"35 -122 CURVE",
"35 -204 OFFCURVE",
"122 -242 OFFCURVE",
"214 -242 CURVE SMOOTH",
"304 -242 OFFCURVE",
"394 -201 OFFCURVE",
"394 -119 CURVE",
"394 -51 OFFCURVE",
"332 0 OFFCURVE",
"257 0 CURVE",
"183 0 LINE",
"147 0 OFFCURVE",
"125 12 OFFCURVE",
"125 44 CURVE",
"125 74 OFFCURVE",
"144 90 OFFCURVE",
"163 108 CURVE",
"128 126 LINE",
"103 105 OFFCURVE",
"72 80 OFFCURVE",
"72 37 CURVE SMOOTH",
"72 -14 OFFCURVE",
"115 -47 OFFCURVE",
"176 -47 CURVE",
"247 -47 LINE",
"299 -47 OFFCURVE",
"334 -78 OFFCURVE",
"334 -119 CURVE SMOOTH",
"334 -157 OFFCURVE",
"304 -196 OFFCURVE",
"214 -196 CURVE SMOOTH",
"130 -196 OFFCURVE",
"95 -166 OFFCURVE",
"95 -115 CURVE SMOOTH",
"95 -70 OFFCURVE",
"122 -47 OFFCURVE",
"149 -29 CURVE",
"119 -10 LINE"
);
}
);
width = 404;
},
{
associatedMasterId = "9F5B1694-2A59-45B7-91CA-438A6316E2AD";
guideLines = (
{
position = "{280, -242}";
}
);
layerId = "37277CC6-A150-4622-9418-0674C5E8F202";
name = "Regular May 31 16, 11:43";
paths = (
{
closed = 1;
nodes = (
"53 139 OFFCURVE",
"123 78 OFFCURVE",
"211 78 CURVE SMOOTH",
"299 78 OFFCURVE",
"369 138 OFFCURVE",
"369 214 CURVE SMOOTH",
"369 256 OFFCURVE",
"349 294 OFFCURVE",
"320 310 CURVE",
"320 312 LINE",
"347 312 OFFCURVE",
"378 313 OFFCURVE",
"404 322 CURVE",
"404 364 LINE",
"377 357 OFFCURVE",
"351 350 OFFCURVE",
"321 350 CURVE SMOOTH",
"278 350 OFFCURVE",
"251 364 OFFCURVE",
"211 364 CURVE SMOOTH",
"125 364 OFFCURVE",
"53 304 OFFCURVE",
"53 221 CURVE SMOOTH"
);
},
{
closed = 1;
nodes = (
"108 280 OFFCURVE",
"152 321 OFFCURVE",
"211 321 CURVE SMOOTH",
"271 321 OFFCURVE",
"313 280 OFFCURVE",
"313 221 CURVE SMOOTH",
"313 162 OFFCURVE",
"271 121 OFFCURVE",
"211 121 CURVE SMOOTH",
"152 121 OFFCURVE",
"108 162 OFFCURVE",
"108 221 CURVE SMOOTH"
);
},
{
closed = 1;
nodes = (
"81 -29 OFFCURVE",
"35 -62 OFFCURVE",
"35 -122 CURVE",
"35 -204 OFFCURVE",
"127 -242 OFFCURVE",
"219 -242 CURVE SMOOTH",
"309 -242 OFFCURVE",
"404 -201 OFFCURVE",
"404 -119 CURVE",
"404 -51 OFFCURVE",
"342 -1 OFFCURVE",
"267 -1 CURVE",
"183 -1 LINE",
"147 -1 OFFCURVE",
"125 12 OFFCURVE",
"125 44 CURVE",
"125 74 OFFCURVE",
"144 90 OFFCURVE",
"163 108 CURVE",
"128 126 LINE",
"103 105 OFFCURVE",
"72 80 OFFCURVE",
"72 37 CURVE SMOOTH",
"72 -14 OFFCURVE",
"115 -47 OFFCURVE",
"176 -47 CURVE",
"257 -47 LINE",
"309 -47 OFFCURVE",
"344 -78 OFFCURVE",
"344 -119 CURVE SMOOTH",
"344 -157 OFFCURVE",
"309 -196 OFFCURVE",
"219 -196 CURVE SMOOTH",
"135 -196 OFFCURVE",
"95 -166 OFFCURVE",
"95 -115 CURVE SMOOTH",
"95 -70 OFFCURVE",
"122 -47 OFFCURVE",
"149 -29 CURVE",
"119 -10 LINE"
);
}
);
width = 429;
},
{
associatedMasterId = "9F5B1694-2A59-45B7-91CA-438A6316E2AD";
guideLines = (
{
position = "{280, -242}";
}
);
layerId = "60C89E86-53D6-4E58-A529-3616EAE83878";
name = "Regular May 31 16, 11:43 Jun 1 16, 00:17";
paths = (
{
closed = 1;
nodes = (
"50 130 OFFCURVE",
"114 62 OFFCURVE",
"206 62 CURVE SMOOTH",
"297 62 OFFCURVE",
"361 129 OFFCURVE",
"361 205 CURVE SMOOTH",
"361 249 OFFCURVE",
"340 290 OFFCURVE",
"310 306 CURVE",
"310 309 LINE",
"338 309 OFFCURVE",
"371 310 OFFCURVE",
"398 319 CURVE",
"398 362 LINE",
"370 355 OFFCURVE",
"342 347 OFFCURVE",
"311 347 CURVE SMOOTH",
"267 347 OFFCURVE",
"248 362 OFFCURVE",
"206 362 CURVE SMOOTH",
"120 362 OFFCURVE",
"50 299 OFFCURVE",
"50 212 CURVE SMOOTH"
);
},
{
closed = 1;
nodes = (
"105 275 OFFCURVE",
"146 320 OFFCURVE",
"206 320 CURVE SMOOTH",
"266 320 OFFCURVE",
"305 275 OFFCURVE",
"305 213 CURVE SMOOTH",
"305 150 OFFCURVE",
"266 104 OFFCURVE",
"206 104 CURVE SMOOTH",
"146 104 OFFCURVE",
"105 150 OFFCURVE",
"105 213 CURVE SMOOTH"
);
},
{
closed = 1;
nodes = (
"81 -29 OFFCURVE",
"35 -62 OFFCURVE",
"35 -122 CURVE",
"35 -204 OFFCURVE",
"122 -242 OFFCURVE",
"213 -242 CURVE SMOOTH",
"304 -242 OFFCURVE",
"394 -204 OFFCURVE",
"394 -122 CURVE",
"394 38 OFFCURVE",
"121 -43 OFFCURVE",
"121 52 CURVE",
"121 77 OFFCURVE",
"140 90 OFFCURVE",
"159 108 CURVE",
"124 126 LINE",
"93 103 OFFCURVE",
"67 83 OFFCURVE",
"67 40 CURVE SMOOTH",
"67 -97 OFFCURVE",
"334 -16 OFFCURVE",
"334 -123 CURVE SMOOTH",
"334 -160 OFFCURVE",
"303 -196 OFFCURVE",
"213 -196 CURVE SMOOTH",
"130 -196 OFFCURVE",
"95 -166 OFFCURVE",
"95 -115 CURVE SMOOTH",
"95 -70 OFFCURVE",
"122 -47 OFFCURVE",
"149 -29 CURVE",
"119 -10 LINE"
);
}
);
width = 429;
},
{
layerId = "4BC39443-182D-41DE-81B9-A713C9E8B1F3";
width = 600;
}
);
leftMetricsKey = z;
},
{
glyphname = ordfeminine;
lastChange = "2016-06-02 11:37:00 +0000";
layers = (
{
layerId = "9F5B1694-2A59-45B7-91CA-438A6316E2AD";
paths = (
{
closed = 1;
nodes = (
"313 327 LINE",
"356 327 LINE",
"356 589 LINE SMOOTH",
"356 669 OFFCURVE",
"308 715 OFFCURVE",
"208 715 CURVE SMOOTH",
"147 715 OFFCURVE",
"107 702 OFFCURVE",
"72 655 CURVE",
"104 628 LINE",
"128 664 OFFCURVE",
"155 676 OFFCURVE",
"208 676 CURVE SMOOTH",
"284 676 OFFCURVE",
"313 645 OFFCURVE",
"313 585 CURVE SMOOTH",
"313 543 LINE",
"192 543 LINE SMOOTH",
"108 543 OFFCURVE",
"59 503 OFFCURVE",
"59 432 CURVE SMOOTH",
"59 403 OFFCURVE",
"68 376 OFFCURVE",
"87 357 CURVE",
"112 330 OFFCURVE",
"143 322 OFFCURVE",
"199 322 CURVE SMOOTH",
"251 322 OFFCURVE",
"281 332 OFFCURVE",
"313 363 CURVE"
);
},
{
closed = 1;
nodes = (
"313 508 LINE",
"313 461 LINE SMOOTH",
"313 426 OFFCURVE",
"306 402 OFFCURVE",
"293 389 CURVE",
"266 364 OFFCURVE",
"234 361 OFFCURVE",
"199 361 CURVE SMOOTH",
"131 361 OFFCURVE",
"102 384 OFFCURVE",
"102 433 CURVE SMOOTH",
"102 483 OFFCURVE",
"134 508 OFFCURVE",
"197 508 CURVE SMOOTH"
);
}
);
width = 447;
},
{
layerId = "4BC39443-182D-41DE-81B9-A713C9E8B1F3";
width = 600;
}
);
note = ordfeminine;
unicode = 00AA;
},
{
glyphname = ordmasculine;
lastChange = "2016-06-02 11:37:00 +0000";
layers = (
{
layerId = "9F5B1694-2A59-45B7-91CA-438A6316E2AD";
paths = (
{
closed = 1;
nodes = (
"380 575 OFFCURVE",
"373 632 OFFCURVE",
"332 673 CURVE SMOOTH",
"304 701 OFFCURVE",
"269 715 OFFCURVE",
"226 715 CURVE SMOOTH",
"183 715 OFFCURVE",
"148 701 OFFCURVE",
"120 673 CURVE SMOOTH",
"79 632 OFFCURVE",
"72 575 OFFCURVE",
"72 519 CURVE SMOOTH",
"72 463 OFFCURVE",
"79 406 OFFCURVE",
"120 365 CURVE SMOOTH",
"148 337 OFFCURVE",
"183 323 OFFCURVE",
"226 323 CURVE SMOOTH",
"269 323 OFFCURVE",
"304 337 OFFCURVE",
"332 365 CURVE SMOOTH",
"373 406 OFFCURVE",
"380 463 OFFCURVE",
"380 519 CURVE SMOOTH"
);
},
{
closed = 1;
nodes = (
"337 476 OFFCURVE",
"335 425 OFFCURVE",
"304 394 CURVE SMOOTH",
"284 374 OFFCURVE",
"257 362 OFFCURVE",
"226 362 CURVE SMOOTH",
"195 362 OFFCURVE",
"168 374 OFFCURVE",
"148 394 CURVE SMOOTH",
"117 425 OFFCURVE",
"115 476 OFFCURVE",
"115 519 CURVE SMOOTH",
"115 562 OFFCURVE",
"117 613 OFFCURVE",
"148 644 CURVE SMOOTH",
"169 665 OFFCURVE",
"195 676 OFFCURVE",
"226 676 CURVE SMOOTH",
"257 676 OFFCURVE",
"283 665 OFFCURVE",
"304 644 CURVE SMOOTH",
"335 613 OFFCURVE",
"337 562 OFFCURVE",
"337 519 CURVE SMOOTH"
);
}
);
width = 452;
},
{
layerId = "4BC39443-182D-41DE-81B9-A713C9E8B1F3";
width = 600;
}
);
note = ordmasculine;
unicode = 00BA;
},
{
glyphname = "an-georgian";
lastChange = "2016-07-29 19:25:18 +0000";
layers = (
{
background = {
paths = (
{
closed = 1;
nodes = (
"320 -12 OFFCURVE",
"380 63 OFFCURVE",
"380 145 CURVE SMOOTH",
"380 223 OFFCURVE",
"326 271 OFFCURVE",
"275 296 CURVE SMOOTH",
"234 316 OFFCURVE",
"193 322 OFFCURVE",
"179 374 CURVE",
"131 365 LINE",
"143 290 OFFCURVE",
"186 281 OFFCURVE",
"233 259 CURVE SMOOTH",
"280 237 OFFCURVE",
"324 205 OFFCURVE",
"324 141 CURVE SMOOTH",
"324 73 OFFCURVE",
"276 34 OFFCURVE",
"210 34 CURVE SMOOTH",
"142 34 OFFCURVE",
"105 76 OFFCURVE",
"92 146 CURVE",
"45 131 LINE",
"56 53 OFFCURVE",
"108 -12 OFFCURVE",
"210 -12 CURVE SMOOTH"
);
}
);
};
backgroundImage = {
crop = "{{0, 0}, {280.80000000000001, 132}}";
imagePath = venuri_symb/01_an.jpg;
locked = "1";
transform = "{7, 0, 0, 7, -1155, -90}";
};
layerId = "9F5B1694-2A59-45B7-91CA-438A6316E2AD";
paths = (
{
closed = 1;
nodes = (
"320 -12 OFFCURVE",
"380 63 OFFCURVE",
"380 145 CURVE SMOOTH",
"380 226 OFFCURVE",
"326 273 OFFCURVE",
"272 298 CURVE SMOOTH",
"233 316 OFFCURVE",
"194 329 OFFCURVE",
"194 362 CURVE",
"146 362 LINE",
"146 296 OFFCURVE",
"192 283 OFFCURVE",
"241 259 CURVE SMOOTH",
"286 237 OFFCURVE",
"324 205 OFFCURVE",
"324 141 CURVE SMOOTH",
"324 73 OFFCURVE",
"276 34 OFFCURVE",
"210 34 CURVE SMOOTH",
"142 34 OFFCURVE",
"105 76 OFFCURVE",
"92 146 CURVE",
"45 131 LINE",
"56 53 OFFCURVE",
"108 -12 OFFCURVE",
"210 -12 CURVE SMOOTH"
);
}
);
width = 430;
},
{
associatedMasterId = "9F5B1694-2A59-45B7-91CA-438A6316E2AD";
backgroundImage = {
crop = "{{0, 0}, {280.80000000000001, 132}}";
imagePath = venuri_symb/01_an.jpg;
locked = "1";
transform = "{7, 0, 0, 7, -1165, -90}";
};
layerId = "8064EF90-7A68-40F6-94E8-EECBA708153A";
name = "Regular May 10 16, 12:51";
paths = (
{
closed = 1;
nodes = (
"314 77 OFFCURVE",
"276 34 OFFCURVE",
"210 34 CURVE SMOOTH",
"137 34 OFFCURVE",
"82 90 OFFCURVE",
"72 157 CURVE",
"40 147 LINE",
"40 32 OFFCURVE",
"129 -12 OFFCURVE",
"210 -12 CURVE SMOOTH",
"320 -12 OFFCURVE",
"370 63 OFFCURVE",
"370 149 CURVE SMOOTH",
"370 247 OFFCURVE",
"296 293 OFFCURVE",
"240 305 CURVE SMOOTH",
"188 316 OFFCURVE",
"156 322 OFFCURVE",
"138 371 CURVE",
"106 365 LINE",
"106 339 OFFCURVE",
"118 312 OFFCURVE",
"151 292 CURVE SMOOTH",
"188 269 OFFCURVE",
"314 258 OFFCURVE",
"314 149 CURVE SMOOTH"
);
}
);
width = 410;
},
{
background = {
paths = (
{
closed = 1;
nodes = (
"337 -12 OFFCURVE",
"397 63 OFFCURVE",
"397 145 CURVE SMOOTH",
"397 226 OFFCURVE",
"343 273 OFFCURVE",
"289 298 CURVE SMOOTH",
"250 316 OFFCURVE",
"211 329 OFFCURVE",
"211 362 CURVE",
"163 362 LINE",
"163 296 OFFCURVE",
"209 283 OFFCURVE",
"258 259 CURVE SMOOTH",
"303 237 OFFCURVE",
"341 205 OFFCURVE",
"341 141 CURVE SMOOTH",
"341 73 OFFCURVE",
"293 34 OFFCURVE",
"227 34 CURVE SMOOTH",
"159 34 OFFCURVE",
"122 76 OFFCURVE",
"109 146 CURVE",
"62 131 LINE",
"73 53 OFFCURVE",
"125 -12 OFFCURVE",
"227 -12 CURVE SMOOTH"
);
}
);
};
layerId = "4BC39443-182D-41DE-81B9-A713C9E8B1F3";
paths = (
{
closed = 1;
nodes = (
"349 -15 OFFCURVE",
"442 67 OFFCURVE",
"442 173 CURVE SMOOTH",
"442 260 OFFCURVE",
"389 295 OFFCURVE",
"348 322 CURVE SMOOTH",
"304 351 OFFCURVE",
"288 355 OFFCURVE",
"282 384 CURVE",
"126 384 LINE",
"126 300 OFFCURVE",
"164 269 OFFCURVE",
"200 247 CURVE SMOOTH",
"240 223 OFFCURVE",
"277 209 OFFCURVE",
"277 164 CURVE SMOOTH",
"277 143 OFFCURVE",
"260 118 OFFCURVE",
"227 118 CURVE SMOOTH",
"201 118 OFFCURVE",
"174 138 OFFCURVE",
"165 186 CURVE",
"20 151 LINE",
"30 56 OFFCURVE",
"112 -15 OFFCURVE",
"226 -15 CURVE SMOOTH"
);
}
);
width = 472;
},
{
associatedMasterId = "4BC39443-182D-41DE-81B9-A713C9E8B1F3";
background = {
paths = (
{
closed = 1;
nodes = (
"86 53 OFFCURVE",
"138 -12 OFFCURVE",
"240 -12 CURVE SMOOTH",
"350 -12 OFFCURVE",
"410 63 OFFCURVE",
"410 145 CURVE SMOOTH",
"410 223 OFFCURVE",
"356 271 OFFCURVE",
"305 296 CURVE SMOOTH",
"264 316 OFFCURVE",
"223 322 OFFCURVE",
"209 374 CURVE",
"161 365 LINE",
"173 290 OFFCURVE",
"216 281 OFFCURVE",
"263 259 CURVE SMOOTH",
"310 237 OFFCURVE",
"354 205 OFFCURVE",
"354 141 CURVE SMOOTH",
"354 73 OFFCURVE",
"306 34 OFFCURVE",
"240 34 CURVE SMOOTH",
"172 34 OFFCURVE",
"135 76 OFFCURVE",
"122 146 CURVE",
"75 131 LINE"
);
}
);
};
layerId = "8CCC4D33-F4B9-43B2-A206-385F8526BFD6";
name = "ძველი v18";
paths = (
{
closed = 1;
nodes = (
"362 -15 OFFCURVE",
"455 67 OFFCURVE",
"455 173 CURVE SMOOTH",
"455 253 OFFCURVE",
"403 294 OFFCURVE",
"371 317 CURVE SMOOTH",
"323 352 OFFCURVE",
"287 364 OFFCURVE",
"246 436 CURVE",
"131 385 LINE",
"139 342 OFFCURVE",
"169 295 OFFCURVE",
"207 267 CURVE SMOOTH",
"245 239 OFFCURVE",
"290 220 OFFCURVE",
"290 176 CURVE SMOOTH",
"290 143 OFFCURVE",
"273 118 OFFCURVE",
"240 118 CURVE SMOOTH",
"214 118 OFFCURVE",
"187 133 OFFCURVE",
"178 186 CURVE",
"45 175 LINE",
"45 68 OFFCURVE",
"116 -15 OFFCURVE",
"239 -15 CURVE SMOOTH"
);
}
);
width = 483;
},
{
associatedMasterId = "9F5B1694-2A59-45B7-91CA-438A6316E2AD";
background = {
paths = (
{
closed = 1;
nodes = (
"324 77 OFFCURVE",
"286 34 OFFCURVE",
"220 34 CURVE SMOOTH",
"147 34 OFFCURVE",
"92 90 OFFCURVE",
"82 157 CURVE",
"50 147 LINE",
"50 32 OFFCURVE",
"139 -12 OFFCURVE",
"220 -12 CURVE SMOOTH",
"330 -12 OFFCURVE",
"380 63 OFFCURVE",
"380 149 CURVE SMOOTH",
"380 247 OFFCURVE",
"306 293 OFFCURVE",
"250 305 CURVE SMOOTH",
"198 316 OFFCURVE",
"166 322 OFFCURVE",
"148 371 CURVE",
"116 365 LINE",
"116 339 OFFCURVE",
"128 312 OFFCURVE",
"161 292 CURVE SMOOTH",
"198 269 OFFCURVE",
"324 258 OFFCURVE",
"324 149 CURVE SMOOTH"
);
}
);
};
backgroundImage = {
crop = "{{0, 0}, {280.80000000000001, 132}}";
imagePath = venuri_symb/01_an.jpg;
locked = "1";
transform = "{7, 0, 0, 7, -1155, -90}";
};
layerId = "9CDFEEE7-021D-4384-BFAB-A3D6EFE5EB70";
name = "Regular Jul 23 16, 17:38";
paths = (
{
closed = 1;
nodes = (
"320 -12 OFFCURVE",
"380 63 OFFCURVE",
"380 145 CURVE SMOOTH",
"380 223 OFFCURVE",
"326 271 OFFCURVE",
"275 296 CURVE SMOOTH",
"234 316 OFFCURVE",
"193 322 OFFCURVE",
"179 374 CURVE",
"131 365 LINE",
"143 290 OFFCURVE",
"186 281 OFFCURVE",
"233 259 CURVE SMOOTH",
"280 237 OFFCURVE",
"324 205 OFFCURVE",
"324 141 CURVE SMOOTH",
"324 73 OFFCURVE",
"276 34 OFFCURVE",
"210 34 CURVE SMOOTH",
"142 34 OFFCURVE",
"105 76 OFFCURVE",
"92 146 CURVE",
"45 131 LINE",
"56 53 OFFCURVE",
"108 -12 OFFCURVE",
"210 -12 CURVE SMOOTH"
);
}
);
width = 430;
}
);
unicode = 10D0;
},
{
color = 4;
glyphname = "ban-georgian";
lastChange = "2016-07-23 13:42:57 +0000";
layers = (
{
backgroundImage = {
crop = "{{0, 0}, {353.51999999999998, 193.91999999999999}}";
imagePath = venuri_symb/02_ban.jpg;
locked = "1";
transform = "{7, 0, 0, 7, -721, -496}";
};
layerId = "9F5B1694-2A59-45B7-91CA-438A6316E2AD";
paths = (
{
closed = 1;
nodes = (
"335 -12 OFFCURVE",
"448 29 OFFCURVE",
"448 187 CURVE SMOOTH",
"448 320 OFFCURVE",
"312 387 OFFCURVE",
"302 395 CURVE",
"302 523 LINE",
"302 589 OFFCURVE",
"250 614 OFFCURVE",
"217 634 CURVE SMOOTH",
"89 710 LINE",
"53 710 LINE",
"53 642 OFFCURVE",
"51 561 OFFCURVE",
"45 493 CURVE",
"96 493 LINE",
"100 545 OFFCURVE",
"100 609 OFFCURVE",
"100 643 CURVE",
"104 643 LINE",
"195 586 LINE SMOOTH",
"220 570 OFFCURVE",
"244 555 OFFCURVE",
"244 518 CURVE",
"244 409 LINE",
"197 385 OFFCURVE",
"56 320 OFFCURVE",
"56 187 CURVE SMOOTH",
"56 39 OFFCURVE",
"169 -12 OFFCURVE",
"252 -12 CURVE SMOOTH"
);
},
{
closed = 1;
nodes = (
"197 34 OFFCURVE",
"116 72 OFFCURVE",
"116 186 CURVE SMOOTH",
"116 304 OFFCURVE",
"239 351 OFFCURVE",
"260 363 CURVE",
"279 350 OFFCURVE",
"388 294 OFFCURVE",
"388 186 CURVE SMOOTH",
"388 62 OFFCURVE",
"307 34 OFFCURVE",
"252 34 CURVE SMOOTH"
);
}
);
width = 498;
},
{
associatedMasterId = "9F5B1694-2A59-45B7-91CA-438A6316E2AD";
backgroundImage = {
crop = "{{0, 0}, {353.51999999999998, 193.91999999999999}}";
imagePath = venuri_symb/02_ban.jpg;
locked = "1";
transform = "{7, 0, 0, 7, -730, -496}";
};
layerId = "BE4E6F41-25B6-45CE-A518-C00EE043A499";
name = "Regular Apr 12 16, 20:54";
paths = (
{
closed = 1;
nodes = (
"322 -12 OFFCURVE",
"435 29 OFFCURVE",
"435 187 CURVE SMOOTH",
"435 320 OFFCURVE",
"297 387 OFFCURVE",
"287 395 CURVE",
"283 442 OFFCURVE",
"280 490 OFFCURVE",
"277 537 CURVE SMOOTH",
"274 589 OFFCURVE",
"242 610 OFFCURVE",
"192 634 CURVE SMOOTH",
"136 661 OFFCURVE",
"81 700 OFFCURVE",
"45 722 CURVE",
"29 722 LINE",
"29 654 OFFCURVE",
"26 573 OFFCURVE",
"20 505 CURVE",
"71 505 LINE",
"75 557 OFFCURVE",
"78 606 OFFCURVE",
"75 640 CURVE",
"77 641 LINE",
"106 617 OFFCURVE",
"134 600 OFFCURVE",
"170 584 CURVE SMOOTH",
"199 571 OFFCURVE",
"218 553 OFFCURVE",
"219 530 CURVE SMOOTH",
"221 490 OFFCURVE",
"224 449 OFFCURVE",
"229 409 CURVE",
"189 385 OFFCURVE",
"43 320 OFFCURVE",
"43 187 CURVE SMOOTH",
"43 39 OFFCURVE",
"156 -12 OFFCURVE",
"239 -12 CURVE SMOOTH"
);
},
{
closed = 1;
nodes = (
"184 34 OFFCURVE",
"103 72 OFFCURVE",
"103 186 CURVE SMOOTH",
"103 304 OFFCURVE",
"222 351 OFFCURVE",
"243 363 CURVE",
"259 352 OFFCURVE",
"375 304 OFFCURVE",
"375 186 CURVE SMOOTH",
"375 62 OFFCURVE",
"294 34 OFFCURVE",
"239 34 CURVE SMOOTH"
);
}
);
width = 465;
},
{
background = {
paths = (
{
closed = 1;
nodes = (
"375 -12 OFFCURVE",
"488 29 OFFCURVE",
"488 187 CURVE SMOOTH",
"488 320 OFFCURVE",
"352 387 OFFCURVE",
"342 395 CURVE",
"342 523 LINE",
"342 589 OFFCURVE",
"290 614 OFFCURVE",
"257 634 CURVE SMOOTH",
"129 710 LINE",
"93 710 LINE",
"93 642 OFFCURVE",
"91 561 OFFCURVE",
"85 493 CURVE",
"136 493 LINE",
"140 545 OFFCURVE",
"140 609 OFFCURVE",
"140 643 CURVE",
"144 643 LINE",
"235 586 LINE SMOOTH",
"260 570 OFFCURVE",
"284 555 OFFCURVE",
"284 518 CURVE",
"284 409 LINE",
"237 385 OFFCURVE",
"96 320 OFFCURVE",
"96 187 CURVE SMOOTH",
"96 39 OFFCURVE",
"209 -12 OFFCURVE",
"292 -12 CURVE SMOOTH"
);
},
{
closed = 1;
nodes = (
"237 34 OFFCURVE",
"156 72 OFFCURVE",
"156 186 CURVE SMOOTH",
"156 304 OFFCURVE",
"279 351 OFFCURVE",
"300 363 CURVE",
"319 350 OFFCURVE",
"428 294 OFFCURVE",
"428 186 CURVE SMOOTH",
"428 62 OFFCURVE",
"347 34 OFFCURVE",
"292 34 CURVE SMOOTH"
);
}
);
};
layerId = "4BC39443-182D-41DE-81B9-A713C9E8B1F3";
paths = (
{
closed = 1;
nodes = (
"427 -15 OFFCURVE",
"523 78 OFFCURVE",
"523 205 CURVE SMOOTH",
"523 321 OFFCURVE",
"444 383 OFFCURVE",
"398 413 CURVE",
"398 517 LINE SMOOTH",
"398 579 OFFCURVE",
"372 621 OFFCURVE",
"311 645 CURVE SMOOTH",
"145 710 LINE",
"47 710 LINE",
"47 623 OFFCURVE",
"39 527 OFFCURVE",
"30 464 CURVE",
"176 464 LINE",
"180 494 OFFCURVE",
"181 523 OFFCURVE",
"183 546 CURVE",
"189 546 LINE",
"225 530 LINE SMOOTH",
"240 523 OFFCURVE",
"242 513 OFFCURVE",
"242 502 CURVE SMOOTH",
"242 428 LINE",
"154 394 OFFCURVE",
"60 330 OFFCURVE",
"60 206 CURVE SMOOTH",
"60 81 OFFCURVE",
"155 -15 OFFCURVE",
"292 -15 CURVE SMOOTH"
);
},
{
closed = 1;
nodes = (
"239 118 OFFCURVE",
"225 163 OFFCURVE",
"225 200 CURVE SMOOTH",
"225 263 OFFCURVE",
"266 298 OFFCURVE",
"291 308 CURVE",
"318 297 OFFCURVE",
"358 261 OFFCURVE",
"358 200 CURVE SMOOTH",
"358 163 OFFCURVE",
"343 118 OFFCURVE",
"291 118 CURVE SMOOTH"
);
}
);
width = 553;
},
{
associatedMasterId = "4BC39443-182D-41DE-81B9-A713C9E8B1F3";
layerId = "438A5666-7D98-45C2-9852-8D2A77F531BF";
name = "Bold Jul 13 16, 15:59";
paths = (
{
closed = 1;
nodes = (
"157 447 LINE",
"163 535 LINE",
"179 535 OFFCURVE",
"192 523 OFFCURVE",
"192 512 CURVE SMOOTH",
"192 428 LINE",
"132 396 OFFCURVE",
"26 328 OFFCURVE",
"26 209 CURVE SMOOTH",
"26 80 OFFCURVE",
"121 -15 OFFCURVE",
"251 -15 CURVE SMOOTH",
"387 -15 OFFCURVE",
"476 75 OFFCURVE",
"476 209 CURVE SMOOTH",
"476 321 OFFCURVE",
"389 387 OFFCURVE",
"348 413 CURVE",
"348 517 LINE SMOOTH",
"348 604 OFFCURVE",
"278 634 OFFCURVE",
"248 652 CURVE",
"248 652 LINE",
"115 725 LINE",
"24 725 LINE",
"24 638 OFFCURVE",
"13 514 OFFCURVE",
"7 454 CURVE"
);
},
{
closed = 1;
nodes = (
"185 261 OFFCURVE",
"225 292 OFFCURVE",
"255 310 CURVE",
"282 290 OFFCURVE",
"318 257 OFFCURVE",
"318 208 CURVE SMOOTH",
"318 147 OFFCURVE",
"295 118 OFFCURVE",
"251 118 CURVE SMOOTH",
"212 118 OFFCURVE",
"185 152 OFFCURVE",
"185 208 CURVE SMOOTH"
);
}
);
width = 600;
},
{
associatedMasterId = "4BC39443-182D-41DE-81B9-A713C9E8B1F3";
layerId = "A6525F69-D26C-417E-82C9-9B3992229D92";
name = "Bold Jul 23 16, 14:49";
paths = (
{
closed = 1;
nodes = (
"427 -15 OFFCURVE",
"523 75 OFFCURVE",
"523 209 CURVE SMOOTH",
"523 321 OFFCURVE",
"439 387 OFFCURVE",
"398 413 CURVE",
"398 517 LINE SMOOTH",
"398 579 OFFCURVE",
"370 617 OFFCURVE",
"311 645 CURVE SMOOTH",
"145 725 LINE",
"47 725 LINE",
"47 638 OFFCURVE",
"36 514 OFFCURVE",
"30 454 CURVE",
"186 449 LINE",
"189 485 OFFCURVE",
"191 512 OFFCURVE",
"193 535 CURVE",
"199 535 LINE",
"222 521 LINE",
"240 510 OFFCURVE",
"242 500 OFFCURVE",
"242 489 CURVE SMOOTH",
"242 428 LINE",
"167 395 OFFCURVE",
"60 328 OFFCURVE",
"60 209 CURVE SMOOTH",
"60 80 OFFCURVE",
"155 -15 OFFCURVE",
"291 -15 CURVE SMOOTH"
);
},
{
closed = 1;
nodes = (
"239 118 OFFCURVE",
"225 161 OFFCURVE",
"225 209 CURVE SMOOTH",
"225 257 OFFCURVE",
"264 298 OFFCURVE",
"291 308 CURVE",
"318 298 OFFCURVE",
"358 257 OFFCURVE",
"358 209 CURVE SMOOTH",
"358 161 OFFCURVE",
"343 118 OFFCURVE",
"291 118 CURVE SMOOTH"
);
}
);
width = 553;
}
);
unicode = 10D1;
},
{
color = 4;
glyphname = "gan-georgian";
lastChange = "2016-07-29 17:29:44 +0000";
layers = (
{
background = {
paths = (
{
closed = 0;
nodes = (
"288 32 LINE",
"258 12 OFFCURVE",
"123 -37 OFFCURVE",
"123 -169 CURVE",
"123 -293 OFFCURVE",
"222 -337 OFFCURVE",
"284 -337 CURVE SMOOTH",
"345 -337 OFFCURVE",
"445 -293 OFFCURVE",
"445 -169 CURVE",
"445 -52 OFFCURVE",
"336 14 OFFCURVE",
"328 21 CURVE"
);
}
);
};
backgroundImage = {
crop = "{{0, 0}, {248.39999999999998, 133.44}}";
imagePath = venuri_symb/03_gan.jpg;
locked = "1";
transform = "{7, 0, 0, 7, -784, -442}";
};
layerId = "9F5B1694-2A59-45B7-91CA-438A6316E2AD";
paths = (
{
closed = 1;
nodes = (
"377 -372 OFFCURVE",
"505 -315 OFFCURVE",
"505 -157 CURVE",
"505 -9 OFFCURVE",
"355 66 OFFCURVE",
"345 74 CURVE",
"345 229 LINE",
"345 301 OFFCURVE",
"291 362 OFFCURVE",
"202 362 CURVE SMOOTH",
"125 362 OFFCURVE",
"50 311 OFFCURVE",
"50 223 CURVE",
"50 163 OFFCURVE",
"79 123 OFFCURVE",
"96 108 CURVE",
"138 129 LINE",
"117 157 OFFCURVE",
"106 187 OFFCURVE",
"106 223 CURVE SMOOTH",
"106 268 OFFCURVE",
"133 316 OFFCURVE",
"200 316 CURVE SMOOTH",
"253 316 OFFCURVE",
"289 284 OFFCURVE",
"289 211 CURVE SMOOTH",
"289 88 LINE",
"249 64 OFFCURVE",
"63 7 OFFCURVE",
"63 -157 CURVE",
"63 -315 OFFCURVE",
"191 -372 OFFCURVE",
"284 -372 CURVE SMOOTH"
);
},
{
closed = 1;
nodes = (
"219 -326 OFFCURVE",
"123 -282 OFFCURVE",
"123 -158 CURVE",
"123 -17 OFFCURVE",
"285 30 OFFCURVE",
"306 42 CURVE",
"334 27 OFFCURVE",
"445 -41 OFFCURVE",
"445 -158 CURVE",
"445 -282 OFFCURVE",
"348 -326 OFFCURVE",
"284 -326 CURVE SMOOTH"
);
}
);
width = 545;
},
{
background = {
paths = (
{
closed = 1;
nodes = (
"417 -372 OFFCURVE",
"545 -315 OFFCURVE",
"545 -157 CURVE",
"545 -9 OFFCURVE",
"395 66 OFFCURVE",
"385 74 CURVE",
"385 229 LINE",
"385 301 OFFCURVE",
"331 362 OFFCURVE",
"242 362 CURVE SMOOTH",
"165 362 OFFCURVE",
"90 311 OFFCURVE",
"90 223 CURVE",
"90 163 OFFCURVE",
"119 123 OFFCURVE",
"136 108 CURVE",
"178 129 LINE",
"157 157 OFFCURVE",
"146 187 OFFCURVE",
"146 223 CURVE SMOOTH",
"146 268 OFFCURVE",
"173 316 OFFCURVE",
"240 316 CURVE SMOOTH",
"293 316 OFFCURVE",
"329 284 OFFCURVE",
"329 211 CURVE SMOOTH",
"329 88 LINE",
"289 64 OFFCURVE",
"103 11 OFFCURVE",
"103 -157 CURVE",
"103 -315 OFFCURVE",
"231 -372 OFFCURVE",
"324 -372 CURVE SMOOTH"
);
},
{
closed = 1;
nodes = (
"259 -326 OFFCURVE",
"163 -282 OFFCURVE",
"163 -158 CURVE",
"163 -17 OFFCURVE",
"327 30 OFFCURVE",
"348 42 CURVE",
"366 27 OFFCURVE",
"485 -41 OFFCURVE",
"485 -158 CURVE",
"485 -282 OFFCURVE",
"388 -326 OFFCURVE",
"324 -326 CURVE SMOOTH"
);
}
);
};
layerId = "4BC39443-182D-41DE-81B9-A713C9E8B1F3";
paths = (
{
closed = 1;
nodes = (
"466 -376 OFFCURVE",
"578 -277 OFFCURVE",
"578 -140 CURVE SMOOTH",
"578 -15 OFFCURVE",
"484 55 OFFCURVE",
"441 83 CURVE",
"441 205 LINE SMOOTH",
"441 311 OFFCURVE",
"366 385 OFFCURVE",
"248 385 CURVE SMOOTH",
"125 385 OFFCURVE",
"46 305 OFFCURVE",
"46 202 CURVE SMOOTH",
"46 147 OFFCURVE",
"69 111 OFFCURVE",
"96 82 CURVE",
"220 146 LINE",
"212 163 OFFCURVE",
"206 179 OFFCURVE",
"206 200 CURVE SMOOTH",
"206 231 OFFCURVE",
"219 256 OFFCURVE",
"246 256 CURVE SMOOTH",
"274 256 OFFCURVE",
"285 230 OFFCURVE",
"285 203 CURVE SMOOTH",
"285 105 LINE",
"212 75 OFFCURVE",
"69 9 OFFCURVE",
"69 -141 CURVE SMOOTH",
"69 -274 OFFCURVE",
"180 -376 OFFCURVE",
"324 -376 CURVE SMOOTH"
);
},
{
closed = 1;
nodes = (
"271 -243 OFFCURVE",
"234 -200 OFFCURVE",
"234 -142 CURVE SMOOTH",
"234 -69 OFFCURVE",
"292 -36 OFFCURVE",
"337 -15 CURVE",
"370 -41 OFFCURVE",
"413 -80 OFFCURVE",
"413 -142 CURVE SMOOTH",
"413 -200 OFFCURVE",
"375 -243 OFFCURVE",
"323 -243 CURVE SMOOTH"
);
}
);
width = 608;
},
{
associatedMasterId = "4BC39443-182D-41DE-81B9-A713C9E8B1F3";
layerId = "4C146933-F360-407A-B038-883F5E6CFEE4";
name = "Bold Jul 13 16, 16:40";
paths = (
{
closed = 1;
nodes = (
"427 -376 OFFCURVE",
"538 -277 OFFCURVE",
"538 -140 CURVE SMOOTH",
"538 -15 OFFCURVE",
"434 61 OFFCURVE",
"391 89 CURVE",
"391 223 LINE",
"391 316 OFFCURVE",
"313 385 OFFCURVE",
"210 385 CURVE SMOOTH",
"105 385 OFFCURVE",
"22 313 OFFCURVE",
"22 217 CURVE SMOOTH",
"22 152 OFFCURVE",
"55 92 OFFCURVE",
"111 61 CURVE",
"224 129 LINE",
"194 147 OFFCURVE",
"179 175 OFFCURVE",
"179 217 CURVE SMOOTH",
"179 244 OFFCURVE",
"189 255 OFFCURVE",
"209 255 CURVE SMOOTH",
"225 255 OFFCURVE",
"234 246 OFFCURVE",
"234 207 CURVE SMOOTH",
"234 105 LINE",
"172 78 OFFCURVE",
"29 14 OFFCURVE",
"29 -138 CURVE SMOOTH",
"29 -275 OFFCURVE",
"140 -376 OFFCURVE",
"283 -376 CURVE SMOOTH"
);
},
{
closed = 1;
nodes = (
"231 -243 OFFCURVE",
"194 -202 OFFCURVE",
"194 -139 CURVE SMOOTH",
"194 -70 OFFCURVE",
"255 -34 OFFCURVE",
"297 -15 CURVE",
"328 -39 OFFCURVE",
"373 -81 OFFCURVE",
"373 -139 CURVE SMOOTH",
"373 -202 OFFCURVE",
"335 -243 OFFCURVE",
"283 -243 CURVE SMOOTH"
);
}
);
width = 600;
},
{
associatedMasterId = "4BC39443-182D-41DE-81B9-A713C9E8B1F3";
background = {
paths = (
{
closed = 0;
nodes = (
"421 183 LINE SMOOTH",
"421 299 OFFCURVE",
"329 385 OFFCURVE",
"205 385 CURVE SMOOTH",
"84 385 OFFCURVE",
"-15 303 OFFCURVE",
"-15 199 CURVE SMOOTH",
"-15 149 OFFCURVE",
"1 104 OFFCURVE",
"32 68 CURVE",
"168 129 LINE",
"153 156 OFFCURVE",
"149 171 OFFCURVE",
"149 193 CURVE SMOOTH",
"149 228 OFFCURVE",
"172 252 OFFCURVE",
"205 252 CURVE SMOOTH",
"241 252 OFFCURVE",
"265 225 OFFCURVE",
"265 177 CURVE SMOOTH"
);
}
);
};
layerId = "0DFC784B-5572-416E-80B7-52BCFD13B01C";
name = "Bold Jul 13 16, 16:42 Jul 13 16, 16:45";
paths = (
{
closed = 1;
nodes = (
"427 -376 OFFCURVE",
"538 -277 OFFCURVE",
"538 -140 CURVE SMOOTH",
"538 -15 OFFCURVE",
"434 61 OFFCURVE",
"391 89 CURVE",
"391 185 LINE SMOOTH",
"391 311 OFFCURVE",
"317 385 OFFCURVE",
"195 385 CURVE SMOOTH",
"78 385 OFFCURVE",
"-10 305 OFFCURVE",
"-10 193 CURVE SMOOTH",
"-10 142 OFFCURVE",
"9 102 OFFCURVE",
"32 68 CURVE SMOOTH",
"38 60 OFFCURVE",
"43 53 OFFCURVE",
"49 46 CURVE",
"174 108 LINE",
"161 130 OFFCURVE",
"150 161 OFFCURVE",
"150 193 CURVE SMOOTH",
"150 229 OFFCURVE",
"164 256 OFFCURVE",
"195 256 CURVE SMOOTH",
"219 256 OFFCURVE",
"235 237 OFFCURVE",
"235 181 CURVE SMOOTH",
"235 105 LINE",
"173 78 OFFCURVE",
"29 14 OFFCURVE",
"29 -138 CURVE SMOOTH",
"29 -275 OFFCURVE",
"140 -376 OFFCURVE",
"283 -376 CURVE SMOOTH"
);
},
{
closed = 1;
nodes = (
"231 -243 OFFCURVE",
"194 -202 OFFCURVE",
"194 -139 CURVE SMOOTH",
"194 -70 OFFCURVE",
"255 -34 OFFCURVE",
"297 -15 CURVE",
"328 -39 OFFCURVE",
"373 -81 OFFCURVE",
"373 -139 CURVE SMOOTH",
"373 -202 OFFCURVE",
"335 -243 OFFCURVE",
"283 -243 CURVE SMOOTH"
);
}
);
width = 600;
},
{
associatedMasterId = "4BC39443-182D-41DE-81B9-A713C9E8B1F3";
layerId = "D8945275-43EC-435F-8958-EDBAB925EE4B";
name = "Bold Jul 23 16, 15:35";
paths = (
{
closed = 1;
nodes = (
"467 -376 OFFCURVE",
"578 -277 OFFCURVE",
"578 -140 CURVE SMOOTH",
"578 -15 OFFCURVE",
"474 61 OFFCURVE",
"431 89 CURVE",
"431 185 LINE SMOOTH",
"431 311 OFFCURVE",
"357 385 OFFCURVE",
"235 385 CURVE SMOOTH",
"118 385 OFFCURVE",
"30 305 OFFCURVE",
"30 193 CURVE SMOOTH",
"30 142 OFFCURVE",
"49 102 OFFCURVE",
"72 68 CURVE",
"204 127 LINE",
"196 147 OFFCURVE",
"190 170 OFFCURVE",
"190 193 CURVE SMOOTH",
"190 229 OFFCURVE",
"204 256 OFFCURVE",
"235 256 CURVE SMOOTH",
"259 256 OFFCURVE",
"275 237 OFFCURVE",
"275 181 CURVE SMOOTH",
"275 105 LINE",
"213 78 OFFCURVE",
"69 14 OFFCURVE",
"69 -138 CURVE SMOOTH",
"69 -275 OFFCURVE",
"180 -376 OFFCURVE",
"323 -376 CURVE SMOOTH"
);
},
{
closed = 1;
nodes = (
"271 -243 OFFCURVE",
"234 -202 OFFCURVE",
"234 -139 CURVE SMOOTH",
"234 -70 OFFCURVE",
"295 -34 OFFCURVE",
"337 -15 CURVE",
"368 -39 OFFCURVE",
"413 -81 OFFCURVE",
"413 -139 CURVE SMOOTH",
"413 -202 OFFCURVE",
"375 -243 OFFCURVE",
"323 -243 CURVE SMOOTH"
);
}
);
width = 608;
}
);
unicode = 10D2;
},
{
color = 4;
glyphname = "don-georgian";
lastChange = "2016-07-23 15:36:06 +0000";
layers = (
{
background = {
paths = (
{
closed = 1;
nodes = (
"613 -340 LINE",
"537 -234 OFFCURVE",
"441 -212 OFFCURVE",
"343 -177 CURVE SMOOTH",
"233 -138 OFFCURVE",
"110 -46 OFFCURVE",
"110 155 CURVE SMOOTH",
"110 252 OFFCURVE",
"159 316 OFFCURVE",
"226 316 CURVE SMOOTH",
"271 316 OFFCURVE",
"304 287 OFFCURVE",
"327 257 CURVE",
"317 233 OFFCURVE",
"312 205 OFFCURVE",
"312 175 CURVE SMOOTH",
"312 72 OFFCURVE",
"379 -12 OFFCURVE",
"486 -12 CURVE SMOOTH",
"593 -12 OFFCURVE",
"660 72 OFFCURVE",
"660 175 CURVE SMOOTH",
"660 284 OFFCURVE",
"591 362 OFFCURVE",
"486 362 CURVE SMOOTH",
"427 362 OFFCURVE",
"380 337 OFFCURVE",
"350 297 CURVE",
"348 297 LINE",
"318 332 OFFCURVE",
"285 362 OFFCURVE",
"223 362 CURVE SMOOTH",
"119 362 OFFCURVE",
"50 270 OFFCURVE",
"50 156 CURVE SMOOTH",
"50 -13 OFFCURVE",
"142 -139 OFFCURVE",
"258 -187 CURVE",
"258 -189 LINE",
"231 -189 OFFCURVE",
"184 -195 OFFCURVE",
"159 -201 CURVE",
"159 -255 LINE",
"195 -244 OFFCURVE",
"236 -234 OFFCURVE",
"289 -234 CURVE SMOOTH",
"386 -234 OFFCURVE",
"503 -277 OFFCURVE",
"569 -372 CURVE"
);
},
{
closed = 1;
nodes = (
"419 34 OFFCURVE",
"372 88 OFFCURVE",
"372 174 CURVE SMOOTH",
"372 265 OFFCURVE",
"419 316 OFFCURVE",
"486 316 CURVE SMOOTH",
"553 316 OFFCURVE",
"600 265 OFFCURVE",
"600 174 CURVE SMOOTH",
"600 88 OFFCURVE",
"553 34 OFFCURVE",
"486 34 CURVE SMOOTH"
);
}
);
};
backgroundImage = {
crop = "{{0, 0}, {273.36000000000001, 134.40000000000001}}";
imagePath = venuri_symb/04_don.jpg;
locked = "1";
transform = "{7, 0, 0, 7, -1225, -449}";
};
layerId = "9F5B1694-2A59-45B7-91CA-438A6316E2AD";
paths = (
{
closed = 1;
nodes = (
"607 -360 LINE",
"574 -249 OFFCURVE",
"443 -212 OFFCURVE",
"345 -177 CURVE SMOOTH",
"235 -138 OFFCURVE",
"110 -46 OFFCURVE",
"110 145 CURVE SMOOTH",
"110 252 OFFCURVE",
"159 316 OFFCURVE",
"226 316 CURVE SMOOTH",
"271 316 OFFCURVE",
"304 287 OFFCURVE",
"327 257 CURVE",
"317 233 OFFCURVE",
"312 205 OFFCURVE",
"312 175 CURVE SMOOTH",
"312 72 OFFCURVE",
"379 -12 OFFCURVE",
"486 -12 CURVE SMOOTH",
"593 -12 OFFCURVE",
"660 72 OFFCURVE",
"660 175 CURVE SMOOTH",
"660 284 OFFCURVE",
"591 362 OFFCURVE",
"486 362 CURVE SMOOTH",
"427 362 OFFCURVE",
"380 337 OFFCURVE",
"350 297 CURVE",
"348 297 LINE",
"318 332 OFFCURVE",
"285 362 OFFCURVE",
"223 362 CURVE SMOOTH",
"119 362 OFFCURVE",
"50 270 OFFCURVE",
"50 146 CURVE SMOOTH",
"50 -13 OFFCURVE",
"144 -139 OFFCURVE",
"260 -187 CURVE",
"260 -189 LINE",
"233 -189 OFFCURVE",
"186 -195 OFFCURVE",
"161 -201 CURVE",
"161 -253 LINE",
"197 -242 OFFCURVE",
"238 -232 OFFCURVE",
"291 -232 CURVE SMOOTH",
"388 -232 OFFCURVE",
"511 -269 OFFCURVE",
"551 -360 CURVE"
);
},
{
closed = 1;
nodes = (
"419 34 OFFCURVE",
"372 88 OFFCURVE",
"372 174 CURVE SMOOTH",
"372 265 OFFCURVE",
"419 316 OFFCURVE",
"486 316 CURVE SMOOTH",
"553 316 OFFCURVE",
"600 265 OFFCURVE",
"600 174 CURVE SMOOTH",
"600 88 OFFCURVE",
"553 34 OFFCURVE",
"486 34 CURVE SMOOTH"
);
}
);
width = 710;
},
{
associatedMasterId = "9F5B1694-2A59-45B7-91CA-438A6316E2AD";
backgroundImage = {
crop = "{{0, 0}, {273.36000000000001, 134.40000000000001}}";
imagePath = venuri_symb/04_don.jpg;
locked = "1";
transform = "{7, 0, 0, 7, -1245, -449}";
};
layerId = "1887399E-8B16-45FF-AE41-F931C3BF95A9";
name = "Regular Apr 10 16, 20:59";
paths = (
{
closed = 1;
nodes = (
"321 315 OFFCURVE",
"271 362 OFFCURVE",
"187 362 CURVE SMOOTH",
"87 362 OFFCURVE",
"30 258 OFFCURVE",
"30 155 CURVE SMOOTH",
"30 -80 OFFCURVE",
"224 -193 OFFCURVE",
"300 -225 CURVE",
"331 -190 LINE",
"286 -164 OFFCURVE",
"90 -70 OFFCURVE",
"90 154 CURVE SMOOTH",
"90 245 OFFCURVE",
"127 316 OFFCURVE",
"194 316 CURVE SMOOTH",
"260 316 OFFCURVE",
"303 270 OFFCURVE",
"323 234 CURVE",
"350 268 LINE"
);
},
{
closed = 1;
nodes = (
"640 284 OFFCURVE",
"571 362 OFFCURVE",
"466 362 CURVE",
"359 362 OFFCURVE",
"292 281 OFFCURVE",
"292 175 CURVE SMOOTH",
"292 72 OFFCURVE",
"359 -12 OFFCURVE",
"466 -12 CURVE",
"573 -12 OFFCURVE",
"640 72 OFFCURVE",
"640 175 CURVE SMOOTH"
);
},
{
closed = 1;
nodes = (
"580 88 OFFCURVE",
"533 34 OFFCURVE",
"466 34 CURVE SMOOTH",
"399 34 OFFCURVE",
"352 88 OFFCURVE",
"352 174 CURVE SMOOTH",
"352 265 OFFCURVE",
"399 316 OFFCURVE",
"466 316 CURVE SMOOTH",
"533 316 OFFCURVE",
"580 265 OFFCURVE",
"580 174 CURVE SMOOTH"
);
},
{
closed = 1;
nodes = (
"178 -243 OFFCURVE",
"216 -237 OFFCURVE",
"254 -237 CURVE SMOOTH",
"366 -237 OFFCURVE",
"481 -286 OFFCURVE",
"559 -379 CURVE",
"597 -336 LINE",
"527 -248 OFFCURVE",
"410 -178 OFFCURVE",
"272 -178 CURVE SMOOTH",
"230 -178 OFFCURVE",
"189 -180 OFFCURVE",
"145 -194 CURVE",
"142 -254 LINE"
);
}
);
width = 660;
},
{
associatedMasterId = "9F5B1694-2A59-45B7-91CA-438A6316E2AD";
background = {
paths = (
{
closed = 1;
nodes = (
"30 -17 OFFCURVE",
"133 -122 OFFCURVE",
"218 -180 CURVE",
"194 -182 OFFCURVE",
"166 -190 OFFCURVE",
"141 -198 CURVE",
"143 -254 LINE",
"179 -243 OFFCURVE",
"216 -237 OFFCURVE",
"254 -237 CURVE SMOOTH",
"366 -237 OFFCURVE",
"481 -290 OFFCURVE",
"559 -383 CURVE",
"600 -337 LINE",
"537 -258 OFFCURVE",
"442 -217 OFFCURVE",
"359 -193 CURVE SMOOTH",
"246 -160 OFFCURVE",
"90 -48 OFFCURVE",
"90 154 CURVE SMOOTH",
"90 245 OFFCURVE",
"127 316 OFFCURVE",
"194 316 CURVE SMOOTH",
"246 316 OFFCURVE",
"284 287 OFFCURVE",
"307 257 CURVE",
"297 233 OFFCURVE",
"292 205 OFFCURVE",
"292 175 CURVE SMOOTH",
"292 72 OFFCURVE",
"359 -12 OFFCURVE",
"466 -12 CURVE SMOOTH",
"573 -12 OFFCURVE",
"640 72 OFFCURVE",
"640 175 CURVE SMOOTH",
"640 284 OFFCURVE",
"571 362 OFFCURVE",
"466 362 CURVE SMOOTH",
"407 362 OFFCURVE",
"360 337 OFFCURVE",
"330 297 CURVE",
"328 297 LINE",
"298 332 OFFCURVE",
"253 362 OFFCURVE",
"187 362 CURVE SMOOTH",
"87 362 OFFCURVE",
"30 258 OFFCURVE",
"30 155 CURVE SMOOTH"
);
},
{
closed = 1;
nodes = (
"580 88 OFFCURVE",
"533 34 OFFCURVE",
"466 34 CURVE SMOOTH",
"399 34 OFFCURVE",
"352 88 OFFCURVE",
"352 174 CURVE SMOOTH",
"352 265 OFFCURVE",
"399 316 OFFCURVE",
"466 316 CURVE SMOOTH",
"533 316 OFFCURVE",
"580 265 OFFCURVE",
"580 174 CURVE SMOOTH"
);
}
);
};
backgroundImage = {
crop = "{{0, 0}, {273.36000000000001, 134.40000000000001}}";
imagePath = venuri_symb/04_don.jpg;
locked = "1";
transform = "{7, 0, 0, 7, -1245, -449}";
};
layerId = "412CFA4C-2F47-45DE-B39D-D1B4B474D3C2";
name = "Regular Apr 12 16, 20:41";
paths = (
{
closed = 1;
nodes = (
"30 -14 OFFCURVE",
"133 -121 OFFCURVE",
"218 -179 CURVE",
"218 -181 LINE",
"194 -183 OFFCURVE",
"166 -190 OFFCURVE",
"141 -198 CURVE",
"143 -254 LINE",
"179 -243 OFFCURVE",
"216 -237 OFFCURVE",
"254 -237 CURVE SMOOTH",
"366 -237 OFFCURVE",
"481 -290 OFFCURVE",
"559 -383 CURVE",
"600 -337 LINE",
"537 -258 OFFCURVE",
"442 -217 OFFCURVE",
"359 -193 CURVE SMOOTH",
"246 -160 OFFCURVE",
"90 -48 OFFCURVE",
"90 154 CURVE SMOOTH",
"90 247 OFFCURVE",
"139 316 OFFCURVE",
"206 316 CURVE SMOOTH",
"258 316 OFFCURVE",
"284 287 OFFCURVE",
"307 257 CURVE",
"297 233 OFFCURVE",
"292 205 OFFCURVE",
"292 175 CURVE SMOOTH",
"292 72 OFFCURVE",
"359 -12 OFFCURVE",
"466 -12 CURVE SMOOTH",
"573 -12 OFFCURVE",
"640 72 OFFCURVE",
"640 175 CURVE SMOOTH",
"640 284 OFFCURVE",
"571 362 OFFCURVE",
"466 362 CURVE SMOOTH",
"407 362 OFFCURVE",
"360 337 OFFCURVE",
"330 297 CURVE",
"328 297 LINE",
"298 332 OFFCURVE",
"265 362 OFFCURVE",
"199 362 CURVE SMOOTH",
"99 362 OFFCURVE",
"30 258 OFFCURVE",
"30 155 CURVE SMOOTH"
);
},
{
closed = 1;
nodes = (
"580 88 OFFCURVE",
"533 34 OFFCURVE",
"466 34 CURVE SMOOTH",
"399 34 OFFCURVE",
"352 88 OFFCURVE",
"352 174 CURVE SMOOTH",
"352 265 OFFCURVE",
"399 316 OFFCURVE",
"466 316 CURVE SMOOTH",
"533 316 OFFCURVE",
"580 265 OFFCURVE",
"580 174 CURVE SMOOTH"
);
}
);
width = 670;
},
{
background = {
paths = (
{
closed = 1;
nodes = (
"607 -360 LINE",
"574 -249 OFFCURVE",
"443 -212 OFFCURVE",
"345 -177 CURVE SMOOTH",
"235 -138 OFFCURVE",
"110 -46 OFFCURVE",
"110 145 CURVE SMOOTH",
"110 252 OFFCURVE",
"159 316 OFFCURVE",
"226 316 CURVE SMOOTH",
"271 316 OFFCURVE",
"304 287 OFFCURVE",
"327 257 CURVE",
"317 233 OFFCURVE",
"312 205 OFFCURVE",
"312 175 CURVE SMOOTH",
"312 72 OFFCURVE",
"379 -12 OFFCURVE",
"486 -12 CURVE SMOOTH",
"593 -12 OFFCURVE",
"660 72 OFFCURVE",
"660 175 CURVE SMOOTH",
"660 284 OFFCURVE",
"591 362 OFFCURVE",
"486 362 CURVE SMOOTH",
"427 362 OFFCURVE",
"380 337 OFFCURVE",
"350 297 CURVE",
"348 297 LINE",
"318 332 OFFCURVE",
"285 362 OFFCURVE",
"223 362 CURVE SMOOTH",
"119 362 OFFCURVE",
"50 270 OFFCURVE",
"50 146 CURVE SMOOTH",
"50 -13 OFFCURVE",
"144 -139 OFFCURVE",
"260 -187 CURVE",
"260 -189 LINE",
"233 -189 OFFCURVE",
"186 -195 OFFCURVE",
"161 -201 CURVE",
"161 -253 LINE",
"197 -242 OFFCURVE",
"238 -232 OFFCURVE",
"291 -232 CURVE SMOOTH",
"388 -232 OFFCURVE",
"511 -269 OFFCURVE",
"551 -360 CURVE"
);
},
{
closed = 1;
nodes = (
"419 34 OFFCURVE",
"372 88 OFFCURVE",
"372 174 CURVE SMOOTH",
"372 265 OFFCURVE",
"419 316 OFFCURVE",
"486 316 CURVE SMOOTH",
"553 316 OFFCURVE",
"600 265 OFFCURVE",
"600 174 CURVE SMOOTH",
"600 88 OFFCURVE",
"553 34 OFFCURVE",
"486 34 CURVE SMOOTH"
);
}
);
};
layerId = "4BC39443-182D-41DE-81B9-A713C9E8B1F3";
paths = (
{
closed = 1;
nodes = (
"639 -360 LINE",
"639 -230 OFFCURVE",
"487 -140 OFFCURVE",
"387 -104 CURVE SMOOTH",
"256 -57 OFFCURVE",
"185 22 OFFCURVE",
"185 149 CURVE SMOOTH",
"185 210 OFFCURVE",
"210 251 OFFCURVE",
"246 251 CURVE SMOOTH",
"256 251 OFFCURVE",
"273 248 OFFCURVE",
"286 235 CURVE",
"281 225 OFFCURVE",
"274 204 OFFCURVE",
"274 175 CURVE SMOOTH",
"274 74 OFFCURVE",
"360 -15 OFFCURVE",
"479 -15 CURVE SMOOTH",
"598 -15 OFFCURVE",
"691 64 OFFCURVE",
"691 185 CURVE SMOOTH",
"691 306 OFFCURVE",
"598 385 OFFCURVE",
"486 385 CURVE SMOOTH",
"428 385 OFFCURVE",
"376 362 OFFCURVE",
"349 328 CURVE",
"346 328 LINE",
"318 365 OFFCURVE",
"273 384 OFFCURVE",
"216 384 CURVE SMOOTH",
"104 384 OFFCURVE",
"20 285 OFFCURVE",
"20 150 CURVE SMOOTH",
"20 32 OFFCURVE",
"68 -71 OFFCURVE",
"197 -130 CURVE",
"197 -134 LINE",
"172 -134 OFFCURVE",
"147 -138 OFFCURVE",
"119 -146 CURVE",
"119 -267 LINE",
"163 -253 OFFCURVE",
"213 -242 OFFCURVE",
"270 -242 CURVE SMOOTH",
"351 -242 OFFCURVE",
"455 -278 OFFCURVE",
"483 -360 CURVE"
);
},
{
closed = 1;
nodes = (
"451 115 OFFCURVE",
"432 144 OFFCURVE",
"432 185 CURVE SMOOTH",
"432 226 OFFCURVE",
"451 255 OFFCURVE",
"481 255 CURVE SMOOTH",
"513 255 OFFCURVE",
"530 226 OFFCURVE",
"530 185 CURVE SMOOTH",
"530 144 OFFCURVE",
"513 115 OFFCURVE",
"481 115 CURVE SMOOTH"
);
}
);
width = 730;
},
{
associatedMasterId = "4BC39443-182D-41DE-81B9-A713C9E8B1F3";
background = {
paths = (
{
closed = 1;
nodes = (
"65 -13 OFFCURVE",
"157 -139 OFFCURVE",
"273 -187 CURVE",
"273 -189 LINE",
"246 -189 OFFCURVE",
"199 -195 OFFCURVE",
"174 -201 CURVE",
"174 -255 LINE",
"210 -244 OFFCURVE",
"251 -234 OFFCURVE",
"304 -234 CURVE SMOOTH",
"401 -234 OFFCURVE",
"518 -277 OFFCURVE",
"584 -372 CURVE",
"628 -340 LINE",
"552 -234 OFFCURVE",
"456 -212 OFFCURVE",
"358 -177 CURVE SMOOTH",
"248 -138 OFFCURVE",
"125 -46 OFFCURVE",
"125 155 CURVE SMOOTH",
"125 252 OFFCURVE",
"174 316 OFFCURVE",
"241 316 CURVE SMOOTH",
"286 316 OFFCURVE",
"319 287 OFFCURVE",
"342 257 CURVE",
"332 233 OFFCURVE",
"327 205 OFFCURVE",
"327 175 CURVE SMOOTH",
"327 72 OFFCURVE",
"394 -12 OFFCURVE",
"501 -12 CURVE SMOOTH",
"608 -12 OFFCURVE",
"675 72 OFFCURVE",
"675 175 CURVE SMOOTH",
"675 284 OFFCURVE",
"606 362 OFFCURVE",
"501 362 CURVE SMOOTH",
"442 362 OFFCURVE",
"395 337 OFFCURVE",
"365 297 CURVE",
"363 297 LINE",
"333 332 OFFCURVE",
"300 362 OFFCURVE",
"238 362 CURVE SMOOTH",
"134 362 OFFCURVE",
"65 270 OFFCURVE",
"65 156 CURVE SMOOTH"
);
},
{
closed = 1;
nodes = (
"615 88 OFFCURVE",
"568 34 OFFCURVE",
"501 34 CURVE SMOOTH",
"434 34 OFFCURVE",
"387 88 OFFCURVE",
"387 174 CURVE SMOOTH",
"387 265 OFFCURVE",
"434 316 OFFCURVE",
"501 316 CURVE SMOOTH",
"568 316 OFFCURVE",
"615 265 OFFCURVE",
"615 174 CURVE SMOOTH"
);
}
);
};
layerId = "7309A7D3-8D83-49D4-828B-F20B4A67C17F";
name = "ძველი v18";
paths = (
{
closed = 1;
nodes = (
"654 -299 LINE",
"597 -181 OFFCURVE",
"479 -138 OFFCURVE",
"399 -109 CURVE SMOOTH",
"268 -62 OFFCURVE",
"194 22 OFFCURVE",
"194 149 CURVE SMOOTH",
"194 210 OFFCURVE",
"219 251 OFFCURVE",
"255 251 CURVE SMOOTH",
"265 251 OFFCURVE",
"282 250 OFFCURVE",
"294 240 CURVE",
"287 223 OFFCURVE",
"283 204 OFFCURVE",
"283 175 CURVE SMOOTH",
"283 74 OFFCURVE",
"369 -15 OFFCURVE",
"488 -15 CURVE SMOOTH",
"607 -15 OFFCURVE",
"700 64 OFFCURVE",
"700 185 CURVE SMOOTH",
"700 306 OFFCURVE",
"607 385 OFFCURVE",
"495 385 CURVE SMOOTH",
"437 385 OFFCURVE",
"385 361 OFFCURVE",
"358 327 CURVE",
"354 327 LINE",
"326 364 OFFCURVE",
"282 384 OFFCURVE",
"225 384 CURVE SMOOTH",
"113 384 OFFCURVE",
"29 285 OFFCURVE",
"29 150 CURVE SMOOTH",
"29 32 OFFCURVE",
"87 -76 OFFCURVE",
"216 -135 CURVE",
"216 -139 LINE",
"191 -139 OFFCURVE",
"166 -143 OFFCURVE",
"138 -151 CURVE",
"138 -272 LINE",
"182 -258 OFFCURVE",
"232 -250 OFFCURVE",
"282 -250 CURVE SMOOTH",
"383 -250 OFFCURVE",
"479 -290 OFFCURVE",
"538 -375 CURVE"
);
},
{
closed = 1;
nodes = (
"460 115 OFFCURVE",
"441 144 OFFCURVE",
"441 185 CURVE SMOOTH",
"441 226 OFFCURVE",
"460 255 OFFCURVE",
"490 255 CURVE SMOOTH",
"522 255 OFFCURVE",
"539 226 OFFCURVE",
"539 185 CURVE SMOOTH",
"539 144 OFFCURVE",
"522 115 OFFCURVE",
"490 115 CURVE SMOOTH"
);
}
);
width = 730;
},
{
associatedMasterId = "9F5B1694-2A59-45B7-91CA-438A6316E2AD";
background = {
paths = (
{
closed = 1;
nodes = (
"95 24 OFFCURVE",
"158 -83 OFFCURVE",
"256 -141 CURVE",
"256 -143 LINE",
"229 -143 OFFCURVE",
"184 -149 OFFCURVE",
"159 -155 CURVE",
"159 -209 LINE",
"195 -198 OFFCURVE",
"236 -189 OFFCURVE",
"277 -189 CURVE SMOOTH",
"394 -189 OFFCURVE",
"514 -276 OFFCURVE",
"551 -360 CURVE",
"607 -360 LINE",
"574 -262 OFFCURVE",
"464 -191 OFFCURVE",
"353 -144 CURVE SMOOTH",
"234 -94 OFFCURVE",
"155 3 OFFCURVE",
"155 147 CURVE SMOOTH",
"155 265 OFFCURVE",
"198 316 OFFCURVE",
"262 316 CURVE SMOOTH",
"328 316 OFFCURVE",
"374 265 OFFCURVE",
"374 185 CURVE SMOOTH",
"374 90 LINE",
"424 90 LINE",
"424 185 LINE SMOOTH",
"424 265 OFFCURVE",
"469 316 OFFCURVE",
"535 316 CURVE SMOOTH",
"602 316 OFFCURVE",
"649 265 OFFCURVE",
"649 184 CURVE SMOOTH",
"649 136 OFFCURVE",
"627 86 OFFCURVE",
"604 58 CURVE",
"651 34 LINE",
"680 69 OFFCURVE",
"709 132 OFFCURVE",
"709 193 CURVE SMOOTH",
"709 278 OFFCURVE",
"642 362 OFFCURVE",
"542 362 CURVE SMOOTH",
"476 362 OFFCURVE",
"422 328 OFFCURVE",
"400 270 CURVE",
"398 270 LINE",
"375 328 OFFCURVE",
"322 362 OFFCURVE",
"255 362 CURVE SMOOTH",
"158 362 OFFCURVE",
"95 278 OFFCURVE",
"95 148 CURVE SMOOTH"
);
}
);
};
backgroundImage = {
crop = "{{0, 0}, {273.36000000000001, 134.40000000000001}}";
imagePath = venuri_symb/04_don.jpg;
locked = "1";
transform = "{7, 0, 0, 7, -1225, -449}";
};
layerId = "29E77F85-9AEF-4617-840E-C7C0599B8B0D";
name = "Regular Jul 23 16, 17:15";
paths = (
{
closed = 1;
nodes = (
"613 -340 LINE",
"537 -234 OFFCURVE",
"441 -212 OFFCURVE",
"343 -177 CURVE SMOOTH",
"233 -138 OFFCURVE",
"110 -46 OFFCURVE",
"110 155 CURVE SMOOTH",
"110 252 OFFCURVE",
"159 316 OFFCURVE",
"226 316 CURVE SMOOTH",
"271 316 OFFCURVE",
"304 287 OFFCURVE",
"327 257 CURVE",
"317 233 OFFCURVE",
"312 205 OFFCURVE",
"312 175 CURVE SMOOTH",
"312 72 OFFCURVE",
"379 -12 OFFCURVE",
"486 -12 CURVE SMOOTH",
"593 -12 OFFCURVE",
"660 72 OFFCURVE",
"660 175 CURVE SMOOTH",
"660 284 OFFCURVE",
"591 362 OFFCURVE",
"486 362 CURVE SMOOTH",
"427 362 OFFCURVE",
"380 337 OFFCURVE",
"350 297 CURVE",
"348 297 LINE",
"318 332 OFFCURVE",
"285 362 OFFCURVE",
"223 362 CURVE SMOOTH",
"119 362 OFFCURVE",
"50 270 OFFCURVE",
"50 156 CURVE SMOOTH",
"50 -13 OFFCURVE",
"142 -139 OFFCURVE",
"258 -187 CURVE",
"258 -189 LINE",
"231 -189 OFFCURVE",
"184 -195 OFFCURVE",
"159 -201 CURVE",
"159 -255 LINE",
"195 -244 OFFCURVE",
"236 -234 OFFCURVE",
"289 -234 CURVE SMOOTH",
"386 -234 OFFCURVE",
"503 -277 OFFCURVE",
"569 -372 CURVE"
);
},
{
closed = 1;
nodes = (
"419 34 OFFCURVE",
"372 88 OFFCURVE",
"372 174 CURVE SMOOTH",
"372 265 OFFCURVE",
"419 316 OFFCURVE",
"486 316 CURVE SMOOTH",
"553 316 OFFCURVE",
"600 265 OFFCURVE",
"600 174 CURVE SMOOTH",
"600 88 OFFCURVE",
"553 34 OFFCURVE",
"486 34 CURVE SMOOTH"
);
}
);
width = 710;
}
);
unicode = 10D3;
},
{
color = 4;
glyphname = "en-georgian";
lastChange = "2016-08-25 14:36:15 +0000";
layers = (
{
background = {
paths = (
{
closed = 1;
nodes = (
"209 35 LINE",
"181 66 OFFCURVE",
"158 101 OFFCURVE",
"158 168 CURVE SMOOTH",
"158 261 OFFCURVE",
"205 316 OFFCURVE",
"268 316 CURVE SMOOTH",
"341 316 OFFCURVE",
"370 261 OFFCURVE",
"370 168 CURVE",
"370 -188 LINE SMOOTH",
"370 -270 OFFCURVE",
"309 -326 OFFCURVE",
"233 -326 CURVE SMOOTH",
"147 -326 OFFCURVE",
"86 -282 OFFCURVE",
"86 -176 CURVE SMOOTH",
"86 -113 OFFCURVE",
"112 -70 OFFCURVE",
"134 -49 CURVE",
"108 -28 LINE",
"84 -43 OFFCURVE",
"28 -111 OFFCURVE",
"28 -193 CURVE SMOOTH",
"28 -299 OFFCURVE",
"103 -372 OFFCURVE",
"233 -372 CURVE SMOOTH",
"353 -372 OFFCURVE",
"426 -284 OFFCURVE",
"426 -194 CURVE SMOOTH",
"426 179 LINE",
"426 294 OFFCURVE",
"377 362 OFFCURVE",
"268 362 CURVE SMOOTH",
"166 362 OFFCURVE",
"98 274 OFFCURVE",
"98 169 CURVE SMOOTH",
"98 93 OFFCURVE",
"130 42 OFFCURVE",
"167 10 CURVE"
);
}
);
};
backgroundImage = {
crop = "{{0, 0}, {282.24000000000001, 171.59999999999999}}";
imagePath = venuri_symb/05_en.jpg;
locked = "1";
transform = "{7, 0, 0, 7, -4, -467}";
};
layerId = "9F5B1694-2A59-45B7-91CA-438A6316E2AD";
paths = (
{
closed = 1;
nodes = (
"40 -299 OFFCURVE",
"115 -372 OFFCURVE",
"238 -372 CURVE SMOOTH",
"358 -372 OFFCURVE",
"426 -284 OFFCURVE",
"426 -194 CURVE SMOOTH",
"426 179 LINE SMOOTH",
"426 294 OFFCURVE",
"377 362 OFFCURVE",
"268 362 CURVE SMOOTH",
"163 362 OFFCURVE",
"99 289 OFFCURVE",
"99 193 CURVE SMOOTH",
"99 126 OFFCURVE",
"123 76 OFFCURVE",
"159 40 CURVE",
"202 67 LINE",
"177 99 OFFCURVE",
"159 137 OFFCURVE",
"159 189 CURVE SMOOTH",
"159 277 OFFCURVE",
"202 316 OFFCURVE",
"268 316 CURVE SMOOTH",
"341 316 OFFCURVE",
"370 258 OFFCURVE",
"370 171 CURVE SMOOTH",
"370 -188 LINE SMOOTH",
"370 -270 OFFCURVE",
"314 -326 OFFCURVE",
"238 -326 CURVE SMOOTH",
"159 -326 OFFCURVE",
"98 -282 OFFCURVE",
"98 -192 CURVE SMOOTH",
"98 -150 OFFCURVE",
"115 -119 OFFCURVE",
"136 -93 CURVE",
"101 -63 LINE",
"71 -90 OFFCURVE",
"40 -136 OFFCURVE",
"40 -203 CURVE SMOOTH"
);
}
);
width = 496;
},
{
associatedMasterId = "9F5B1694-2A59-45B7-91CA-438A6316E2AD";
background = {
paths = (
{
closed = 1;
nodes = (
"221 35 LINE",
"193 66 OFFCURVE",
"170 101 OFFCURVE",
"170 168 CURVE SMOOTH",
"170 261 OFFCURVE",
"217 316 OFFCURVE",
"280 316 CURVE SMOOTH",
"353 316 OFFCURVE",
"382 261 OFFCURVE",
"382 168 CURVE",
"382 -188 LINE SMOOTH",
"382 -270 OFFCURVE",
"321 -326 OFFCURVE",
"245 -326 CURVE SMOOTH",
"159 -326 OFFCURVE",
"98 -282 OFFCURVE",
"98 -176 CURVE SMOOTH",
"98 -113 OFFCURVE",
"124 -70 OFFCURVE",
"146 -49 CURVE",
"120 -28 LINE",
"96 -43 OFFCURVE",
"40 -111 OFFCURVE",
"40 -193 CURVE SMOOTH",
"40 -299 OFFCURVE",
"115 -372 OFFCURVE",
"245 -372 CURVE SMOOTH",
"365 -372 OFFCURVE",
"438 -284 OFFCURVE",
"438 -194 CURVE SMOOTH",
"438 179 LINE",
"438 294 OFFCURVE",
"389 362 OFFCURVE",
"280 362 CURVE SMOOTH",
"178 362 OFFCURVE",
"110 274 OFFCURVE",
"110 169 CURVE SMOOTH",
"110 93 OFFCURVE",
"142 42 OFFCURVE",
"179 10 CURVE"
);
}
);
};
backgroundImage = {
crop = "{{0, 0}, {282.24000000000001, 171.59999999999999}}";
imagePath = venuri_symb/05_en.jpg;
locked = "1";
transform = "{7, 0, 0, 7, 8, -467}";
};
layerId = "833C9F9F-8932-4680-811E-F1CFA2E343BF";
name = "Regular May 10 16, 13:01 May 17 16, 14:41";
paths = (
{
closed = 1;
nodes = (
"221 35 LINE",
"193 66 OFFCURVE",
"170 101 OFFCURVE",
"170 168 CURVE SMOOTH",
"170 261 OFFCURVE",
"217 316 OFFCURVE",
"280 316 CURVE SMOOTH",
"353 316 OFFCURVE",
"382 261 OFFCURVE",
"382 168 CURVE",
"382 -188 LINE SMOOTH",
"382 -270 OFFCURVE",
"321 -326 OFFCURVE",
"245 -326 CURVE SMOOTH",
"159 -326 OFFCURVE",
"98 -282 OFFCURVE",
"98 -176 CURVE SMOOTH",
"98 -113 OFFCURVE",
"124 -70 OFFCURVE",
"146 -49 CURVE",
"120 -28 LINE",
"96 -43 OFFCURVE",
"40 -111 OFFCURVE",
"40 -193 CURVE SMOOTH",
"40 -299 OFFCURVE",
"115 -372 OFFCURVE",
"245 -372 CURVE SMOOTH",
"365 -372 OFFCURVE",
"438 -284 OFFCURVE",
"438 -194 CURVE SMOOTH",
"438 179 LINE",
"438 294 OFFCURVE",
"389 362 OFFCURVE",
"280 362 CURVE SMOOTH",
"178 362 OFFCURVE",
"110 274 OFFCURVE",
"110 169 CURVE SMOOTH",
"110 93 OFFCURVE",
"142 42 OFFCURVE",
"179 10 CURVE"
);
}
);
width = 498;
},
{
background = {
paths = (
{
closed = 1;
nodes = (
"185 277 OFFCURVE",
"228 316 OFFCURVE",
"294 316 CURVE",
"367 316 OFFCURVE",
"396 258 OFFCURVE",
"396 171 CURVE",
"396 -188 LINE",
"396 -270 OFFCURVE",
"340 -326 OFFCURVE",
"264 -326 CURVE SMOOTH",
"185 -326 OFFCURVE",
"124 -282 OFFCURVE",
"124 -192 CURVE",
"124 -127 OFFCURVE",
"166 -87 OFFCURVE",
"196 -56 CURVE",
"196 -122 LINE",
"96 -37 LINE",
"160 -40 LINE",
"128 -56 OFFCURVE",
"66 -109 OFFCURVE",
"66 -203 CURVE",
"66 -299 OFFCURVE",
"141 -372 OFFCURVE",
"264 -372 CURVE SMOOTH",
"384 -372 OFFCURVE",
"452 -284 OFFCURVE",
"452 -194 CURVE",
"452 179 LINE",
"452 294 OFFCURVE",
"403 362 OFFCURVE",
"294 362 CURVE",
"189 362 OFFCURVE",
"125 289 OFFCURVE",
"125 193 CURVE",
"125 111 OFFCURVE",
"161 54 OFFCURVE",
"211 17 CURVE",
"148 17 LINE",
"262 88 LINE",
"262 28 LINE",
"222 70 OFFCURVE",
"185 115 OFFCURVE",
"185 189 CURVE"
);
}
);
};
layerId = "4BC39443-182D-41DE-81B9-A713C9E8B1F3";
paths = (
{
closed = 1;
nodes = (
"40 -295 OFFCURVE",
"141 -375 OFFCURVE",
"266 -375 CURVE SMOOTH",
"396 -375 OFFCURVE",
"491 -289 OFFCURVE",
"491 -169 CURVE SMOOTH",
"491 195 LINE SMOOTH",
"491 311 OFFCURVE",
"412 385 OFFCURVE",
"295 385 CURVE SMOOTH",
"174 385 OFFCURVE",
"90 305 OFFCURVE",
"90 194 CURVE SMOOTH",
"90 130 OFFCURVE",
"117 83 OFFCURVE",
"155 46 CURVE",
"274 108 LINE",
"261 130 OFFCURVE",
"250 160 OFFCURVE",
"250 194 CURVE SMOOTH",
"250 229 OFFCURVE",
"262 256 OFFCURVE",
"291 256 CURVE SMOOTH",
"317 256 OFFCURVE",
"335 234 OFFCURVE",
"335 191 CURVE SMOOTH",
"335 -163 LINE SMOOTH",
"335 -213 OFFCURVE",
"311 -242 OFFCURVE",
"269 -242 CURVE SMOOTH",
"224 -242 OFFCURVE",
"205 -207 OFFCURVE",
"205 -167 CURVE SMOOTH",
"205 -141 OFFCURVE",
"213 -114 OFFCURVE",
"230 -93 CURVE",
"119 -19 LINE",
"73 -58 OFFCURVE",
"40 -117 OFFCURVE",
"40 -182 CURVE SMOOTH"
);
}
);
width = 541;
},
{
associatedMasterId = "4BC39443-182D-41DE-81B9-A713C9E8B1F3";
background = {
paths = (
{
closed = 1;
nodes = (
"165 277 OFFCURVE",
"208 316 OFFCURVE",
"274 316 CURVE",
"347 316 OFFCURVE",
"376 258 OFFCURVE",
"376 171 CURVE",
"376 -188 LINE",
"376 -270 OFFCURVE",
"320 -326 OFFCURVE",
"244 -326 CURVE SMOOTH",
"165 -326 OFFCURVE",
"104 -282 OFFCURVE",
"104 -192 CURVE",
"104 -127 OFFCURVE",
"146 -87 OFFCURVE",
"176 -56 CURVE",
"176 -122 LINE",
"76 -37 LINE",
"140 -40 LINE",
"108 -56 OFFCURVE",
"46 -109 OFFCURVE",
"46 -203 CURVE",
"46 -299 OFFCURVE",
"121 -372 OFFCURVE",
"244 -372 CURVE SMOOTH",
"364 -372 OFFCURVE",
"432 -284 OFFCURVE",
"432 -194 CURVE",
"432 179 LINE",
"432 294 OFFCURVE",
"383 362 OFFCURVE",
"274 362 CURVE",
"169 362 OFFCURVE",
"105 289 OFFCURVE",
"105 193 CURVE",
"105 111 OFFCURVE",
"141 54 OFFCURVE",
"191 17 CURVE",
"128 17 LINE",
"242 88 LINE",
"242 28 LINE",
"202 70 OFFCURVE",
"165 115 OFFCURVE",
"165 189 CURVE"
);
}
);
};
layerId = "4E0BF6FE-10A3-448D-A065-E2CF75A07A18";
name = "ძველი v18";
paths = (
{
closed = 1;
nodes = (
"22 -295 OFFCURVE",
"120 -375 OFFCURVE",
"249 -375 CURVE SMOOTH",
"375 -375 OFFCURVE",
"471 -289 OFFCURVE",
"471 -169 CURVE SMOOTH",
"471 185 LINE SMOOTH",
"471 311 OFFCURVE",
"397 385 OFFCURVE",
"275 385 CURVE SMOOTH",
"158 385 OFFCURVE",
"71 305 OFFCURVE",
"71 193 CURVE SMOOTH",
"71 130 OFFCURVE",
"99 84 OFFCURVE",
"130 46 CURVE",
"254 108 LINE",
"241 130 OFFCURVE",
"230 161 OFFCURVE",
"230 193 CURVE SMOOTH",
"230 229 OFFCURVE",
"244 256 OFFCURVE",
"275 256 CURVE SMOOTH",
"299 256 OFFCURVE",
"315 234 OFFCURVE",
"315 178 CURVE SMOOTH",
"315 -163 LINE SMOOTH",
"315 -213 OFFCURVE",
"290 -246 OFFCURVE",
"249 -246 CURVE SMOOTH",
"203 -246 OFFCURVE",
"182 -208 OFFCURVE",
"182 -167 CURVE SMOOTH",
"182 -141 OFFCURVE",
"190 -114 OFFCURVE",
"207 -93 CURVE",
"99 -19 LINE",
"53 -58 OFFCURVE",
"22 -117 OFFCURVE",
"22 -183 CURVE SMOOTH"
);
}
);
width = 521;
}
);
unicode = 10D4;
},
{
color = 4;
glyphname = "vin-georgian";
lastChange = "2016-08-25 14:17:48 +0000";
layers = (
{
background = {
paths = (
{
closed = 1;
nodes = (
"181 96 LINE",
"157 127 OFFCURVE",
"141 162 OFFCURVE",
"141 207 CURVE SMOOTH",
"141 277 OFFCURVE",
"190 316 OFFCURVE",
"256 316 CURVE SMOOTH",
"322 316 OFFCURVE",
"371 277 OFFCURVE",
"371 207 CURVE",
"371 111 OFFCURVE",
"312 60 OFFCURVE",
"269 38 CURVE",
"269 24 LINE",
"343 24 OFFCURVE",
"370 5 OFFCURVE",
"370 -62 CURVE SMOOTH",
"370 -188 LINE SMOOTH",
"370 -270 OFFCURVE",
"314 -326 OFFCURVE",
"238 -326 CURVE SMOOTH",
"159 -326 OFFCURVE",
"88 -282 OFFCURVE",
"88 -196 CURVE SMOOTH",
"88 -143 OFFCURVE",
"114 -110 OFFCURVE",
"136 -89 CURVE",
"110 -68 LINE",
"86 -83 OFFCURVE",
"30 -141 OFFCURVE",
"30 -213 CURVE SMOOTH",
"30 -299 OFFCURVE",
"115 -372 OFFCURVE",
"238 -372 CURVE SMOOTH",
"358 -372 OFFCURVE",
"426 -284 OFFCURVE",
"426 -194 CURVE SMOOTH",
"426 -61 LINE SMOOTH",
"426 4 OFFCURVE",
"403 49 OFFCURVE",
"331 49 CURVE",
"331 51 LINE",
"380 82 OFFCURVE",
"431 132 OFFCURVE",
"431 207 CURVE",
"431 289 OFFCURVE",
"361 362 OFFCURVE",
"256 362 CURVE SMOOTH",
"151 362 OFFCURVE",
"81 289 OFFCURVE",
"81 207 CURVE SMOOTH",
"81 151 OFFCURVE",
"107 103 OFFCURVE",
"138 73 CURVE"
);
}
);
};
backgroundImage = {
crop = "{{0, 0}, {297.59999999999997, 133.44}}";
imagePath = venuri_symb/06_vin.jpg;
locked = "1";
transform = "{7, 0, 0, 7, -730, -415}";
};
guideLines = (
{
position = "{206, 207}";
},
{
position = "{205, 277}";
},
{
position = "{80, 289}";
},
{
angle = 90;
position = "{256, 228}";
}
);
layerId = "9F5B1694-2A59-45B7-91CA-438A6316E2AD";
paths = (
{
closed = 1;
nodes = (
"40 -299 OFFCURVE",
"115 -372 OFFCURVE",
"238 -372 CURVE SMOOTH",
"358 -372 OFFCURVE",
"426 -287 OFFCURVE",
"426 -184 CURVE SMOOTH",
"426 -91 LINE SMOOTH",
"426 -21 OFFCURVE",
"388 25 OFFCURVE",
"331 40 CURVE",
"331 42 LINE",
"381 66 OFFCURVE",
"416 120 OFFCURVE",
"416 189 CURVE SMOOTH",
"416 281 OFFCURVE",
"355 362 OFFCURVE",
"250 362 CURVE SMOOTH",
"145 362 OFFCURVE",
"81 289 OFFCURVE",
"81 207 CURVE SMOOTH",
"81 158 OFFCURVE",
"100 118 OFFCURVE",
"124 89 CURVE",
"168 117 LINE",
"152 142 OFFCURVE",
"141 171 OFFCURVE",
"141 207 CURVE SMOOTH",
"141 277 OFFCURVE",
"184 316 OFFCURVE",
"250 316 CURVE SMOOTH",
"316 316 OFFCURVE",
"356 267 OFFCURVE",
"356 189 CURVE SMOOTH",
"356 120 OFFCURVE",
"322 58 OFFCURVE",
"267 58 CURVE SMOOTH",
"256 58 LINE",
"256 12 LINE",
"279 12 LINE SMOOTH",
"333 12 OFFCURVE",
"370 -34 OFFCURVE",
"370 -92 CURVE SMOOTH",
"370 -178 LINE SMOOTH",
"370 -273 OFFCURVE",
"314 -326 OFFCURVE",
"238 -326 CURVE SMOOTH",
"159 -326 OFFCURVE",
"98 -282 OFFCURVE",
"98 -192 CURVE SMOOTH",
"98 -150 OFFCURVE",
"115 -119 OFFCURVE",
"136 -93 CURVE",
"101 -63 LINE",
"71 -90 OFFCURVE",
"40 -136 OFFCURVE",
"40 -203 CURVE SMOOTH"
);
}
);
width = 501;
},
{
associatedMasterId = "9F5B1694-2A59-45B7-91CA-438A6316E2AD";
backgroundImage = {
crop = "{{0, 0}, {297.59999999999997, 133.44}}";
imagePath = venuri_symb/06_vin.jpg;
locked = "1";
transform = "{7, 0, 0, 7, -720, -415}";
};
guideLines = (
{
position = "{216, 207}";
},
{
position = "{215, 277}";
},
{
position = "{90, 289}";
},
{
angle = 90;
position = "{266, 316}";
}
);
layerId = "065291A7-6063-4A91-AF93-9E04CFD74E59";
name = "Regular May 10 16, 12:54";
paths = (
{
closed = 1;
nodes = (
"191 96 LINE",
"167 127 OFFCURVE",
"151 162 OFFCURVE",
"151 207 CURVE SMOOTH",
"151 277 OFFCURVE",
"200 316 OFFCURVE",
"266 316 CURVE SMOOTH",
"332 316 OFFCURVE",
"381 277 OFFCURVE",
"381 207 CURVE",
"381 111 OFFCURVE",
"322 60 OFFCURVE",
"279 38 CURVE",
"279 24 LINE",
"353 24 OFFCURVE",
"380 5 OFFCURVE",
"380 -62 CURVE SMOOTH",
"380 -188 LINE SMOOTH",
"380 -270 OFFCURVE",
"324 -326 OFFCURVE",
"248 -326 CURVE SMOOTH",
"169 -326 OFFCURVE",
"98 -282 OFFCURVE",
"98 -196 CURVE SMOOTH",
"98 -143 OFFCURVE",
"114 -110 OFFCURVE",
"136 -89 CURVE",
"110 -68 LINE",
"86 -83 OFFCURVE",
"40 -141 OFFCURVE",
"40 -213 CURVE SMOOTH",
"40 -299 OFFCURVE",
"125 -372 OFFCURVE",
"248 -372 CURVE SMOOTH",
"368 -372 OFFCURVE",
"436 -284 OFFCURVE",
"436 -194 CURVE SMOOTH",
"436 -61 LINE SMOOTH",
"436 4 OFFCURVE",
"413 49 OFFCURVE",
"341 49 CURVE",
"341 51 LINE",
"390 82 OFFCURVE",
"441 132 OFFCURVE",
"441 207 CURVE",
"441 289 OFFCURVE",
"371 362 OFFCURVE",
"266 362 CURVE SMOOTH",
"161 362 OFFCURVE",
"91 289 OFFCURVE",
"91 207 CURVE SMOOTH",
"91 151 OFFCURVE",
"117 103 OFFCURVE",
"148 73 CURVE"
);
}
);
width = 501;
},
{
associatedMasterId = "9F5B1694-2A59-45B7-91CA-438A6316E2AD";
background = {
paths = (
{
closed = 1;
nodes = (
"181 96 LINE",
"157 127 OFFCURVE",
"141 162 OFFCURVE",
"141 207 CURVE SMOOTH",
"141 277 OFFCURVE",
"190 316 OFFCURVE",
"256 316 CURVE SMOOTH",
"322 316 OFFCURVE",
"371 277 OFFCURVE",
"371 207 CURVE",
"371 111 OFFCURVE",
"312 60 OFFCURVE",
"269 38 CURVE",
"269 24 LINE",
"343 24 OFFCURVE",
"370 5 OFFCURVE",
"370 -62 CURVE SMOOTH",
"370 -188 LINE SMOOTH",
"370 -270 OFFCURVE",
"314 -326 OFFCURVE",
"238 -326 CURVE SMOOTH",
"159 -326 OFFCURVE",
"88 -282 OFFCURVE",
"88 -196 CURVE SMOOTH",
"88 -143 OFFCURVE",
"114 -110 OFFCURVE",
"136 -89 CURVE",
"110 -68 LINE",
"86 -83 OFFCURVE",
"30 -141 OFFCURVE",
"30 -213 CURVE SMOOTH",
"30 -299 OFFCURVE",
"115 -372 OFFCURVE",
"238 -372 CURVE SMOOTH",
"358 -372 OFFCURVE",
"426 -284 OFFCURVE",
"426 -194 CURVE SMOOTH",
"426 -61 LINE SMOOTH",
"426 4 OFFCURVE",
"403 49 OFFCURVE",
"331 49 CURVE",
"331 51 LINE",
"380 82 OFFCURVE",
"431 132 OFFCURVE",
"431 207 CURVE",
"431 289 OFFCURVE",
"361 362 OFFCURVE",
"256 362 CURVE SMOOTH",
"151 362 OFFCURVE",
"81 289 OFFCURVE",
"81 207 CURVE SMOOTH",
"81 151 OFFCURVE",
"107 103 OFFCURVE",
"138 73 CURVE"
);
}
);
};
backgroundImage = {
crop = "{{0, 0}, {297.59999999999997, 133.44}}";
imagePath = venuri_symb/06_vin.jpg;
locked = "1";
transform = "{7, 0, 0, 7, -730, -415}";
};
guideLines = (
{
position = "{206, 207}";
},
{
position = "{205, 277}";
},
{
position = "{80, 289}";
},
{
angle = 90;
position = "{256, 228}";
}
);
layerId = "FE427644-FBD3-43EE-8A4C-9112A18EBB5E";
name = "ძველი ვერსია";
paths = (
{
closed = 1;
nodes = (
"40 -299 OFFCURVE",
"115 -372 OFFCURVE",
"238 -372 CURVE SMOOTH",
"358 -372 OFFCURVE",
"426 -287 OFFCURVE",
"426 -184 CURVE SMOOTH",
"426 -91 LINE SMOOTH",
"426 -21 OFFCURVE",
"388 25 OFFCURVE",
"331 40 CURVE",
"331 42 LINE",
"381 66 OFFCURVE",
"416 120 OFFCURVE",
"416 189 CURVE SMOOTH",
"416 271 OFFCURVE",
"355 362 OFFCURVE",
"250 362 CURVE SMOOTH",
"145 362 OFFCURVE",
"81 289 OFFCURVE",
"81 207 CURVE SMOOTH",
"81 151 OFFCURVE",
"107 103 OFFCURVE",
"138 73 CURVE",
"178 99 LINE",
"157 127 OFFCURVE",
"141 162 OFFCURVE",
"141 207 CURVE SMOOTH",
"141 277 OFFCURVE",
"184 316 OFFCURVE",
"250 316 CURVE SMOOTH",
"316 316 OFFCURVE",
"356 267 OFFCURVE",
"356 189 CURVE SMOOTH",
"356 120 OFFCURVE",
"322 58 OFFCURVE",
"267 58 CURVE SMOOTH",
"256 58 LINE",
"256 12 LINE",
"279 12 LINE SMOOTH",
"333 12 OFFCURVE",
"370 -34 OFFCURVE",
"370 -92 CURVE SMOOTH",
"370 -178 LINE SMOOTH",
"370 -273 OFFCURVE",
"314 -326 OFFCURVE",
"238 -326 CURVE SMOOTH",
"159 -326 OFFCURVE",
"98 -282 OFFCURVE",
"98 -192 CURVE SMOOTH",
"98 -150 OFFCURVE",
"115 -119 OFFCURVE",
"136 -93 CURVE",
"101 -63 LINE",
"71 -90 OFFCURVE",
"40 -136 OFFCURVE",
"40 -203 CURVE SMOOTH"
);
}
);
width = 501;
},
{
background = {
paths = (
{
closed = 1;
nodes = (
"62 -299 OFFCURVE",
"137 -372 OFFCURVE",
"260 -372 CURVE SMOOTH",
"380 -372 OFFCURVE",
"448 -287 OFFCURVE",
"448 -184 CURVE SMOOTH",
"448 -91 LINE SMOOTH",
"448 -21 OFFCURVE",
"410 25 OFFCURVE",
"353 40 CURVE",
"353 42 LINE",
"403 66 OFFCURVE",
"438 120 OFFCURVE",
"438 189 CURVE SMOOTH",
"438 271 OFFCURVE",
"377 362 OFFCURVE",
"272 362 CURVE SMOOTH",
"167 362 OFFCURVE",
"103 289 OFFCURVE",
"103 207 CURVE SMOOTH",
"103 158 OFFCURVE",
"122 118 OFFCURVE",
"146 89 CURVE",
"190 117 LINE",
"174 142 OFFCURVE",
"163 171 OFFCURVE",
"163 207 CURVE SMOOTH",
"163 277 OFFCURVE",
"206 316 OFFCURVE",
"272 316 CURVE SMOOTH",
"338 316 OFFCURVE",
"378 267 OFFCURVE",
"378 189 CURVE SMOOTH",
"378 120 OFFCURVE",
"344 58 OFFCURVE",
"289 58 CURVE SMOOTH",
"278 58 LINE",
"278 12 LINE",
"301 12 LINE SMOOTH",
"355 12 OFFCURVE",
"392 -34 OFFCURVE",
"392 -92 CURVE SMOOTH",
"392 -178 LINE SMOOTH",
"392 -273 OFFCURVE",
"336 -326 OFFCURVE",
"260 -326 CURVE SMOOTH",
"181 -326 OFFCURVE",
"120 -282 OFFCURVE",
"120 -192 CURVE SMOOTH",
"120 -150 OFFCURVE",
"137 -119 OFFCURVE",
"158 -93 CURVE",
"123 -63 LINE",
"93 -90 OFFCURVE",
"62 -136 OFFCURVE",
"62 -203 CURVE SMOOTH"
);
}
);
};
layerId = "4BC39443-182D-41DE-81B9-A713C9E8B1F3";
paths = (
{
closed = 1;
nodes = (
"25 -289 OFFCURVE",
"130 -375 OFFCURVE",
"258 -375 CURVE SMOOTH",
"385 -375 OFFCURVE",
"486 -289 OFFCURVE",
"486 -169 CURVE SMOOTH",
"486 -86 LINE SMOOTH",
"486 -3 OFFCURVE",
"437 31 OFFCURVE",
"404 42 CURVE",
"404 45 LINE",
"437 62 OFFCURVE",
"482 115 OFFCURVE",
"482 196 CURVE SMOOTH",
"482 303 OFFCURVE",
"389 385 OFFCURVE",
"269 385 CURVE SMOOTH",
"152 385 OFFCURVE",
"56 306 OFFCURVE",
"56 202 CURVE SMOOTH",
"56 160 OFFCURVE",
"73 116 OFFCURVE",
"104 85 CURVE",
"224 140 LINE",
"213 157 OFFCURVE",
"210 172 OFFCURVE",
"210 186 CURVE SMOOTH",
"210 227 OFFCURVE",
"230 252 OFFCURVE",
"264 252 CURVE SMOOTH",
"299 252 OFFCURVE",
"317 224 OFFCURVE",
"317 178 CURVE SMOOTH",
"317 137 OFFCURVE",
"304 99 OFFCURVE",
"264 99 CURVE SMOOTH",
"245 99 LINE",
"245 -34 LINE",
"271 -34 LINE SMOOTH",
"309 -34 OFFCURVE",
"330 -63 OFFCURVE",
"330 -93 CURVE SMOOTH",
"330 -163 LINE SMOOTH",
"330 -214 OFFCURVE",
"301 -242 OFFCURVE",
"259 -242 CURVE SMOOTH",
"216 -242 OFFCURVE",
"190 -211 OFFCURVE",
"190 -164 CURVE SMOOTH",
"190 -142 OFFCURVE",
"197 -112 OFFCURVE",
"213 -93 CURVE",
"100 -19 LINE",
"57 -54 OFFCURVE",
"25 -109 OFFCURVE",
"25 -172 CURVE SMOOTH"
);
}
);
width = 516;
},
{
associatedMasterId = "4BC39443-182D-41DE-81B9-A713C9E8B1F3";
background = {
paths = (
{
closed = 1;
nodes = (
"65 -299 OFFCURVE",
"140 -372 OFFCURVE",
"263 -372 CURVE SMOOTH",
"383 -372 OFFCURVE",
"451 -287 OFFCURVE",
"451 -184 CURVE SMOOTH",
"451 -91 LINE SMOOTH",
"451 -21 OFFCURVE",
"413 25 OFFCURVE",
"356 40 CURVE",
"356 42 LINE",
"406 66 OFFCURVE",
"441 120 OFFCURVE",
"441 189 CURVE SMOOTH",
"441 271 OFFCURVE",
"380 362 OFFCURVE",
"275 362 CURVE SMOOTH",
"170 362 OFFCURVE",
"106 289 OFFCURVE",
"106 207 CURVE SMOOTH",
"106 158 OFFCURVE",
"125 118 OFFCURVE",
"149 89 CURVE",
"193 117 LINE",
"177 142 OFFCURVE",
"166 171 OFFCURVE",
"166 207 CURVE SMOOTH",
"166 277 OFFCURVE",
"209 316 OFFCURVE",
"275 316 CURVE SMOOTH",
"341 316 OFFCURVE",
"381 267 OFFCURVE",
"381 189 CURVE SMOOTH",
"381 120 OFFCURVE",
"347 58 OFFCURVE",
"292 58 CURVE SMOOTH",
"281 58 LINE",
"281 12 LINE",
"304 12 LINE SMOOTH",
"358 12 OFFCURVE",
"395 -34 OFFCURVE",
"395 -92 CURVE SMOOTH",
"395 -178 LINE SMOOTH",
"395 -273 OFFCURVE",
"339 -326 OFFCURVE",
"263 -326 CURVE SMOOTH",
"184 -326 OFFCURVE",
"123 -282 OFFCURVE",
"123 -192 CURVE SMOOTH",
"123 -150 OFFCURVE",
"140 -119 OFFCURVE",
"161 -93 CURVE",
"126 -63 LINE",
"96 -90 OFFCURVE",
"65 -136 OFFCURVE",
"65 -203 CURVE SMOOTH"
);
}
);
};
layerId = "78BFD2B8-739E-45C6-B14C-5DAEC386F469";
name = "ძველი v18";
paths = (
{
closed = 1;
nodes = (
"30 -286 OFFCURVE",
"138 -375 OFFCURVE",
"266 -375 CURVE SMOOTH",
"393 -375 OFFCURVE",
"499 -289 OFFCURVE",
"499 -169 CURVE SMOOTH",
"499 -72 LINE SMOOTH",
"499 11 OFFCURVE",
"440 42 OFFCURVE",
"407 53 CURVE",
"407 55 LINE",
"440 72 OFFCURVE",
"495 114 OFFCURVE",
"495 197 CURVE SMOOTH",
"495 303 OFFCURVE",
"397 385 OFFCURVE",
"275 385 CURVE SMOOTH",
"160 385 OFFCURVE",
"59 307 OFFCURVE",
"59 198 CURVE SMOOTH",
"59 162 OFFCURVE",
"72 122 OFFCURVE",
"102 93 CURVE",
"227 140 LINE",
"213 167 OFFCURVE",
"213 182 OFFCURVE",
"213 196 CURVE SMOOTH",
"213 224 OFFCURVE",
"237 252 OFFCURVE",
"272 252 CURVE SMOOTH",
"307 252 OFFCURVE",
"330 224 OFFCURVE",
"330 186 CURVE SMOOTH",
"330 137 OFFCURVE",
"311 99 OFFCURVE",
"271 99 CURVE SMOOTH",
"239 99 LINE",
"239 -34 LINE",
"284 -34 LINE SMOOTH",
"322 -34 OFFCURVE",
"343 -63 OFFCURVE",
"343 -93 CURVE SMOOTH",
"343 -163 LINE SMOOTH",
"343 -214 OFFCURVE",
"308 -246 OFFCURVE",
"266 -246 CURVE SMOOTH",
"223 -246 OFFCURVE",
"190 -211 OFFCURVE",
"190 -164 CURVE SMOOTH",
"190 -142 OFFCURVE",
"199 -112 OFFCURVE",
"215 -93 CURVE",
"107 -19 LINE",
"63 -56 OFFCURVE",
"30 -103 OFFCURVE",
"30 -169 CURVE SMOOTH"
);
}
);
width = 529;
}
);
unicode = 10D5;
},
{
color = 4;
glyphname = "zen-georgian";
lastChange = "2016-08-25 14:35:48 +0000";
layers = (
{
background = {
paths = (
{
closed = 1;
nodes = (
"50 445 OFFCURVE",
"94 388 OFFCURVE",
"162 388 CURVE SMOOTH",
"188 388 OFFCURVE",
"213 402 OFFCURVE",
"230 427 CURVE",
"232 427 LINE",
"232 175 LINE",
"232 72 OFFCURVE",
"287 -12 OFFCURVE",
"393 -12 CURVE SMOOTH",
"499 -12 OFFCURVE",
"556 72 OFFCURVE",
"556 175 CURVE SMOOTH",
"556 278 OFFCURVE",
"494 362 OFFCURVE",
"414 362 CURVE SMOOTH",
"400 362 OFFCURVE",
"379 358 OFFCURVE",
"367 352 CURVE",
"366 354 LINE",
"388 395 OFFCURVE",
"438 452 OFFCURVE",
"474 486 CURVE",
"434 518 LINE",
"381 461 OFFCURVE",
"335 392 OFFCURVE",
"290 303 CURVE",
"288 303 LINE",
"288 595 LINE",
"288 665 OFFCURVE",
"244 722 OFFCURVE",
"168 722 CURVE SMOOTH",
"96 722 OFFCURVE",
"50 665 OFFCURVE",
"50 555 CURVE SMOOTH"
);
},
{
closed = 1;
nodes = (
"106 635 OFFCURVE",
"127 676 OFFCURVE",
"169 676 CURVE SMOOTH",
"211 676 OFFCURVE",
"232 635 OFFCURVE",
"232 556 CURVE SMOOTH",
"232 476 OFFCURVE",
"211 434 OFFCURVE",
"169 434 CURVE SMOOTH",
"127 434 OFFCURVE",
"106 476 OFFCURVE",
"106 556 CURVE SMOOTH"
);
},
{
closed = 1;
nodes = (
"288 265 OFFCURVE",
"326 316 OFFCURVE",
"392 316 CURVE SMOOTH",
"459 316 OFFCURVE",
"496 265 OFFCURVE",
"496 174 CURVE SMOOTH",
"496 88 OFFCURVE",
"459 34 OFFCURVE",
"392 34 CURVE SMOOTH",
"326 34 OFFCURVE",
"288 88 OFFCURVE",
"288 174 CURVE SMOOTH"
);
}
);
};
backgroundImage = {
crop = "{{0, 0}, {441.83999999999997, 191}}";
imagePath = venuri_symb/07_zen.jpg;
locked = "1";
transform = "{7, 0, 0, 7, 43, -465}";
};
layerId = "9F5B1694-2A59-45B7-91CA-438A6316E2AD";
paths = (
{
closed = 1;
nodes = (
"499 -12 OFFCURVE",
"556 72 OFFCURVE",
"556 175 CURVE SMOOTH",
"556 278 OFFCURVE",
"494 362 OFFCURVE",
"414 362 CURVE SMOOTH",
"400 362 OFFCURVE",
"379 358 OFFCURVE",
"367 352 CURVE",
"366 354 LINE",
"388 395 OFFCURVE",
"438 452 OFFCURVE",
"474 486 CURVE",
"434 518 LINE",
"381 461 OFFCURVE",
"335 392 OFFCURVE",
"290 303 CURVE",
"288 303 LINE",
"288 556 LINE",
"288 665 OFFCURVE",
"235 722 OFFCURVE",
"159 722 CURVE SMOOTH",
"82 722 OFFCURVE",
"30 665 OFFCURVE",
"30 555 CURVE SMOOTH",
"30 445 OFFCURVE",
"80 388 OFFCURVE",
"152 388 CURVE SMOOTH",
"178 388 OFFCURVE",
"213 402 OFFCURVE",
"230 427 CURVE",
"232 427 LINE",
"232 175 LINE",
"232 72 OFFCURVE",
"287 -12 OFFCURVE",
"393 -12 CURVE SMOOTH"
);
},
{
closed = 1;
nodes = (
"326 34 OFFCURVE",
"288 88 OFFCURVE",
"288 174 CURVE SMOOTH",
"288 265 OFFCURVE",
"326 316 OFFCURVE",
"392 316 CURVE SMOOTH",
"459 316 OFFCURVE",
"496 265 OFFCURVE",
"496 174 CURVE SMOOTH",
"496 88 OFFCURVE",
"459 34 OFFCURVE",
"392 34 CURVE SMOOTH"
);
},
{
closed = 1;
nodes = (
"107 434 OFFCURVE",
"86 476 OFFCURVE",
"86 556 CURVE SMOOTH",
"86 635 OFFCURVE",
"111 676 OFFCURVE",
"159 676 CURVE SMOOTH",
"207 676 OFFCURVE",
"232 635 OFFCURVE",
"232 556 CURVE SMOOTH",
"232 476 OFFCURVE",
"211 434 OFFCURVE",
"159 434 CURVE SMOOTH"
);
}
);
width = 606;
},
{
associatedMasterId = "9F5B1694-2A59-45B7-91CA-438A6316E2AD";
background = {
paths = (
{
closed = 1;
nodes = (
"40 445 OFFCURVE",
"84 388 OFFCURVE",
"152 388 CURVE SMOOTH",
"178 388 OFFCURVE",
"203 402 OFFCURVE",
"220 427 CURVE",
"222 427 LINE",
"222 175 LINE",
"222 72 OFFCURVE",
"277 -12 OFFCURVE",
"383 -12 CURVE SMOOTH",
"489 -12 OFFCURVE",
"546 72 OFFCURVE",
"546 175 CURVE SMOOTH",
"546 278 OFFCURVE",
"484 362 OFFCURVE",
"404 362 CURVE SMOOTH",
"390 362 OFFCURVE",
"369 358 OFFCURVE",
"357 352 CURVE",
"356 354 LINE",
"378 395 OFFCURVE",
"428 452 OFFCURVE",
"464 486 CURVE",
"424 518 LINE",
"371 461 OFFCURVE",
"325 392 OFFCURVE",
"280 303 CURVE",
"278 303 LINE",
"278 595 LINE",
"278 665 OFFCURVE",
"234 722 OFFCURVE",
"158 722 CURVE SMOOTH",
"86 722 OFFCURVE",
"40 665 OFFCURVE",
"40 555 CURVE SMOOTH"
);
},
{
closed = 1;
nodes = (
"96 635 OFFCURVE",
"117 676 OFFCURVE",
"159 676 CURVE SMOOTH",
"201 676 OFFCURVE",
"222 635 OFFCURVE",
"222 556 CURVE SMOOTH",
"222 476 OFFCURVE",
"201 434 OFFCURVE",
"159 434 CURVE SMOOTH",
"117 434 OFFCURVE",
"96 476 OFFCURVE",
"96 556 CURVE SMOOTH"
);
},
{
closed = 1;
nodes = (
"278 265 OFFCURVE",
"316 316 OFFCURVE",
"382 316 CURVE SMOOTH",
"449 316 OFFCURVE",
"486 265 OFFCURVE",
"486 174 CURVE SMOOTH",
"486 88 OFFCURVE",
"449 34 OFFCURVE",
"382 34 CURVE SMOOTH",
"316 34 OFFCURVE",
"278 88 OFFCURVE",
"278 174 CURVE SMOOTH"
);
}
);
};
backgroundImage = {
crop = "{{0, 0}, {441.83999999999997, 191}}";
imagePath = venuri_symb/07_zen.jpg;
locked = "1";
transform = "{7, 0, 0, 7, 33, -465}";
};
layerId = "08EB9A40-8BAB-4BE1-8075-C6A6BD394A17";
name = "Regular May 10 16, 13:09";
paths = (
{
closed = 1;
nodes = (
"40 445 OFFCURVE",
"84 388 OFFCURVE",
"152 388 CURVE SMOOTH",
"178 388 OFFCURVE",
"203 402 OFFCURVE",
"220 427 CURVE",
"222 427 LINE",
"222 175 LINE",
"222 72 OFFCURVE",
"277 -12 OFFCURVE",
"383 -12 CURVE SMOOTH",
"489 -12 OFFCURVE",
"546 72 OFFCURVE",
"546 175 CURVE SMOOTH",
"546 278 OFFCURVE",
"484 362 OFFCURVE",
"404 362 CURVE SMOOTH",
"390 362 OFFCURVE",
"369 358 OFFCURVE",
"357 352 CURVE",
"356 354 LINE",
"378 395 OFFCURVE",
"428 452 OFFCURVE",
"464 486 CURVE",
"424 518 LINE",
"371 461 OFFCURVE",
"325 392 OFFCURVE",
"280 303 CURVE",
"278 303 LINE",
"278 595 LINE",
"278 665 OFFCURVE",
"234 722 OFFCURVE",
"158 722 CURVE SMOOTH",
"86 722 OFFCURVE",
"40 665 OFFCURVE",
"40 555 CURVE SMOOTH"
);
},
{
closed = 1;
nodes = (
"96 635 OFFCURVE",
"117 676 OFFCURVE",
"159 676 CURVE SMOOTH",
"201 676 OFFCURVE",
"222 635 OFFCURVE",
"222 556 CURVE SMOOTH",
"222 476 OFFCURVE",
"201 434 OFFCURVE",
"159 434 CURVE SMOOTH",
"117 434 OFFCURVE",
"96 476 OFFCURVE",
"96 556 CURVE SMOOTH"
);
},
{
closed = 1;
nodes = (
"278 265 OFFCURVE",
"316 316 OFFCURVE",
"382 316 CURVE SMOOTH",
"449 316 OFFCURVE",
"486 265 OFFCURVE",
"486 174 CURVE SMOOTH",
"486 88 OFFCURVE",
"449 34 OFFCURVE",
"382 34 CURVE SMOOTH",
"316 34 OFFCURVE",
"278 88 OFFCURVE",
"278 174 CURVE SMOOTH"
);
}
);
width = 586;
},
{
background = {
paths = (
{
closed = 1;
nodes = (
"562 -12 OFFCURVE",
"619 72 OFFCURVE",
"619 175 CURVE SMOOTH",
"619 278 OFFCURVE",
"557 362 OFFCURVE",
"477 362 CURVE SMOOTH",
"463 362 OFFCURVE",
"442 358 OFFCURVE",
"430 352 CURVE",
"429 354 LINE",
"451 395 OFFCURVE",
"501 452 OFFCURVE",
"537 486 CURVE",
"497 518 LINE",
"444 461 OFFCURVE",
"398 392 OFFCURVE",
"353 303 CURVE",
"351 303 LINE",
"351 556 LINE",
"351 665 OFFCURVE",
"298 722 OFFCURVE",
"222 722 CURVE SMOOTH",
"145 722 OFFCURVE",
"93 665 OFFCURVE",
"93 555 CURVE SMOOTH",
"93 445 OFFCURVE",
"143 388 OFFCURVE",
"215 388 CURVE SMOOTH",
"241 388 OFFCURVE",
"276 402 OFFCURVE",
"293 427 CURVE",
"295 427 LINE",
"295 175 LINE",
"295 72 OFFCURVE",
"350 -12 OFFCURVE",
"456 -12 CURVE SMOOTH"
);
},
{
closed = 1;
nodes = (
"389 34 OFFCURVE",
"351 88 OFFCURVE",
"351 174 CURVE SMOOTH",
"351 265 OFFCURVE",
"389 316 OFFCURVE",
"455 316 CURVE SMOOTH",
"522 316 OFFCURVE",
"559 265 OFFCURVE",
"559 174 CURVE SMOOTH",
"559 88 OFFCURVE",
"522 34 OFFCURVE",
"455 34 CURVE SMOOTH"
);
},
{
closed = 1;
nodes = (
"170 434 OFFCURVE",
"149 476 OFFCURVE",
"149 556 CURVE SMOOTH",
"149 635 OFFCURVE",
"174 676 OFFCURVE",
"222 676 CURVE SMOOTH",
"270 676 OFFCURVE",
"295 635 OFFCURVE",
"295 556 CURVE SMOOTH",
"295 476 OFFCURVE",
"274 434 OFFCURVE",
"222 434 CURVE SMOOTH"
);
}
);
};
layerId = "4BC39443-182D-41DE-81B9-A713C9E8B1F3";
paths = (
{
closed = 1;
nodes = (
"575 -15 OFFCURVE",
"668 63 OFFCURVE",
"668 187 CURVE SMOOTH",
"668 314 OFFCURVE",
"569 362 OFFCURVE",
"548 362 CURVE SMOOTH",
"547 362 OFFCURVE",
"547 362 OFFCURVE",
"546 362 CURVE",
"545 364 LINE",
"563 387 OFFCURVE",
"601 428 OFFCURVE",
"632 456 CURVE",
"533 534 LINE",
"459 458 OFFCURVE",
"433 401 OFFCURVE",
"410 354 CURVE",
"407 354 LINE",
"407 525 LINE SMOOTH",
"407 646 OFFCURVE",
"336 725 OFFCURVE",
"213 725 CURVE SMOOTH",
"98 725 OFFCURVE",
"18 656 OFFCURVE",
"18 534 CURVE SMOOTH",
"18 424 OFFCURVE",
"83 355 OFFCURVE",
"166 355 CURVE SMOOTH",
"201 355 OFFCURVE",
"232 367 OFFCURVE",
"248 386 CURVE",
"251 386 LINE",
"251 185 LINE SMOOTH",
"251 64 OFFCURVE",
"337 -15 OFFCURVE",
"456 -15 CURVE SMOOTH"
);
},
{
closed = 1;
nodes = (
"424 118 OFFCURVE",
"405 146 OFFCURVE",
"405 186 CURVE SMOOTH",
"405 225 OFFCURVE",
"423 253 OFFCURVE",
"455 253 CURVE SMOOTH",
"486 253 OFFCURVE",
"503 225 OFFCURVE",
"503 186 CURVE SMOOTH",
"503 147 OFFCURVE",
"486 118 OFFCURVE",
"455 118 CURVE SMOOTH"
);
},
{
closed = 1;
nodes = (
"195 481 OFFCURVE",
"183 501 OFFCURVE",
"183 541 CURVE SMOOTH",
"183 574 OFFCURVE",
"191 596 OFFCURVE",
"218 596 CURVE SMOOTH",
"244 596 OFFCURVE",
"253 574 OFFCURVE",
"253 538 CURVE SMOOTH",
"253 504 OFFCURVE",
"245 481 OFFCURVE",
"219 481 CURVE SMOOTH"
);
}
);
width = 698;
},
{
associatedMasterId = "4BC39443-182D-41DE-81B9-A713C9E8B1F3";
layerId = "D2FDC166-F292-4163-AB4C-5522EFDD2463";
name = "Bold Jul 9 16, 20:56";
paths = (
{
closed = 1;
nodes = (
"506 415 OFFCURVE",
"569 340 OFFCURVE",
"668 340 CURVE SMOOTH",
"711 340 OFFCURVE",
"760 363 OFFCURVE",
"781 394 CURVE",
"737 375 LINE",
"686 375 LINE",
"686 195 LINE SMOOTH",
"686 70 OFFCURVE",
"765 -15 OFFCURVE",
"882 -15 CURVE SMOOTH",
"999 -15 OFFCURVE",
"1080 71 OFFCURVE",
"1080 195 CURVE SMOOTH",
"1080 313 OFFCURVE",
"1002 406 OFFCURVE",
"900 406 CURVE SMOOTH",
"880 406 OFFCURVE",
"849 399 OFFCURVE",
"835 392 CURVE",
"906 372 LINE",
"905 374 LINE",
"905 333 LINE",
"924 368 OFFCURVE",
"963 413 OFFCURVE",
"990 439 CURVE",
"987 506 LINE",
"951 534 LINE",
"879 530 LINE",
"828 474 OFFCURVE",
"784 410 OFFCURVE",
"743 329 CURVE",
"790 353 LINE",
"842 353 LINE",
"842 533 LINE SMOOTH",
"842 650 OFFCURVE",
"777 725 OFFCURVE",
"674 725 CURVE SMOOTH",
"571 725 OFFCURVE",
"506 651 OFFCURVE",
"506 532 CURVE SMOOTH"
);
},
{
closed = 1;
nodes = (
"663 575 OFFCURVE",
"672 595 OFFCURVE",
"674 595 CURVE SMOOTH",
"676 595 OFFCURVE",
"686 575 OFFCURVE",
"686 533 CURVE SMOOTH",
"686 484 OFFCURVE",
"678 469 OFFCURVE",
"674 469 CURVE SMOOTH",
"671 469 OFFCURVE",
"663 484 OFFCURVE",
"663 533 CURVE SMOOTH"
);
},
{
closed = 1;
nodes = (
"842 251 OFFCURVE",
"857 276 OFFCURVE",
"881 276 CURVE SMOOTH",
"905 276 OFFCURVE",
"920 251 OFFCURVE",
"920 194 CURVE SMOOTH",
"920 141 OFFCURVE",
"904 115 OFFCURVE",
"881 115 CURVE SMOOTH",
"858 115 OFFCURVE",
"842 141 OFFCURVE",
"842 194 CURVE SMOOTH"
);
},
{
closed = 1;
nodes = (
"30 364 OFFCURVE",
"125 285 OFFCURVE",
"244 285 CURVE SMOOTH",
"363 285 OFFCURVE",
"458 364 OFFCURVE",
"458 485 CURVE SMOOTH",
"458 606 OFFCURVE",
"363 685 OFFCURVE",
"244 685 CURVE SMOOTH",
"125 685 OFFCURVE",
"30 606 OFFCURVE",
"30 485 CURVE SMOOTH"
);
},
{
closed = 1;
nodes = (
"195 523 OFFCURVE",
"212 552 OFFCURVE",
"244 552 CURVE SMOOTH",
"276 552 OFFCURVE",
"293 523 OFFCURVE",
"293 485 CURVE SMOOTH",
"293 447 OFFCURVE",
"276 418 OFFCURVE",
"244 418 CURVE SMOOTH",
"212 418 OFFCURVE",
"195 447 OFFCURVE",
"195 485 CURVE SMOOTH"
);
}
);
width = 1417;
},
{
associatedMasterId = "4BC39443-182D-41DE-81B9-A713C9E8B1F3";
layerId = "49CAEDEC-0DB5-497F-B682-00F646D8AC21";
name = "Bold Jul 9 16, 21:04";
paths = (
{
closed = 1;
nodes = (
"824 -15 OFFCURVE",
"917 64 OFFCURVE",
"917 185 CURVE SMOOTH",
"917 310 OFFCURVE",
"828 370 OFFCURVE",
"789 370 CURVE SMOOTH",
"788 370 OFFCURVE",
"788 370 OFFCURVE",
"787 370 CURVE",
"786 372 LINE",
"795 384 OFFCURVE",
"885 473 OFFCURVE",
"891 478 CURVE",
"807 557 LINE",
"733 481 OFFCURVE",
"682 401 OFFCURVE",
"659 354 CURVE",
"656 354 LINE",
"656 510 LINE SMOOTH",
"656 631 OFFCURVE",
"570 710 OFFCURVE",
"451 710 CURVE SMOOTH",
"332 710 OFFCURVE",
"239 631 OFFCURVE",
"239 510 CURVE SMOOTH",
"239 390 OFFCURVE",
"322 310 OFFCURVE",
"421 310 CURVE SMOOTH",
"449 310 OFFCURVE",
"481 322 OFFCURVE",
"497 341 CURVE",
"500 341 LINE",
"500 185 LINE SMOOTH",
"500 64 OFFCURVE",
"586 -15 OFFCURVE",
"705 -15 CURVE SMOOTH"
);
},
{
closed = 1;
nodes = (
"673 118 OFFCURVE",
"654 147 OFFCURVE",
"654 185 CURVE SMOOTH",
"654 225 OFFCURVE",
"672 253 OFFCURVE",
"703 253 CURVE SMOOTH",
"735 253 OFFCURVE",
"752 226 OFFCURVE",
"752 185 CURVE SMOOTH",
"752 147 OFFCURVE",
"735 118 OFFCURVE",
"703 118 CURVE SMOOTH"
);
},
{
closed = 1;
nodes = (
"421 442 OFFCURVE",
"404 469 OFFCURVE",
"404 510 CURVE SMOOTH",
"404 548 OFFCURVE",
"421 577 OFFCURVE",
"453 577 CURVE SMOOTH",
"483 577 OFFCURVE",
"502 548 OFFCURVE",
"502 510 CURVE SMOOTH",
"502 470 OFFCURVE",
"484 442 OFFCURVE",
"453 442 CURVE SMOOTH"
);
}
);
width = 1417;
},
{
associatedMasterId = "4BC39443-182D-41DE-81B9-A713C9E8B1F3";
background = {
paths = (
{
closed = 1;
nodes = (
"575 -15 OFFCURVE",
"668 64 OFFCURVE",
"668 185 CURVE SMOOTH",
"668 310 OFFCURVE",
"579 370 OFFCURVE",
"540 370 CURVE SMOOTH",
"539 370 OFFCURVE",
"539 370 OFFCURVE",
"538 370 CURVE",
"537 372 LINE",
"546 384 OFFCURVE",
"636 473 OFFCURVE",
"642 478 CURVE",
"558 557 LINE",
"484 481 OFFCURVE",
"433 401 OFFCURVE",
"410 354 CURVE",
"407 354 LINE",
"407 510 LINE SMOOTH",
"407 631 OFFCURVE",
"341 710 OFFCURVE",
"222 710 CURVE SMOOTH",
"103 710 OFFCURVE",
"30 631 OFFCURVE",
"30 510 CURVE SMOOTH",
"30 390 OFFCURVE",
"93 310 OFFCURVE",
"192 310 CURVE SMOOTH",
"220 310 OFFCURVE",
"232 322 OFFCURVE",
"248 341 CURVE",
"251 341 LINE",
"251 185 LINE SMOOTH",
"251 64 OFFCURVE",
"337 -15 OFFCURVE",
"456 -15 CURVE SMOOTH"
);
}
);
};
layerId = "CC43BCDC-62A4-4347-9F52-CAFBD65D769E";
name = "Bold Jul 23 16, 14:58";
paths = (
{
closed = 1;
nodes = (
"575 -15 OFFCURVE",
"668 64 OFFCURVE",
"668 185 CURVE SMOOTH",
"668 310 OFFCURVE",
"579 370 OFFCURVE",
"540 370 CURVE SMOOTH",
"539 370 OFFCURVE",
"539 370 OFFCURVE",
"538 370 CURVE",
"537 372 LINE",
"546 384 OFFCURVE",
"636 473 OFFCURVE",
"642 478 CURVE",
"558 557 LINE",
"484 481 OFFCURVE",
"433 401 OFFCURVE",
"410 354 CURVE",
"407 354 LINE",
"407 510 LINE SMOOTH",
"407 631 OFFCURVE",
"341 710 OFFCURVE",
"222 710 CURVE SMOOTH",
"103 710 OFFCURVE",
"30 641 OFFCURVE",
"30 520 CURVE SMOOTH",
"30 409 OFFCURVE",
"83 330 OFFCURVE",
"173 330 CURVE SMOOTH",
"201 330 OFFCURVE",
"232 342 OFFCURVE",
"248 361 CURVE",
"251 361 LINE",
"251 185 LINE SMOOTH",
"251 64 OFFCURVE",
"337 -15 OFFCURVE",
"456 -15 CURVE SMOOTH"
);
},
{
closed = 1;
nodes = (
"424 118 OFFCURVE",
"405 147 OFFCURVE",
"405 185 CURVE SMOOTH",
"405 225 OFFCURVE",
"423 253 OFFCURVE",
"454 253 CURVE SMOOTH",
"486 253 OFFCURVE",
"503 226 OFFCURVE",
"503 185 CURVE SMOOTH",
"503 147 OFFCURVE",
"486 118 OFFCURVE",
"454 118 CURVE SMOOTH"
);
},
{
closed = 1;
nodes = (
"197 462 OFFCURVE",
"195 484 OFFCURVE",
"195 520 CURVE SMOOTH",
"195 554 OFFCURVE",
"196 577 OFFCURVE",
"224 577 CURVE SMOOTH",
"250 577 OFFCURVE",
"253 554 OFFCURVE",
"253 520 CURVE SMOOTH",
"253 484 OFFCURVE",
"251 462 OFFCURVE",
"224 462 CURVE SMOOTH"
);
}
);
width = 698;
}
);
unicode = 10D6;
},
{
color = 4;
glyphname = "tan-georgian";
lastChange = "2016-08-18 07:19:44 +0000";
layers = (
{
background = {
paths = (
{
closed = 1;
nodes = (
"50 72 OFFCURVE",
"117 -12 OFFCURVE",
"224 -12 CURVE SMOOTH",
"331 -12 OFFCURVE",
"398 72 OFFCURVE",
"398 175 CURVE SMOOTH",
"398 205 OFFCURVE",
"393 233 OFFCURVE",
"383 257 CURVE",
"406 287 OFFCURVE",
"444 316 OFFCURVE",
"496 316 CURVE SMOOTH",
"563 316 OFFCURVE",
"610 265 OFFCURVE",
"610 184 CURVE SMOOTH",
"610 98 OFFCURVE",
"577 54 OFFCURVE",
"530 18 CURVE",
"557 -12 LINE",
"623 29 OFFCURVE",
"670 83 OFFCURVE",
"670 193 CURVE SMOOTH",
"670 277 OFFCURVE",
"603 362 OFFCURVE",
"503 362 CURVE SMOOTH",
"437 362 OFFCURVE",
"392 332 OFFCURVE",
"362 297 CURVE",
"360 297 LINE",
"330 337 OFFCURVE",
"283 362 OFFCURVE",
"224 362 CURVE SMOOTH",
"119 362 OFFCURVE",
"50 284 OFFCURVE",
"50 175 CURVE SMOOTH"
);
}
);
};
backgroundImage = {
crop = "{{0, 0}, {303.59999999999997, 164.63999999999999}}";
imagePath = venuri_symb/08_tan.jpg;
locked = "1";
transform = "{7, 0, 0, 7, -225, -410}";
};
layerId = "9F5B1694-2A59-45B7-91CA-438A6316E2AD";
paths = (
{
closed = 1;
nodes = (
"331 -12 OFFCURVE",
"398 72 OFFCURVE",
"398 175 CURVE SMOOTH",
"398 205 OFFCURVE",
"393 233 OFFCURVE",
"383 257 CURVE",
"406 287 OFFCURVE",
"439 316 OFFCURVE",
"491 316 CURVE SMOOTH",
"558 316 OFFCURVE",
"600 265 OFFCURVE",
"600 184 CURVE SMOOTH",
"600 106 OFFCURVE",
"565 48 OFFCURVE",
"530 18 CURVE",
"557 -12 LINE",
"604 21 OFFCURVE",
"660 83 OFFCURVE",
"660 193 CURVE SMOOTH",
"660 277 OFFCURVE",
"598 362 OFFCURVE",
"498 362 CURVE SMOOTH",
"432 362 OFFCURVE",
"392 332 OFFCURVE",
"362 297 CURVE",
"360 297 LINE",
"330 337 OFFCURVE",
"283 362 OFFCURVE",
"224 362 CURVE SMOOTH",
"119 362 OFFCURVE",
"50 284 OFFCURVE",
"50 175 CURVE SMOOTH",
"50 72 OFFCURVE",
"117 -12 OFFCURVE",
"224 -12 CURVE SMOOTH"
);
},
{
closed = 1;
nodes = (
"157 34 OFFCURVE",
"110 88 OFFCURVE",
"110 174 CURVE SMOOTH",
"110 265 OFFCURVE",
"157 316 OFFCURVE",
"224 316 CURVE SMOOTH",
"291 316 OFFCURVE",
"338 265 OFFCURVE",
"338 174 CURVE SMOOTH",
"338 88 OFFCURVE",
"291 34 OFFCURVE",
"224 34 CURVE SMOOTH"
);
}
);
width = 720;
},
{
associatedMasterId = "9F5B1694-2A59-45B7-91CA-438A6316E2AD";
backgroundImage = {
crop = "{{0, 0}, {303.59999999999997, 164.63999999999999}}";
imagePath = venuri_symb/08_tan.jpg;
locked = "1";
transform = "{7, 0, 0, 7, -224, -411}";
};
layerId = "82D81ABF-DA32-463D-BD46-C71C27F5ECB3";
name = "Regular Apr 13 16, 14:28";
paths = (
{
closed = 1;
nodes = (
"50 72 OFFCURVE",
"117 -12 OFFCURVE",
"224 -12 CURVE SMOOTH",
"331 -12 OFFCURVE",
"398 72 OFFCURVE",
"398 175 CURVE SMOOTH",
"398 205 OFFCURVE",
"393 233 OFFCURVE",
"383 257 CURVE",
"406 287 OFFCURVE",
"444 316 OFFCURVE",
"496 316 CURVE SMOOTH",
"563 316 OFFCURVE",
"610 265 OFFCURVE",
"610 184 CURVE SMOOTH",
"610 98 OFFCURVE",
"577 54 OFFCURVE",
"530 18 CURVE",
"557 -12 LINE",
"623 29 OFFCURVE",
"670 83 OFFCURVE",
"670 193 CURVE SMOOTH",
"670 277 OFFCURVE",
"603 362 OFFCURVE",
"503 362 CURVE SMOOTH",
"437 362 OFFCURVE",
"392 332 OFFCURVE",
"362 297 CURVE",
"360 297 LINE",
"330 337 OFFCURVE",
"283 362 OFFCURVE",
"224 362 CURVE SMOOTH",
"119 362 OFFCURVE",
"50 284 OFFCURVE",
"50 175 CURVE SMOOTH"
);
},
{
closed = 1;
nodes = (
"110 265 OFFCURVE",
"157 316 OFFCURVE",
"224 316 CURVE SMOOTH",
"291 316 OFFCURVE",
"338 265 OFFCURVE",
"338 174 CURVE SMOOTH",
"338 88 OFFCURVE",
"291 34 OFFCURVE",
"224 34 CURVE SMOOTH",
"157 34 OFFCURVE",
"110 88 OFFCURVE",
"110 174 CURVE SMOOTH"
);
}
);
width = 720;
},
{
background = {
paths = (
{
closed = 1;
nodes = (
"335 -12 OFFCURVE",
"402 72 OFFCURVE",
"402 175 CURVE SMOOTH",
"402 205 OFFCURVE",
"397 233 OFFCURVE",
"387 257 CURVE",
"410 287 OFFCURVE",
"448 316 OFFCURVE",
"500 316 CURVE SMOOTH",
"567 316 OFFCURVE",
"614 265 OFFCURVE",
"614 184 CURVE SMOOTH",
"614 106 OFFCURVE",
"579 48 OFFCURVE",
"544 18 CURVE",
"571 -12 LINE",
"618 21 OFFCURVE",
"674 83 OFFCURVE",
"674 193 CURVE SMOOTH",
"674 277 OFFCURVE",
"607 362 OFFCURVE",
"507 362 CURVE SMOOTH",
"441 362 OFFCURVE",
"396 332 OFFCURVE",
"366 297 CURVE",
"364 297 LINE",
"334 337 OFFCURVE",
"287 362 OFFCURVE",
"228 362 CURVE SMOOTH",
"123 362 OFFCURVE",
"54 284 OFFCURVE",
"54 175 CURVE SMOOTH",
"54 72 OFFCURVE",
"121 -12 OFFCURVE",
"228 -12 CURVE SMOOTH"
);
},
{
closed = 1;
nodes = (
"161 34 OFFCURVE",
"114 88 OFFCURVE",
"114 174 CURVE SMOOTH",
"114 265 OFFCURVE",
"161 316 OFFCURVE",
"228 316 CURVE SMOOTH",
"295 316 OFFCURVE",
"342 265 OFFCURVE",
"342 174 CURVE SMOOTH",
"342 88 OFFCURVE",
"295 34 OFFCURVE",
"228 34 CURVE SMOOTH"
);
}
);
};
guideLines = (
{
position = "{555, 256}";
}
);
layerId = "4BC39443-182D-41DE-81B9-A713C9E8B1F3";
paths = (
{
closed = 1;
nodes = (
"360 -15 OFFCURVE",
"447 64 OFFCURVE",
"447 185 CURVE SMOOTH",
"447 200 OFFCURVE",
"443 221 OFFCURVE",
"437 234 CURVE",
"451 250 OFFCURVE",
"463 256 OFFCURVE",
"482 256 CURVE SMOOTH",
"510 256 OFFCURVE",
"531 231 OFFCURVE",
"531 170 CURVE SMOOTH",
"531 130 OFFCURVE",
"520 96 OFFCURVE",
"494 67 CURVE",
"591 -15 LINE",
"657 30 OFFCURVE",
"692 109 OFFCURVE",
"692 185 CURVE SMOOTH",
"692 296 OFFCURVE",
"623 385 OFFCURVE",
"508 385 CURVE SMOOTH",
"452 385 OFFCURVE",
"411 365 OFFCURVE",
"380 325 CURVE",
"378 325 LINE",
"346 365 OFFCURVE",
"289 385 OFFCURVE",
"241 385 CURVE SMOOTH",
"122 385 OFFCURVE",
"30 306 OFFCURVE",
"30 185 CURVE SMOOTH",
"30 64 OFFCURVE",
"122 -15 OFFCURVE",
"241 -15 CURVE SMOOTH"
);
},
{
closed = 1;
nodes = (
"205 114 OFFCURVE",
"190 145 OFFCURVE",
"190 185 CURVE SMOOTH",
"190 225 OFFCURVE",
"205 256 OFFCURVE",
"239 256 CURVE SMOOTH",
"273 256 OFFCURVE",
"288 225 OFFCURVE",
"288 185 CURVE SMOOTH",
"288 145 OFFCURVE",
"273 114 OFFCURVE",
"239 114 CURVE SMOOTH"
);
}
);
width = 722;
},
{
associatedMasterId = "4BC39443-182D-41DE-81B9-A713C9E8B1F3";
layerId = "D9F8D75E-D627-4B07-AF6E-6B67E6C4C800";
name = "Bold Jun 17 16, 11:25";
paths = (
{
closed = 1;
nodes = (
"0 64 OFFCURVE",
"95 -15 OFFCURVE",
"214 -15 CURVE SMOOTH",
"333 -15 OFFCURVE",
"428 64 OFFCURVE",
"428 185 CURVE SMOOTH",
"428 306 OFFCURVE",
"333 385 OFFCURVE",
"214 385 CURVE SMOOTH",
"95 385 OFFCURVE",
"0 306 OFFCURVE",
"0 185 CURVE SMOOTH"
);
},
{
closed = 1;
nodes = (
"165 223 OFFCURVE",
"182 252 OFFCURVE",
"214 252 CURVE SMOOTH",
"246 252 OFFCURVE",
"263 223 OFFCURVE",
"263 185 CURVE SMOOTH",
"263 147 OFFCURVE",
"246 118 OFFCURVE",
"214 118 CURVE SMOOTH",
"182 118 OFFCURVE",
"165 147 OFFCURVE",
"165 185 CURVE SMOOTH"
);
},
{
closed = 0;
nodes = (
"411 167 LINE",
"411 216 OFFCURVE",
"428 256 OFFCURVE",
"468 256 CURVE SMOOTH",
"508 256 OFFCURVE",
"525 216 OFFCURVE",
"525 167 CURVE SMOOTH",
"525 127 OFFCURVE",
"513 80 OFFCURVE",
"489 47 CURVE",
"600 -15 LINE",
"657 36 OFFCURVE",
"686 104 OFFCURVE",
"686 170 CURVE SMOOTH",
"686 281 OFFCURVE",
"607 385 OFFCURVE",
"468 385 CURVE SMOOTH",
"329 385 OFFCURVE",
"250 281 OFFCURVE",
"250 170 CURVE"
);
}
);
width = 600;
},
{
associatedMasterId = "4BC39443-182D-41DE-81B9-A713C9E8B1F3";
layerId = "2274E6E5-ADF2-4403-B7BE-39BEABC66991";
name = "Bold Jun 20 16, 19:48";
paths = (
{
closed = 1;
nodes = (
"363 -15 OFFCURVE",
"458 64 OFFCURVE",
"458 185 CURVE SMOOTH",
"458 200 OFFCURVE",
"457 215 OFFCURVE",
"454 228 CURVE",
"463 245 OFFCURVE",
"477 256 OFFCURVE",
"498 256 CURVE SMOOTH",
"538 256 OFFCURVE",
"555 216 OFFCURVE",
"555 167 CURVE SMOOTH",
"555 127 OFFCURVE",
"543 80 OFFCURVE",
"519 47 CURVE",
"630 -15 LINE",
"687 36 OFFCURVE",
"716 104 OFFCURVE",
"716 170 CURVE SMOOTH",
"716 281 OFFCURVE",
"637 385 OFFCURVE",
"498 385 CURVE SMOOTH",
"449 385 OFFCURVE",
"406 370 OFFCURVE",
"373 349 CURVE",
"371 349 LINE",
"336 370 OFFCURVE",
"292 385 OFFCURVE",
"244 385 CURVE SMOOTH",
"125 385 OFFCURVE",
"30 306 OFFCURVE",
"30 185 CURVE SMOOTH",
"30 64 OFFCURVE",
"125 -15 OFFCURVE",
"244 -15 CURVE SMOOTH"
);
},
{
closed = 1;
nodes = (
"212 118 OFFCURVE",
"195 147 OFFCURVE",
"195 185 CURVE SMOOTH",
"195 223 OFFCURVE",
"212 252 OFFCURVE",
"244 252 CURVE SMOOTH",
"276 252 OFFCURVE",
"293 223 OFFCURVE",
"293 185 CURVE SMOOTH",
"293 147 OFFCURVE",
"276 118 OFFCURVE",
"244 118 CURVE SMOOTH"
);
}
);
width = 746;
},
{
associatedMasterId = "9F5B1694-2A59-45B7-91CA-438A6316E2AD";
background = {
paths = (
{
closed = 1;
nodes = (
"50 72 OFFCURVE",
"117 -12 OFFCURVE",
"224 -12 CURVE SMOOTH",
"331 -12 OFFCURVE",
"398 72 OFFCURVE",
"398 175 CURVE SMOOTH",
"398 205 OFFCURVE",
"393 233 OFFCURVE",
"383 257 CURVE",
"406 287 OFFCURVE",
"444 316 OFFCURVE",
"496 316 CURVE SMOOTH",
"563 316 OFFCURVE",
"610 265 OFFCURVE",
"610 184 CURVE SMOOTH",
"610 98 OFFCURVE",
"577 54 OFFCURVE",
"530 18 CURVE",
"557 -12 LINE",
"623 29 OFFCURVE",
"670 83 OFFCURVE",
"670 193 CURVE SMOOTH",
"670 277 OFFCURVE",
"603 362 OFFCURVE",
"503 362 CURVE SMOOTH",
"437 362 OFFCURVE",
"392 332 OFFCURVE",
"362 297 CURVE",
"360 297 LINE",
"330 337 OFFCURVE",
"283 362 OFFCURVE",
"224 362 CURVE SMOOTH",
"119 362 OFFCURVE",
"50 284 OFFCURVE",
"50 175 CURVE SMOOTH"
);
}
);
};
backgroundImage = {
crop = "{{0, 0}, {303.59999999999997, 164.63999999999999}}";
imagePath = venuri_symb/08_tan.jpg;
locked = "1";
transform = "{7, 0, 0, 7, -225, -410}";
};
layerId = "7C6A867C-9855-48B9-9E26-5677CFC62D47";
name = "Regular Aug 18 16, 10:19";
paths = (
{
closed = 1;
nodes = (
"331 -12 OFFCURVE",
"398 72 OFFCURVE",
"398 175 CURVE SMOOTH",
"398 205 OFFCURVE",
"393 233 OFFCURVE",
"383 257 CURVE",
"406 287 OFFCURVE",
"444 316 OFFCURVE",
"496 316 CURVE SMOOTH",
"563 316 OFFCURVE",
"610 265 OFFCURVE",
"610 184 CURVE SMOOTH",
"610 106 OFFCURVE",
"575 48 OFFCURVE",
"540 18 CURVE",
"567 -12 LINE",
"614 21 OFFCURVE",
"670 83 OFFCURVE",
"670 193 CURVE SMOOTH",
"670 277 OFFCURVE",
"603 362 OFFCURVE",
"503 362 CURVE SMOOTH",
"437 362 OFFCURVE",
"392 332 OFFCURVE",
"362 297 CURVE",
"360 297 LINE",
"330 337 OFFCURVE",
"283 362 OFFCURVE",
"224 362 CURVE SMOOTH",
"119 362 OFFCURVE",
"50 284 OFFCURVE",
"50 175 CURVE SMOOTH",
"50 72 OFFCURVE",
"117 -12 OFFCURVE",
"224 -12 CURVE SMOOTH"
);
},
{
closed = 1;
nodes = (
"157 34 OFFCURVE",
"110 88 OFFCURVE",
"110 174 CURVE SMOOTH",
"110 265 OFFCURVE",
"157 316 OFFCURVE",
"224 316 CURVE SMOOTH",
"291 316 OFFCURVE",
"338 265 OFFCURVE",
"338 174 CURVE SMOOTH",
"338 88 OFFCURVE",
"291 34 OFFCURVE",
"224 34 CURVE SMOOTH"
);
}
);
width = 720;
}
);
unicode = 10D7;
},
{
color = 4;
glyphname = "in-georgian";
lastChange = "2016-07-23 16:15:50 +0000";
layers = (
{
backgroundImage = {
crop = "{{0, 0}, {253.91999999999999, 138}}";
imagePath = venuri_symb/09_in.jpg;
locked = "1";
transform = "{7, 0, 0, 7, -878, -396}";
};
layerId = "9F5B1694-2A59-45B7-91CA-438A6316E2AD";
paths = (
{
closed = 1;
nodes = (
"177 19 LINE",
"142 54 OFFCURVE",
"110 90 OFFCURVE",
"110 168 CURVE SMOOTH",
"110 261 OFFCURVE",
"157 316 OFFCURVE",
"227 316 CURVE SMOOTH",
"297 316 OFFCURVE",
"344 261 OFFCURVE",
"344 168 CURVE SMOOTH",
"344 90 OFFCURVE",
"312 54 OFFCURVE",
"277 19 CURVE",
"305 -13 LINE",
"352 17 OFFCURVE",
"404 73 OFFCURVE",
"404 169 CURVE SMOOTH",
"404 274 OFFCURVE",
"336 362 OFFCURVE",
"227 362 CURVE SMOOTH",
"118 362 OFFCURVE",
"50 274 OFFCURVE",
"50 169 CURVE SMOOTH",
"50 73 OFFCURVE",
"102 17 OFFCURVE",
"149 -13 CURVE"
);
}
);
width = 454;
},
{
associatedMasterId = "9F5B1694-2A59-45B7-91CA-438A6316E2AD";
backgroundImage = {
crop = "{{0, 0}, {253.91999999999999, 138}}";
imagePath = venuri_symb/09_in.jpg;
locked = "1";
transform = "{7, 0, 0, 7, -873, -396}";
};
layerId = "EDAACBCE-030F-4430-A7AE-A75E17FA1824";
name = "Regular Apr 13 16, 15:00";
paths = (
{
closed = 1;
nodes = (
"30 90 OFFCURVE",
"66 19 OFFCURVE",
"142 -13 CURVE",
"163 22 LINE",
"118 48 OFFCURVE",
"90 100 OFFCURVE",
"90 174 CURVE SMOOTH",
"90 265 OFFCURVE",
"147 316 OFFCURVE",
"222 316 CURVE SMOOTH",
"297 316 OFFCURVE",
"354 265 OFFCURVE",
"354 174 CURVE SMOOTH",
"354 100 OFFCURVE",
"326 48 OFFCURVE",
"281 22 CURVE",
"302 -13 LINE",
"378 19 OFFCURVE",
"414 90 OFFCURVE",
"414 175 CURVE SMOOTH",
"414 278 OFFCURVE",
"336 362 OFFCURVE",
"222 362 CURVE SMOOTH",
"108 362 OFFCURVE",
"30 278 OFFCURVE",
"30 175 CURVE SMOOTH"
);
}
);
width = 464;
},
{
background = {
paths = (
{
closed = 1;
nodes = (
"197 19 LINE",
"162 54 OFFCURVE",
"130 90 OFFCURVE",
"130 168 CURVE SMOOTH",
"130 261 OFFCURVE",
"177 316 OFFCURVE",
"247 316 CURVE SMOOTH",
"317 316 OFFCURVE",
"364 261 OFFCURVE",
"364 168 CURVE SMOOTH",
"364 90 OFFCURVE",
"332 54 OFFCURVE",
"297 19 CURVE",
"325 -13 LINE",
"372 17 OFFCURVE",
"424 73 OFFCURVE",
"424 169 CURVE SMOOTH",
"424 274 OFFCURVE",
"356 362 OFFCURVE",
"247 362 CURVE SMOOTH",
"138 362 OFFCURVE",
"70 274 OFFCURVE",
"70 169 CURVE SMOOTH",
"70 73 OFFCURVE",
"122 17 OFFCURVE",
"169 -13 CURVE"
);
}
);
};
layerId = "4BC39443-182D-41DE-81B9-A713C9E8B1F3";
paths = (
{
closed = 1;
nodes = (
"228 67 LINE",
"202 96 OFFCURVE",
"191 130 OFFCURVE",
"191 170 CURVE SMOOTH",
"191 219 OFFCURVE",
"212 254 OFFCURVE",
"248 254 CURVE SMOOTH",
"284 254 OFFCURVE",
"305 219 OFFCURVE",
"305 170 CURVE SMOOTH",
"305 130 OFFCURVE",
"294 96 OFFCURVE",
"268 67 CURVE",
"365 -15 LINE",
"432 30 OFFCURVE",
"466 94 OFFCURVE",
"466 180 CURVE SMOOTH",
"466 281 OFFCURVE",
"387 385 OFFCURVE",
"248 385 CURVE SMOOTH",
"109 385 OFFCURVE",
"30 281 OFFCURVE",
"30 180 CURVE SMOOTH",
"30 94 OFFCURVE",
"64 30 OFFCURVE",
"131 -15 CURVE"
);
}
);
width = 496;
},
{
associatedMasterId = "4BC39443-182D-41DE-81B9-A713C9E8B1F3";
layerId = "D92C6B13-F2A8-4FEA-983F-9157F9107E1D";
name = "Bold Jun 4 16, 21:19";
paths = (
{
closed = 1;
nodes = (
"223 47 LINE",
"204 80 OFFCURVE",
"189 134 OFFCURVE",
"189 173 CURVE SMOOTH",
"189 220 OFFCURVE",
"213 256 OFFCURVE",
"244 256 CURVE",
"275 256 OFFCURVE",
"299 220 OFFCURVE",
"299 173 CURVE SMOOTH",
"299 134 OFFCURVE",
"284 80 OFFCURVE",
"265 47 CURVE",
"369 -15 LINE",
"420 32 OFFCURVE",
"458 113 OFFCURVE",
"458 173 CURVE SMOOTH",
"458 294 OFFCURVE",
"366 385 OFFCURVE",
"244 385 CURVE",
"122 385 OFFCURVE",
"30 294 OFFCURVE",
"30 173 CURVE SMOOTH",
"30 113 OFFCURVE",
"68 32 OFFCURVE",
"119 -15 CURVE"
);
}
);
width = 488;
},
{
associatedMasterId = "4BC39443-182D-41DE-81B9-A713C9E8B1F3";
background = {
paths = (
{
closed = 1;
nodes = (
"193 19 LINE",
"158 54 OFFCURVE",
"126 90 OFFCURVE",
"126 168 CURVE SMOOTH",
"126 261 OFFCURVE",
"173 316 OFFCURVE",
"243 316 CURVE SMOOTH",
"313 316 OFFCURVE",
"360 261 OFFCURVE",
"360 168 CURVE SMOOTH",
"360 90 OFFCURVE",
"328 54 OFFCURVE",
"293 19 CURVE",
"321 -13 LINE",
"368 17 OFFCURVE",
"420 73 OFFCURVE",
"420 169 CURVE SMOOTH",
"420 274 OFFCURVE",
"352 362 OFFCURVE",
"243 362 CURVE SMOOTH",
"134 362 OFFCURVE",
"66 274 OFFCURVE",
"66 169 CURVE SMOOTH",
"66 73 OFFCURVE",
"118 17 OFFCURVE",
"165 -13 CURVE"
);
}
);
};
layerId = "60699CB7-F38A-4B9B-9F17-3EC633E46313";
name = "ძველი v18";
paths = (
{
closed = 1;
nodes = (
"233 31 LINE",
"213 65 OFFCURVE",
"195 126 OFFCURVE",
"195 168 CURVE SMOOTH",
"195 223 OFFCURVE",
"219 259 OFFCURVE",
"252 259 CURVE",
"285 259 OFFCURVE",
"309 223 OFFCURVE",
"309 168 CURVE SMOOTH",
"309 126 OFFCURVE",
"291 65 OFFCURVE",
"271 31 CURVE",
"373 -15 LINE",
"427 25 OFFCURVE",
"474 93 OFFCURVE",
"474 175 CURVE SMOOTH",
"474 303 OFFCURVE",
"379 392 OFFCURVE",
"252 392 CURVE",
"125 392 OFFCURVE",
"30 303 OFFCURVE",
"30 175 CURVE SMOOTH",
"30 101 OFFCURVE",
"73 33 OFFCURVE",
"121 -15 CURVE"
);
}
);
width = 488;
}
);
unicode = 10D8;
},
{
glyphname = "kan-georgian";
lastChange = "2016-07-29 19:26:23 +0000";
layers = (
{
background = {
paths = (
{
closed = 1;
nodes = (
"301 79 LINE",
"373 79 OFFCURVE",
"426 20 OFFCURVE",
"426 -61 CURVE SMOOTH",
"426 -194 LINE SMOOTH",
"426 -284 OFFCURVE",
"358 -372 OFFCURVE",
"238 -372 CURVE SMOOTH",
"115 -372 OFFCURVE",
"30 -299 OFFCURVE",
"30 -213 CURVE SMOOTH",
"30 -141 OFFCURVE",
"86 -83 OFFCURVE",
"110 -68 CURVE",
"136 -89 LINE",
"114 -110 OFFCURVE",
"88 -143 OFFCURVE",
"88 -196 CURVE SMOOTH",
"88 -282 OFFCURVE",
"159 -326 OFFCURVE",
"238 -326 CURVE SMOOTH",
"314 -326 OFFCURVE",
"370 -270 OFFCURVE",
"370 -188 CURVE SMOOTH",
"370 -62 LINE SMOOTH",
"370 2 OFFCURVE",
"331 45 OFFCURVE",
"275 45 CURVE SMOOTH",
"259 45 OFFCURVE",
"241 42 OFFCURVE",
"222 34 CURVE",
"217 50 LINE",
"260 72 OFFCURVE",
"323 128 OFFCURVE",
"323 257 CURVE",
"323 291 OFFCURVE",
"323 315 OFFCURVE",
"295 360 CURVE",
"314 383 LINE",
"337 367 OFFCURVE",
"383 339 OFFCURVE",
"383 257 CURVE",
"383 219 OFFCURVE",
"379 150 OFFCURVE",
"301 81 CURVE"
);
}
);
};
backgroundImage = {
crop = "{{0, 0}, {368.15999999999997, 169.44}}";
imagePath = venuri_symb/10_kan.jpg;
locked = "1";
transform = "{7, 0, 0, 7, -1670, -415}";
};
layerId = "9F5B1694-2A59-45B7-91CA-438A6316E2AD";
paths = (
{
closed = 1;
nodes = (
"358 -372 OFFCURVE",
"426 -284 OFFCURVE",
"426 -184 CURVE SMOOTH",
"426 -81 LINE SMOOTH",
"426 0 OFFCURVE",
"373 72 OFFCURVE",
"301 79 CURVE",
"301 81 LINE",
"363 111 OFFCURVE",
"383 181 OFFCURVE",
"383 219 CURVE SMOOTH",
"383 290 OFFCURVE",
"346 336 OFFCURVE",
"309 362 CURVE",
"274 334 LINE",
"301 309 OFFCURVE",
"327 273 OFFCURVE",
"327 219 CURVE SMOOTH",
"327 152 OFFCURVE",
"278 89 OFFCURVE",
"227 89 CURVE SMOOTH",
"207 89 LINE",
"207 45 LINE",
"255 45 LINE SMOOTH",
"331 45 OFFCURVE",
"370 -8 OFFCURVE",
"370 -82 CURVE SMOOTH",
"370 -178 LINE SMOOTH",
"370 -270 OFFCURVE",
"314 -326 OFFCURVE",
"238 -326 CURVE SMOOTH",
"159 -326 OFFCURVE",
"98 -282 OFFCURVE",
"98 -192 CURVE SMOOTH",
"98 -150 OFFCURVE",
"115 -119 OFFCURVE",
"136 -93 CURVE",
"101 -63 LINE",
"71 -90 OFFCURVE",
"40 -136 OFFCURVE",
"40 -203 CURVE SMOOTH",
"40 -299 OFFCURVE",
"115 -372 OFFCURVE",
"238 -372 CURVE SMOOTH"
);
}
);
width = 486;
},
{
associatedMasterId = "9F5B1694-2A59-45B7-91CA-438A6316E2AD";
backgroundImage = {
crop = "{{0, 0}, {368.15999999999997, 169.44}}";
imagePath = venuri_symb/10_kan.jpg;
locked = "1";
transform = "{7, 0, 0, 7, -1660, -415}";
};
layerId = "C550FA85-291B-4560-9A48-F5CE3621AF9B";
name = "Regular May 10 16, 12:58";
paths = (
{
closed = 1;
nodes = (
"311 79 LINE",
"383 79 OFFCURVE",
"436 20 OFFCURVE",
"436 -61 CURVE SMOOTH",
"436 -194 LINE SMOOTH",
"436 -284 OFFCURVE",
"368 -372 OFFCURVE",
"248 -372 CURVE SMOOTH",
"125 -372 OFFCURVE",
"40 -299 OFFCURVE",
"40 -213 CURVE SMOOTH",
"40 -141 OFFCURVE",
"96 -83 OFFCURVE",
"120 -68 CURVE",
"146 -89 LINE",
"124 -110 OFFCURVE",
"98 -143 OFFCURVE",
"98 -196 CURVE SMOOTH",
"98 -282 OFFCURVE",
"169 -326 OFFCURVE",
"248 -326 CURVE SMOOTH",
"324 -326 OFFCURVE",
"380 -270 OFFCURVE",
"380 -188 CURVE SMOOTH",
"380 -62 LINE SMOOTH",
"380 2 OFFCURVE",
"341 45 OFFCURVE",
"285 45 CURVE SMOOTH",
"269 45 OFFCURVE",
"251 42 OFFCURVE",
"232 34 CURVE",
"227 50 LINE",
"270 72 OFFCURVE",
"333 128 OFFCURVE",
"333 257 CURVE",
"333 291 OFFCURVE",
"333 315 OFFCURVE",
"305 360 CURVE",
"324 383 LINE",
"347 367 OFFCURVE",
"393 339 OFFCURVE",
"393 257 CURVE",
"393 219 OFFCURVE",
"389 150 OFFCURVE",
"311 81 CURVE"
);
}
);
width = 496;
},
{
associatedMasterId = "9F5B1694-2A59-45B7-91CA-438A6316E2AD";
background = {
paths = (
{
closed = 1;
nodes = (
"311 79 LINE",
"383 79 OFFCURVE",
"436 20 OFFCURVE",
"436 -61 CURVE SMOOTH",
"436 -194 LINE SMOOTH",
"436 -284 OFFCURVE",
"368 -372 OFFCURVE",
"248 -372 CURVE SMOOTH",
"125 -372 OFFCURVE",
"40 -299 OFFCURVE",
"40 -213 CURVE SMOOTH",
"40 -141 OFFCURVE",
"96 -83 OFFCURVE",
"120 -68 CURVE",
"146 -89 LINE",
"124 -110 OFFCURVE",
"98 -143 OFFCURVE",
"98 -196 CURVE SMOOTH",
"98 -282 OFFCURVE",
"169 -326 OFFCURVE",
"248 -326 CURVE SMOOTH",
"324 -326 OFFCURVE",
"380 -270 OFFCURVE",
"380 -188 CURVE SMOOTH",
"380 -62 LINE SMOOTH",
"380 2 OFFCURVE",
"341 45 OFFCURVE",
"285 45 CURVE SMOOTH",
"269 45 OFFCURVE",
"251 42 OFFCURVE",
"232 34 CURVE",
"227 50 LINE",
"270 72 OFFCURVE",
"333 128 OFFCURVE",
"333 257 CURVE",
"333 291 OFFCURVE",
"333 315 OFFCURVE",
"305 360 CURVE",
"324 383 LINE",
"347 367 OFFCURVE",
"393 339 OFFCURVE",
"393 257 CURVE",
"393 219 OFFCURVE",
"389 150 OFFCURVE",
"311 81 CURVE"
);
}
);
};
backgroundImage = {
crop = "{{0, 0}, {368.15999999999997, 169.44}}";
imagePath = venuri_symb/10_kan.jpg;
locked = "1";
transform = "{7, 0, 0, 7, -1660, -415}";
};
layerId = "9B894533-3DE4-4199-8C7A-876B9BAA9920";
name = "Regular May 10 16, 13:18";
paths = (
{
closed = 1;
nodes = (
"98 -282 OFFCURVE",
"169 -326 OFFCURVE",
"248 -326 CURVE SMOOTH",
"324 -326 OFFCURVE",
"380 -270 OFFCURVE",
"380 -188 CURVE SMOOTH",
"380 -62 LINE SMOOTH",
"380 2 OFFCURVE",
"341 45 OFFCURVE",
"285 45 CURVE SMOOTH",
"269 45 OFFCURVE",
"251 42 OFFCURVE",
"232 34 CURVE",
"227 50 LINE",
"270 72 OFFCURVE",
"333 128 OFFCURVE",
"333 257 CURVE",
"333 291 OFFCURVE",
"333 315 OFFCURVE",
"305 360 CURVE",
"324 383 LINE",
"347 367 OFFCURVE",
"393 339 OFFCURVE",
"393 257 CURVE",
"393 219 OFFCURVE",
"389 150 OFFCURVE",
"311 81 CURVE",
"311 79 LINE",
"383 79 OFFCURVE",
"436 20 OFFCURVE",
"436 -61 CURVE SMOOTH",
"436 -194 LINE SMOOTH",
"436 -284 OFFCURVE",
"368 -372 OFFCURVE",
"248 -372 CURVE SMOOTH",
"125 -372 OFFCURVE",
"40 -299 OFFCURVE",
"40 -203 CURVE",
"40 -124 OFFCURVE",
"80 -81 OFFCURVE",
"104 -66 CURVE",
"136 -93 LINE",
"117 -110 OFFCURVE",
"98 -139 OFFCURVE",
"98 -192 CURVE"
);
}
);
width = 496;
},
{
layerId = "4BC39443-182D-41DE-81B9-A713C9E8B1F3";
paths = (
{
closed = 1;
nodes = (
"385 -375 OFFCURVE",
"481 -289 OFFCURVE",
"481 -169 CURVE SMOOTH",
"481 -63 LINE SMOOTH",
"481 2 OFFCURVE",
"438 68 OFFCURVE",
"371 92 CURVE",
"371 96 LINE",
"413 115 OFFCURVE",
"447 160 OFFCURVE",
"447 213 CURVE SMOOTH",
"447 295 OFFCURVE",
"414 349 OFFCURVE",
"342 385 CURVE",
"226 321 LINE",
"264 292 OFFCURVE",
"284 255 OFFCURVE",
"284 217 CURVE SMOOTH",
"284 170 OFFCURVE",
"256 140 OFFCURVE",
"216 140 CURVE SMOOTH",
"196 140 LINE",
"196 7 LINE",
"250 7 LINE SMOOTH",
"295 7 OFFCURVE",
"325 -31 OFFCURVE",
"325 -80 CURVE SMOOTH",
"325 -163 LINE SMOOTH",
"325 -213 OFFCURVE",
"301 -242 OFFCURVE",
"260 -242 CURVE SMOOTH",
"214 -242 OFFCURVE",
"195 -208 OFFCURVE",
"195 -167 CURVE SMOOTH",
"195 -141 OFFCURVE",
"203 -114 OFFCURVE",
"220 -93 CURVE",
"109 -19 LINE",
"63 -58 OFFCURVE",
"30 -106 OFFCURVE",
"30 -172 CURVE SMOOTH",
"30 -286 OFFCURVE",
"130 -375 OFFCURVE",
"259 -375 CURVE SMOOTH"
);
}
);
width = 511;
},
{
associatedMasterId = "4BC39443-182D-41DE-81B9-A713C9E8B1F3";
layerId = "0850A083-2D43-42B7-B14D-0C734DFF45C0";
name = "ძველი v19";
paths = (
{
closed = 1;
nodes = (
"383 -375 OFFCURVE",
"479 -289 OFFCURVE",
"479 -169 CURVE SMOOTH",
"479 -63 LINE SMOOTH",
"479 2 OFFCURVE",
"438 67 OFFCURVE",
"374 94 CURVE",
"374 96 LINE",
"416 115 OFFCURVE",
"445 160 OFFCURVE",
"445 213 CURVE SMOOTH",
"445 295 OFFCURVE",
"401 361 OFFCURVE",
"318 403 CURVE",
"218 317 LINE",
"270 290 OFFCURVE",
"284 259 OFFCURVE",
"284 213 CURVE SMOOTH",
"284 181 OFFCURVE",
"260 140 OFFCURVE",
"224 140 CURVE SMOOTH",
"204 140 LINE",
"204 7 LINE",
"248 7 LINE SMOOTH",
"280 7 OFFCURVE",
"323 -31 OFFCURVE",
"323 -80 CURVE SMOOTH",
"323 -163 LINE SMOOTH",
"323 -213 OFFCURVE",
"298 -246 OFFCURVE",
"257 -246 CURVE SMOOTH",
"211 -246 OFFCURVE",
"190 -208 OFFCURVE",
"190 -167 CURVE SMOOTH",
"190 -141 OFFCURVE",
"198 -114 OFFCURVE",
"215 -93 CURVE",
"107 -19 LINE",
"61 -58 OFFCURVE",
"30 -106 OFFCURVE",
"30 -172 CURVE SMOOTH",
"30 -286 OFFCURVE",
"128 -375 OFFCURVE",
"257 -375 CURVE SMOOTH"
);
}
);
width = 509;
}
);
unicode = 10D9;
},
{
color = 3;
glyphname = "las-georgian";
lastChange = "2016-07-29 17:09:19 +0000";
layers = (
{
background = {
paths = (
{
closed = 1;
nodes = (
"713 -351 LINE",
"626 -247 OFFCURVE",
"517 -187 OFFCURVE",
"382 -150 CURVE SMOOTH",
"269 -119 OFFCURVE",
"110 -37 OFFCURVE",
"110 163 CURVE",
"110 265 OFFCURVE",
"155 316 OFFCURVE",
"219 316 CURVE SMOOTH",
"285 316 OFFCURVE",
"334 265 OFFCURVE",
"334 185 CURVE SMOOTH",
"334 90 LINE",
"384 90 LINE",
"384 185 LINE SMOOTH",
"384 265 OFFCURVE",
"423 316 OFFCURVE",
"489 316 CURVE",
"555 316 OFFCURVE",
"595 265 OFFCURVE",
"595 185 CURVE SMOOTH",
"595 90 LINE",
"645 90 LINE",
"645 185 LINE SMOOTH",
"645 265 OFFCURVE",
"690 316 OFFCURVE",
"756 316 CURVE SMOOTH",
"823 316 OFFCURVE",
"869 265 OFFCURVE",
"869 184 CURVE SMOOTH",
"869 136 OFFCURVE",
"847 86 OFFCURVE",
"824 58 CURVE",
"871 34 LINE",
"900 69 OFFCURVE",
"929 132 OFFCURVE",
"929 193 CURVE SMOOTH",
"929 278 OFFCURVE",
"863 362 OFFCURVE",
"763 362 CURVE SMOOTH",
"697 362 OFFCURVE",
"643 328 OFFCURVE",
"621 270 CURVE",
"619 270 LINE",
"599 328 OFFCURVE",
"556 362 OFFCURVE",
"489 362 CURVE",
"423 362 OFFCURVE",
"379 328 OFFCURVE",
"360 270 CURVE",
"358 270 LINE",
"335 328 OFFCURVE",
"279 362 OFFCURVE",
"212 362 CURVE SMOOTH",
"115 362 OFFCURVE",
"50 278 OFFCURVE",
"50 164 CURVE",
"50 -4 OFFCURVE",
"148 -98 OFFCURVE",
"247 -139 CURVE",
"247 -141 LINE",
"220 -141 OFFCURVE",
"179 -147 OFFCURVE",
"154 -153 CURVE",
"154 -205 LINE",
"190 -194 OFFCURVE",
"231 -187 OFFCURVE",
"284 -187 CURVE SMOOTH",
"415 -187 OFFCURVE",
"603 -288 OFFCURVE",
"669 -383 CURVE"
);
}
);
};
backgroundImage = {
crop = "{{0, 0}, {629.27999999999997, 146.63999999999999}}";
imagePath = venuri_symb/11_las.jpg;
locked = "1";
transform = "{7, 0, 0, 7, -1591, -464}";
};
guideLines = (
{
angle = 90;
position = "{50, 439}";
},
{
angle = 90;
position = "{923, 0}";
},
{
angle = 90;
position = "{334, 222}";
},
{
angle = 90;
position = "{594, 222}";
}
);
layerId = "9F5B1694-2A59-45B7-91CA-438A6316E2AD";
paths = (
{
closed = 1;
nodes = (
"704 -360 LINE",
"655 -252 OFFCURVE",
"522 -184 OFFCURVE",
"387 -149 CURVE SMOOTH",
"274 -120 OFFCURVE",
"110 -37 OFFCURVE",
"110 163 CURVE",
"110 265 OFFCURVE",
"155 316 OFFCURVE",
"219 316 CURVE SMOOTH",
"285 316 OFFCURVE",
"334 265 OFFCURVE",
"334 185 CURVE SMOOTH",
"334 90 LINE",
"384 90 LINE",
"384 185 LINE SMOOTH",
"384 265 OFFCURVE",
"423 316 OFFCURVE",
"489 316 CURVE",
"555 316 OFFCURVE",
"595 265 OFFCURVE",
"595 185 CURVE SMOOTH",
"595 90 LINE",
"645 90 LINE",
"645 185 LINE SMOOTH",
"645 265 OFFCURVE",
"690 316 OFFCURVE",
"756 316 CURVE SMOOTH",
"823 316 OFFCURVE",
"869 265 OFFCURVE",
"869 184 CURVE SMOOTH",
"869 136 OFFCURVE",
"847 86 OFFCURVE",
"824 58 CURVE",
"871 34 LINE",
"900 69 OFFCURVE",
"929 132 OFFCURVE",
"929 193 CURVE SMOOTH",
"929 278 OFFCURVE",
"863 362 OFFCURVE",
"763 362 CURVE SMOOTH",
"697 362 OFFCURVE",
"643 328 OFFCURVE",
"621 270 CURVE",
"619 270 LINE",
"599 328 OFFCURVE",
"556 362 OFFCURVE",
"489 362 CURVE",
"423 362 OFFCURVE",
"379 328 OFFCURVE",
"360 270 CURVE",
"358 270 LINE",
"335 328 OFFCURVE",
"279 362 OFFCURVE",
"212 362 CURVE SMOOTH",
"115 362 OFFCURVE",
"50 278 OFFCURVE",
"50 164 CURVE",
"50 -4 OFFCURVE",
"153 -98 OFFCURVE",
"252 -139 CURVE",
"252 -141 LINE",
"225 -141 OFFCURVE",
"184 -147 OFFCURVE",
"159 -153 CURVE",
"159 -205 LINE",
"195 -194 OFFCURVE",
"236 -187 OFFCURVE",
"289 -187 CURVE SMOOTH",
"409 -187 OFFCURVE",
"589 -261 OFFCURVE",
"645 -360 CURVE"
);
}
);
width = 979;
},
{
associatedMasterId = "9F5B1694-2A59-45B7-91CA-438A6316E2AD";
backgroundImage = {
crop = "{{0, 0}, {629.27999999999997, 146.63999999999999}}";
imagePath = venuri_symb/11_las.jpg;
locked = "1";
transform = "{7, 0, 0, 7, -1581, -468}";
};
layerId = "6644C697-D29D-4513-BF21-2A5A034A1B8E";
name = "Regular Apr 11 16, 20:27";
paths = (
{
closed = 1;
nodes = (
"442 362 OFFCURVE",
"403 337 OFFCURVE",
"373 297 CURVE",
"371 297 LINE",
"342 337 OFFCURVE",
"300 362 OFFCURVE",
"235 362 CURVE SMOOTH",
"130 362 OFFCURVE",
"60 294 OFFCURVE",
"60 155 CURVE SMOOTH",
"60 -17 OFFCURVE",
"186 -122 OFFCURVE",
"271 -180 CURVE",
"247 -182 OFFCURVE",
"219 -190 OFFCURVE",
"194 -198 CURVE",
"196 -254 LINE",
"232 -243 OFFCURVE",
"269 -237 OFFCURVE",
"307 -237 CURVE SMOOTH",
"419 -237 OFFCURVE",
"614 -290 OFFCURVE",
"692 -383 CURVE",
"733 -337 LINE",
"670 -258 OFFCURVE",
"495 -217 OFFCURVE",
"412 -193 CURVE SMOOTH",
"299 -160 OFFCURVE",
"120 -48 OFFCURVE",
"120 154 CURVE SMOOTH",
"120 275 OFFCURVE",
"170 316 OFFCURVE",
"233 316 CURVE SMOOTH",
"294 316 OFFCURVE",
"344 272 OFFCURVE",
"344 222 CURVE",
"344 90 LINE",
"400 90 LINE",
"400 222 LINE",
"400 272 OFFCURVE",
"442 316 OFFCURVE",
"502 316 CURVE",
"562 316 OFFCURVE",
"604 272 OFFCURVE",
"604 222 CURVE",
"604 90 LINE",
"660 90 LINE",
"660 222 LINE",
"660 272 OFFCURVE",
"702 316 OFFCURVE",
"769 316 CURVE SMOOTH",
"829 316 OFFCURVE",
"873 275 OFFCURVE",
"873 205 CURVE SMOOTH",
"873 144 OFFCURVE",
"831 107 OFFCURVE",
"811 83 CURVE",
"856 67 LINE",
"877 87 OFFCURVE",
"933 138 OFFCURVE",
"933 206 CURVE SMOOTH",
"933 294 OFFCURVE",
"874 362 OFFCURVE",
"769 362 CURVE SMOOTH",
"704 362 OFFCURVE",
"663 337 OFFCURVE",
"633 297 CURVE",
"631 297 LINE",
"602 337 OFFCURVE",
"562 362 OFFCURVE",
"502 362 CURVE"
);
}
);
width = 993;
},
{
associatedMasterId = "9F5B1694-2A59-45B7-91CA-438A6316E2AD";
backgroundImage = {
crop = "{{0, 0}, {629.27999999999997, 146.63999999999999}}";
imagePath = venuri_symb/11_las.jpg;
locked = "1";
transform = "{7, 0, 0, 7, -1581, -464}";
};
layerId = "5744E159-83EE-49A6-BE1F-373CAF46B464";
name = "Regular Apr 13 16, 15:48";
paths = (
{
closed = 1;
nodes = (
"442 362 OFFCURVE",
"403 337 OFFCURVE",
"373 297 CURVE",
"371 297 LINE",
"342 337 OFFCURVE",
"300 362 OFFCURVE",
"235 362 CURVE SMOOTH",
"130 362 OFFCURVE",
"60 294 OFFCURVE",
"60 155 CURVE SMOOTH",
"60 -17 OFFCURVE",
"156 -82 OFFCURVE",
"241 -140 CURVE",
"217 -144 OFFCURVE",
"191 -151 OFFCURVE",
"174 -158 CURVE",
"176 -214 LINE",
"191 -210 OFFCURVE",
"249 -197 OFFCURVE",
"287 -197 CURVE SMOOTH",
"399 -197 OFFCURVE",
"577 -263 OFFCURVE",
"675 -383 CURVE",
"716 -337 LINE",
"633 -231 OFFCURVE",
"506 -182 OFFCURVE",
"392 -153 CURVE SMOOTH",
"277 -124 OFFCURVE",
"120 -28 OFFCURVE",
"120 154 CURVE SMOOTH",
"120 275 OFFCURVE",
"170 316 OFFCURVE",
"233 316 CURVE SMOOTH",
"294 316 OFFCURVE",
"344 272 OFFCURVE",
"344 222 CURVE",
"344 90 LINE",
"400 90 LINE",
"400 222 LINE",
"400 272 OFFCURVE",
"442 316 OFFCURVE",
"502 316 CURVE",
"562 316 OFFCURVE",
"604 272 OFFCURVE",
"604 222 CURVE",
"604 90 LINE",
"660 90 LINE",
"660 222 LINE",
"660 272 OFFCURVE",
"702 316 OFFCURVE",
"769 316 CURVE SMOOTH",
"829 316 OFFCURVE",
"873 275 OFFCURVE",
"873 205 CURVE SMOOTH",
"873 144 OFFCURVE",
"831 107 OFFCURVE",
"811 83 CURVE",
"856 67 LINE",
"877 87 OFFCURVE",
"933 138 OFFCURVE",
"933 206 CURVE SMOOTH",
"933 294 OFFCURVE",
"874 362 OFFCURVE",
"769 362 CURVE SMOOTH",
"704 362 OFFCURVE",
"663 337 OFFCURVE",
"633 297 CURVE",
"631 297 LINE",
"602 337 OFFCURVE",
"562 362 OFFCURVE",
"502 362 CURVE"
);
}
);
width = 993;
},
{
background = {
paths = (
{
closed = 1;
nodes = (
"719 -360 LINE",
"670 -252 OFFCURVE",
"537 -184 OFFCURVE",
"402 -149 CURVE SMOOTH",
"289 -120 OFFCURVE",
"125 -37 OFFCURVE",
"125 163 CURVE",
"125 265 OFFCURVE",
"170 316 OFFCURVE",
"234 316 CURVE SMOOTH",
"300 316 OFFCURVE",
"349 265 OFFCURVE",
"349 185 CURVE SMOOTH",
"349 90 LINE",
"399 90 LINE",
"399 185 LINE SMOOTH",
"399 265 OFFCURVE",
"438 316 OFFCURVE",
"504 316 CURVE",
"570 316 OFFCURVE",
"610 265 OFFCURVE",
"610 185 CURVE SMOOTH",
"610 90 LINE",
"660 90 LINE",
"660 185 LINE SMOOTH",
"660 265 OFFCURVE",
"705 316 OFFCURVE",
"771 316 CURVE SMOOTH",
"838 316 OFFCURVE",
"884 265 OFFCURVE",
"884 184 CURVE SMOOTH",
"884 136 OFFCURVE",
"862 86 OFFCURVE",
"839 58 CURVE",
"886 34 LINE",
"915 69 OFFCURVE",
"944 132 OFFCURVE",
"944 193 CURVE SMOOTH",
"944 278 OFFCURVE",
"878 362 OFFCURVE",
"778 362 CURVE SMOOTH",
"712 362 OFFCURVE",
"658 328 OFFCURVE",
"636 270 CURVE",
"634 270 LINE",
"614 328 OFFCURVE",
"571 362 OFFCURVE",
"504 362 CURVE",
"438 362 OFFCURVE",
"394 328 OFFCURVE",
"375 270 CURVE",
"373 270 LINE",
"350 328 OFFCURVE",
"294 362 OFFCURVE",
"227 362 CURVE SMOOTH",
"130 362 OFFCURVE",
"65 278 OFFCURVE",
"65 164 CURVE",
"65 -4 OFFCURVE",
"168 -98 OFFCURVE",
"267 -139 CURVE",
"267 -141 LINE",
"240 -141 OFFCURVE",
"199 -147 OFFCURVE",
"174 -153 CURVE",
"174 -205 LINE",
"210 -194 OFFCURVE",
"251 -187 OFFCURVE",
"304 -187 CURVE SMOOTH",
"424 -187 OFFCURVE",
"604 -261 OFFCURVE",
"660 -360 CURVE"
);
}
);
};
layerId = "4BC39443-182D-41DE-81B9-A713C9E8B1F3";
paths = (
{
closed = 1;
nodes = (
"757 -360 LINE",
"757 -209 OFFCURVE",
"517 -112 OFFCURVE",
"430 -85 CURVE SMOOTH",
"277 -37 OFFCURVE",
"195 32 OFFCURVE",
"195 159 CURVE SMOOTH",
"195 208 OFFCURVE",
"211 256 OFFCURVE",
"251 256 CURVE SMOOTH",
"281 256 OFFCURVE",
"298 227 OFFCURVE",
"298 177 CURVE SMOOTH",
"298 89 LINE",
"454 89 LINE",
"454 177 LINE SMOOTH",
"454 227 OFFCURVE",
"473 256 OFFCURVE",
"506 256 CURVE SMOOTH",
"539 256 OFFCURVE",
"558 227 OFFCURVE",
"558 177 CURVE SMOOTH",
"558 89 LINE",
"714 89 LINE",
"714 177 LINE SMOOTH",
"714 227 OFFCURVE",
"735 254 OFFCURVE",
"761 254 CURVE SMOOTH",
"797 254 OFFCURVE",
"818 219 OFFCURVE",
"818 170 CURVE SMOOTH",
"818 130 OFFCURVE",
"807 96 OFFCURVE",
"781 67 CURVE",
"897 3 LINE",
"948 49 OFFCURVE",
"979 114 OFFCURVE",
"979 180 CURVE SMOOTH",
"979 281 OFFCURVE",
"915 385 OFFCURVE",
"776 385 CURVE SMOOTH",
"718 385 OFFCURVE",
"659 355 OFFCURVE",
"637 300 CURVE",
"635 300 LINE",
"619 355 OFFCURVE",
"561 385 OFFCURVE",
"506 385 CURVE SMOOTH",
"450 385 OFFCURVE",
"401 355 OFFCURVE",
"377 300 CURVE",
"375 300 LINE",
"344 355 OFFCURVE",
"293 385 OFFCURVE",
"237 385 CURVE SMOOTH",
"98 385 OFFCURVE",
"30 273 OFFCURVE",
"30 150 CURVE SMOOTH",
"30 32 OFFCURVE",
"113 -56 OFFCURVE",
"220 -105 CURVE",
"220 -109 LINE",
"195 -109 OFFCURVE",
"170 -113 OFFCURVE",
"142 -121 CURVE",
"142 -242 LINE",
"186 -228 OFFCURVE",
"236 -218 OFFCURVE",
"306 -218 CURVE SMOOTH",
"394 -218 OFFCURVE",
"563 -264 OFFCURVE",
"601 -360 CURVE"
);
}
);
width = 1009;
},
{
associatedMasterId = "4BC39443-182D-41DE-81B9-A713C9E8B1F3";
layerId = "897DE50A-0524-4B56-9159-199A90AE4AAC";
name = "Bold Jun 20 16, 20:08";
paths = (
{
closed = 1;
nodes = (
"721 -289 LINE",
"659 -219 OFFCURVE",
"518 -152 OFFCURVE",
"436 -119 CURVE SMOOTH",
"302 -65 OFFCURVE",
"191 28 OFFCURVE",
"191 167 CURVE SMOOTH",
"191 216 OFFCURVE",
"198 256 OFFCURVE",
"238 256 CURVE SMOOTH",
"268 256 OFFCURVE",
"285 236 OFFCURVE",
"285 192 CURVE SMOOTH",
"285 77 LINE",
"441 77 LINE",
"441 192 LINE SMOOTH",
"441 236 OFFCURVE",
"458 256 OFFCURVE",
"488 256 CURVE SMOOTH",
"518 256 OFFCURVE",
"535 236 OFFCURVE",
"535 192 CURVE SMOOTH",
"535 77 LINE",
"691 77 LINE",
"691 192 LINE SMOOTH",
"691 236 OFFCURVE",
"708 256 OFFCURVE",
"738 256 CURVE SMOOTH",
"768 256 OFFCURVE",
"785 216 OFFCURVE",
"785 177 CURVE SMOOTH",
"785 127 OFFCURVE",
"773 80 OFFCURVE",
"749 47 CURVE",
"860 -15 LINE",
"917 36 OFFCURVE",
"950 102 OFFCURVE",
"950 170 CURVE SMOOTH",
"950 283 OFFCURVE",
"867 385 OFFCURVE",
"738 385 CURVE SMOOTH",
"685 385 OFFCURVE",
"650 367 OFFCURVE",
"614 340 CURVE",
"612 340 LINE",
"576 368 OFFCURVE",
"538 385 OFFCURVE",
"488 385 CURVE SMOOTH",
"438 385 OFFCURVE",
"400 368 OFFCURVE",
"364 340 CURVE",
"362 340 LINE",
"326 367 OFFCURVE",
"281 385 OFFCURVE",
"238 385 CURVE SMOOTH",
"99 385 OFFCURVE",
"26 283 OFFCURVE",
"26 160 CURVE SMOOTH",
"26 37 OFFCURVE",
"88 -57 OFFCURVE",
"203 -115 CURVE",
"203 -119 LINE",
"178 -119 OFFCURVE",
"153 -123 OFFCURVE",
"125 -131 CURVE",
"125 -252 LINE",
"169 -238 OFFCURVE",
"222 -230 OFFCURVE",
"263 -230 CURVE SMOOTH",
"377 -230 OFFCURVE",
"547 -292 OFFCURVE",
"625 -375 CURVE"
);
}
);
width = 976;
},
{
associatedMasterId = "9F5B1694-2A59-45B7-91CA-438A6316E2AD";
background = {
paths = (
{
closed = 1;
nodes = (
"432 362 OFFCURVE",
"393 337 OFFCURVE",
"363 297 CURVE",
"361 297 LINE",
"332 337 OFFCURVE",
"290 362 OFFCURVE",
"225 362 CURVE SMOOTH",
"120 362 OFFCURVE",
"50 294 OFFCURVE",
"50 155 CURVE SMOOTH",
"50 -17 OFFCURVE",
"146 -82 OFFCURVE",
"231 -140 CURVE",
"207 -144 OFFCURVE",
"181 -151 OFFCURVE",
"164 -158 CURVE",
"166 -214 LINE",
"181 -210 OFFCURVE",
"239 -197 OFFCURVE",
"277 -197 CURVE SMOOTH",
"389 -197 OFFCURVE",
"567 -263 OFFCURVE",
"665 -383 CURVE",
"706 -337 LINE",
"623 -231 OFFCURVE",
"496 -182 OFFCURVE",
"382 -153 CURVE SMOOTH",
"267 -124 OFFCURVE",
"110 -28 OFFCURVE",
"110 154 CURVE SMOOTH",
"110 275 OFFCURVE",
"160 316 OFFCURVE",
"223 316 CURVE SMOOTH",
"284 316 OFFCURVE",
"334 272 OFFCURVE",
"334 222 CURVE",
"334 90 LINE",
"390 90 LINE",
"390 222 LINE",
"390 272 OFFCURVE",
"432 316 OFFCURVE",
"492 316 CURVE",
"552 316 OFFCURVE",
"594 272 OFFCURVE",
"594 222 CURVE",
"594 90 LINE",
"650 90 LINE",
"650 222 LINE",
"650 272 OFFCURVE",
"692 316 OFFCURVE",
"759 316 CURVE SMOOTH",
"819 316 OFFCURVE",
"863 275 OFFCURVE",
"863 205 CURVE SMOOTH",
"863 144 OFFCURVE",
"821 107 OFFCURVE",
"801 83 CURVE",
"846 67 LINE",
"867 87 OFFCURVE",
"923 138 OFFCURVE",
"923 206 CURVE SMOOTH",
"923 294 OFFCURVE",
"864 362 OFFCURVE",
"759 362 CURVE SMOOTH",
"694 362 OFFCURVE",
"653 337 OFFCURVE",
"623 297 CURVE",
"621 297 LINE",
"592 337 OFFCURVE",
"552 362 OFFCURVE",
"492 362 CURVE"
);
}
);
};
backgroundImage = {
crop = "{{0, 0}, {629.27999999999997, 146.63999999999999}}";
imagePath = venuri_symb/11_las.jpg;
locked = "1";
transform = "{7, 0, 0, 7, -1591, -464}";
};
guideLines = (
{
angle = 90;
position = "{50, 439}";
},
{
angle = 90;
position = "{923, 0}";
},
{
angle = 90;
position = "{334, 222}";
},
{
angle = 90;
position = "{594, 222}";
}
);
layerId = "578AB92F-8B8E-4CC4-957D-2620CCF97845";
name = "Regular Jul 23 16, 17:17";
paths = (
{
closed = 1;
nodes = (
"713 -351 LINE",
"626 -247 OFFCURVE",
"517 -187 OFFCURVE",
"382 -150 CURVE SMOOTH",
"269 -119 OFFCURVE",
"110 -37 OFFCURVE",
"110 163 CURVE",
"110 265 OFFCURVE",
"155 316 OFFCURVE",
"219 316 CURVE SMOOTH",
"285 316 OFFCURVE",
"334 265 OFFCURVE",
"334 185 CURVE SMOOTH",
"334 90 LINE",
"384 90 LINE",
"384 185 LINE SMOOTH",
"384 265 OFFCURVE",
"423 316 OFFCURVE",
"489 316 CURVE",
"555 316 OFFCURVE",
"595 265 OFFCURVE",
"595 185 CURVE SMOOTH",
"595 90 LINE",
"645 90 LINE",
"645 185 LINE SMOOTH",
"645 265 OFFCURVE",
"690 316 OFFCURVE",
"756 316 CURVE SMOOTH",
"823 316 OFFCURVE",
"869 265 OFFCURVE",
"869 184 CURVE SMOOTH",
"869 136 OFFCURVE",
"847 86 OFFCURVE",
"824 58 CURVE",
"871 34 LINE",
"900 69 OFFCURVE",
"929 132 OFFCURVE",
"929 193 CURVE SMOOTH",
"929 278 OFFCURVE",
"863 362 OFFCURVE",
"763 362 CURVE SMOOTH",
"697 362 OFFCURVE",
"643 328 OFFCURVE",
"621 270 CURVE",
"619 270 LINE",
"599 328 OFFCURVE",
"556 362 OFFCURVE",
"489 362 CURVE",
"423 362 OFFCURVE",
"379 328 OFFCURVE",
"360 270 CURVE",
"358 270 LINE",
"335 328 OFFCURVE",
"279 362 OFFCURVE",
"212 362 CURVE SMOOTH",
"115 362 OFFCURVE",
"50 278 OFFCURVE",
"50 164 CURVE",
"50 -4 OFFCURVE",
"148 -98 OFFCURVE",
"247 -139 CURVE",
"247 -141 LINE",
"220 -141 OFFCURVE",
"179 -147 OFFCURVE",
"154 -153 CURVE",
"154 -205 LINE",
"190 -194 OFFCURVE",
"231 -187 OFFCURVE",
"284 -187 CURVE SMOOTH",
"415 -187 OFFCURVE",
"603 -288 OFFCURVE",
"669 -383 CURVE"
);
}
);
width = 979;
}
);
unicode = 10DA;
},
{
glyphname = "man-georgian";
lastChange = "2016-08-17 15:33:44 +0000";
layers = (
{
backgroundImage = {
crop = "{{0, 0}, {347.27999999999997, 162.72}}";
imagePath = venuri_symb/12_man.jpg;
locked = "1";
transform = "{7, 0, 0, 7, -1124, -246}";
};
layerId = "9F5B1694-2A59-45B7-91CA-438A6316E2AD";
paths = (
{
closed = 1;
nodes = (
"339 -12 OFFCURVE",
"404 72 OFFCURVE",
"404 175 CURVE SMOOTH",
"404 544 LINE SMOOTH",
"404 634 OFFCURVE",
"341 722 OFFCURVE",
"221 722 CURVE SMOOTH",
"101 722 OFFCURVE",
"40 637 OFFCURVE",
"40 562 CURVE SMOOTH",
"40 507 OFFCURVE",
"62 463 OFFCURVE",
"86 438 CURVE",
"131 461 LINE",
"116 485 OFFCURVE",
"98 516 OFFCURVE",
"98 559 CURVE SMOOTH",
"98 619 OFFCURVE",
"145 676 OFFCURVE",
"221 676 CURVE SMOOTH",
"297 676 OFFCURVE",
"348 620 OFFCURVE",
"348 538 CURVE SMOOTH",
"348 303 LINE",
"346 303 LINE",
"319 342 OFFCURVE",
"277 362 OFFCURVE",
"227 362 CURVE SMOOTH",
"127 362 OFFCURVE",
"60 278 OFFCURVE",
"60 175 CURVE SMOOTH",
"60 72 OFFCURVE",
"127 -12 OFFCURVE",
"233 -12 CURVE SMOOTH"
);
},
{
closed = 1;
nodes = (
"167 34 OFFCURVE",
"120 88 OFFCURVE",
"120 174 CURVE SMOOTH",
"120 265 OFFCURVE",
"167 316 OFFCURVE",
"234 316 CURVE SMOOTH",
"300 316 OFFCURVE",
"348 265 OFFCURVE",
"348 174 CURVE SMOOTH",
"348 88 OFFCURVE",
"300 34 OFFCURVE",
"234 34 CURVE SMOOTH"
);
}
);
width = 474;
},
{
background = {
paths = (
{
closed = 1;
nodes = (
"63 507 OFFCURVE",
"85 463 OFFCURVE",
"109 438 CURVE",
"154 461 LINE",
"139 485 OFFCURVE",
"121 516 OFFCURVE",
"121 559 CURVE SMOOTH",
"121 619 OFFCURVE",
"168 676 OFFCURVE",
"244 676 CURVE SMOOTH",
"320 676 OFFCURVE",
"371 620 OFFCURVE",
"371 538 CURVE SMOOTH",
"371 303 LINE",
"369 303 LINE",
"342 342 OFFCURVE",
"300 362 OFFCURVE",
"250 362 CURVE SMOOTH",
"150 362 OFFCURVE",
"83 278 OFFCURVE",
"83 175 CURVE SMOOTH",
"83 72 OFFCURVE",
"150 -12 OFFCURVE",
"256 -12 CURVE SMOOTH",
"362 -12 OFFCURVE",
"427 72 OFFCURVE",
"427 175 CURVE SMOOTH",
"427 544 LINE SMOOTH",
"427 634 OFFCURVE",
"364 722 OFFCURVE",
"244 722 CURVE SMOOTH",
"124 722 OFFCURVE",
"63 637 OFFCURVE",
"63 562 CURVE SMOOTH"
);
},
{
closed = 1;
nodes = (
"143 265 OFFCURVE",
"190 316 OFFCURVE",
"257 316 CURVE SMOOTH",
"323 316 OFFCURVE",
"371 265 OFFCURVE",
"371 174 CURVE SMOOTH",
"371 88 OFFCURVE",
"323 34 OFFCURVE",
"257 34 CURVE SMOOTH",
"190 34 OFFCURVE",
"143 88 OFFCURVE",
"143 174 CURVE SMOOTH"
);
}
);
};
layerId = "4BC39443-182D-41DE-81B9-A713C9E8B1F3";
paths = (
{
closed = 1;
nodes = (
"375 -15 OFFCURVE",
"461 64 OFFCURVE",
"461 185 CURVE SMOOTH",
"461 523 LINE SMOOTH",
"461 639 OFFCURVE",
"369 725 OFFCURVE",
"245 725 CURVE SMOOTH",
"124 725 OFFCURVE",
"25 643 OFFCURVE",
"25 539 CURVE SMOOTH",
"25 489 OFFCURVE",
"41 444 OFFCURVE",
"72 408 CURVE",
"208 469 LINE",
"193 496 OFFCURVE",
"189 511 OFFCURVE",
"189 533 CURVE SMOOTH",
"189 568 OFFCURVE",
"212 592 OFFCURVE",
"245 592 CURVE SMOOTH",
"281 592 OFFCURVE",
"305 565 OFFCURVE",
"305 517 CURVE SMOOTH",
"305 354 LINE",
"302 354 LINE",
"286 373 OFFCURVE",
"254 385 OFFCURVE",
"226 385 CURVE SMOOTH",
"127 385 OFFCURVE",
"44 305 OFFCURVE",
"44 185 CURVE SMOOTH",
"44 64 OFFCURVE",
"137 -15 OFFCURVE",
"256 -15 CURVE SMOOTH"
);
},
{
closed = 1;
nodes = (
"195 223 OFFCURVE",
"212 252 OFFCURVE",
"244 252 CURVE SMOOTH",
"276 252 OFFCURVE",
"293 223 OFFCURVE",
"293 185 CURVE SMOOTH",
"293 147 OFFCURVE",
"276 118 OFFCURVE",
"244 118 CURVE SMOOTH",
"212 118 OFFCURVE",
"195 147 OFFCURVE",
"195 185 CURVE SMOOTH"
);
}
);
width = 516;
}
);
unicode = 10DB;
},
{
color = 3;
glyphname = "nar-georgian";
lastChange = "2016-06-20 20:17:49 +0000";
layers = (
{
backgroundImage = {
crop = "{{0, 0}, {280.31999999999999, 170.88}}";
imagePath = venuri_symb/13_nar.jpg;
locked = "1";
transform = "{7, 0, 0, 7, -933, -471}";
};
layerId = "9F5B1694-2A59-45B7-91CA-438A6316E2AD";
paths = (
{
closed = 1;
nodes = (
"347 -12 OFFCURVE",
"414 72 OFFCURVE",
"414 175 CURVE SMOOTH",
"414 278 OFFCURVE",
"347 362 OFFCURVE",
"247 362 CURVE SMOOTH",
"197 362 OFFCURVE",
"155 342 OFFCURVE",
"128 303 CURVE",
"126 303 LINE",
"126 538 LINE SMOOTH",
"126 620 OFFCURVE",
"160 658 OFFCURVE",
"217 658 CURVE SMOOTH",
"285 658 OFFCURVE",
"337 630 OFFCURVE",
"408 630 CURVE SMOOTH",
"451 630 OFFCURVE",
"510 645 OFFCURVE",
"542 682 CURVE",
"510 716 LINE",
"477 692 OFFCURVE",
"441 686 OFFCURVE",
"408 686 CURVE SMOOTH",
"347 686 OFFCURVE",
"293 710 OFFCURVE",
"221 710 CURVE SMOOTH",
"116 710 OFFCURVE",
"70 634 OFFCURVE",
"70 544 CURVE SMOOTH",
"70 175 LINE SMOOTH",
"70 72 OFFCURVE",
"135 -12 OFFCURVE",
"241 -12 CURVE SMOOTH"
);
},
{
closed = 1;
nodes = (
"174 34 OFFCURVE",
"126 88 OFFCURVE",
"126 174 CURVE SMOOTH",
"126 265 OFFCURVE",
"174 316 OFFCURVE",
"240 316 CURVE SMOOTH",
"307 316 OFFCURVE",
"354 265 OFFCURVE",
"354 174 CURVE SMOOTH",
"354 88 OFFCURVE",
"307 34 OFFCURVE",
"240 34 CURVE SMOOTH"
);
}
);
width = 552;
},
{
background = {
paths = (
{
closed = 1;
nodes = (
"141 710 OFFCURVE",
"95 634 OFFCURVE",
"95 544 CURVE SMOOTH",
"95 175 LINE SMOOTH",
"95 72 OFFCURVE",
"160 -12 OFFCURVE",
"266 -12 CURVE SMOOTH",
"372 -12 OFFCURVE",
"439 72 OFFCURVE",
"439 175 CURVE SMOOTH",
"439 278 OFFCURVE",
"372 362 OFFCURVE",
"272 362 CURVE SMOOTH",
"222 362 OFFCURVE",
"180 342 OFFCURVE",
"153 303 CURVE",
"151 303 LINE",
"151 538 LINE SMOOTH",
"151 620 OFFCURVE",
"185 658 OFFCURVE",
"242 658 CURVE SMOOTH",
"310 658 OFFCURVE",
"362 630 OFFCURVE",
"433 630 CURVE SMOOTH",
"476 630 OFFCURVE",
"535 645 OFFCURVE",
"567 682 CURVE",
"535 716 LINE",
"502 692 OFFCURVE",
"466 686 OFFCURVE",
"433 686 CURVE SMOOTH",
"372 686 OFFCURVE",
"318 710 OFFCURVE",
"246 710 CURVE SMOOTH"
);
},
{
closed = 1;
nodes = (
"379 88 OFFCURVE",
"332 34 OFFCURVE",
"265 34 CURVE SMOOTH",
"199 34 OFFCURVE",
"151 88 OFFCURVE",
"151 174 CURVE SMOOTH",
"151 265 OFFCURVE",
"199 316 OFFCURVE",
"265 316 CURVE SMOOTH",
"332 316 OFFCURVE",
"379 265 OFFCURVE",
"379 174 CURVE SMOOTH"
);
}
);
};
layerId = "4BC39443-182D-41DE-81B9-A713C9E8B1F3";
paths = (
{
closed = 1;
nodes = (
"374 -15 OFFCURVE",
"467 64 OFFCURVE",
"467 185 CURVE SMOOTH",
"467 305 OFFCURVE",
"384 385 OFFCURVE",
"285 385 CURVE SMOOTH",
"257 385 OFFCURVE",
"225 373 OFFCURVE",
"209 354 CURVE",
"206 354 LINE",
"206 524 LINE SMOOTH",
"206 564 OFFCURVE",
"221 581 OFFCURVE",
"252 581 CURVE SMOOTH",
"289 581 OFFCURVE",
"321 556 OFFCURVE",
"418 556 CURVE SMOOTH",
"492 556 OFFCURVE",
"560 582 OFFCURVE",
"595 640 CURVE",
"510 725 LINE",
"471 692 OFFCURVE",
"444 689 OFFCURVE",
"404 689 CURVE SMOOTH",
"356 689 OFFCURVE",
"308 710 OFFCURVE",
"243 710 CURVE SMOOTH",
"120 710 OFFCURVE",
"50 636 OFFCURVE",
"50 521 CURVE SMOOTH",
"50 185 LINE SMOOTH",
"50 64 OFFCURVE",
"136 -15 OFFCURVE",
"255 -15 CURVE SMOOTH"
);
},
{
closed = 1;
nodes = (
"223 118 OFFCURVE",
"204 147 OFFCURVE",
"204 185 CURVE SMOOTH",
"204 225 OFFCURVE",
"222 253 OFFCURVE",
"253 253 CURVE SMOOTH",
"285 253 OFFCURVE",
"302 226 OFFCURVE",
"302 185 CURVE SMOOTH",
"302 147 OFFCURVE",
"285 118 OFFCURVE",
"253 118 CURVE SMOOTH"
);
}
);
width = 605;
},
{
associatedMasterId = "4BC39443-182D-41DE-81B9-A713C9E8B1F3";
background = {
paths = (
{
closed = 1;
nodes = (
"116 710 OFFCURVE",
"70 634 OFFCURVE",
"70 544 CURVE SMOOTH",
"70 175 LINE SMOOTH",
"70 72 OFFCURVE",
"135 -12 OFFCURVE",
"241 -12 CURVE SMOOTH",
"347 -12 OFFCURVE",
"414 72 OFFCURVE",
"414 175 CURVE SMOOTH",
"414 278 OFFCURVE",
"347 362 OFFCURVE",
"247 362 CURVE SMOOTH",
"197 362 OFFCURVE",
"155 342 OFFCURVE",
"128 303 CURVE",
"126 303 LINE",
"126 538 LINE SMOOTH",
"126 620 OFFCURVE",
"160 658 OFFCURVE",
"217 658 CURVE SMOOTH",
"285 658 OFFCURVE",
"337 630 OFFCURVE",
"408 630 CURVE SMOOTH",
"451 630 OFFCURVE",
"510 645 OFFCURVE",
"542 682 CURVE",
"510 716 LINE",
"477 692 OFFCURVE",
"441 686 OFFCURVE",
"408 686 CURVE SMOOTH",
"347 686 OFFCURVE",
"293 710 OFFCURVE",
"221 710 CURVE SMOOTH"
);
},
{
closed = 1;
nodes = (
"354 88 OFFCURVE",
"307 34 OFFCURVE",
"240 34 CURVE SMOOTH",
"174 34 OFFCURVE",
"126 88 OFFCURVE",
"126 174 CURVE SMOOTH",
"126 265 OFFCURVE",
"174 316 OFFCURVE",
"240 316 CURVE SMOOTH",
"307 316 OFFCURVE",
"354 265 OFFCURVE",
"354 174 CURVE SMOOTH"
);
}
);
};
layerId = "341CC69D-4CDF-4897-8AF4-623C879349E7";
name = "Bold Jun 17 16, 12:49";
paths = (
{
closed = 1;
nodes = (
"349 -15 OFFCURVE",
"442 64 OFFCURVE",
"442 185 CURVE SMOOTH",
"442 305 OFFCURVE",
"359 385 OFFCURVE",
"260 385 CURVE SMOOTH",
"232 385 OFFCURVE",
"200 373 OFFCURVE",
"184 354 CURVE",
"181 354 LINE",
"181 517 LINE SMOOTH",
"181 565 OFFCURVE",
"190 579 OFFCURVE",
"207 579 CURVE SMOOTH",
"255 579 OFFCURVE",
"295 554 OFFCURVE",
"375 554 CURVE SMOOTH",
"456 554 OFFCURVE",
"549 595 OFFCURVE",
"574 650 CURVE",
"489 739 LINE",
"444 701 OFFCURVE",
"415 691 OFFCURVE",
"375 691 CURVE SMOOTH",
"332 691 OFFCURVE",
"288 712 OFFCURVE",
"211 712 CURVE SMOOTH",
"98 712 OFFCURVE",
"25 638 OFFCURVE",
"25 523 CURVE SMOOTH",
"25 185 LINE SMOOTH",
"25 64 OFFCURVE",
"111 -15 OFFCURVE",
"230 -15 CURVE SMOOTH"
);
},
{
closed = 1;
nodes = (
"198 118 OFFCURVE",
"179 147 OFFCURVE",
"179 185 CURVE SMOOTH",
"179 225 OFFCURVE",
"197 253 OFFCURVE",
"228 253 CURVE SMOOTH",
"260 253 OFFCURVE",
"277 226 OFFCURVE",
"277 185 CURVE SMOOTH",
"277 147 OFFCURVE",
"260 118 OFFCURVE",
"228 118 CURVE SMOOTH"
);
}
);
width = 600;
},
{
associatedMasterId = "4BC39443-182D-41DE-81B9-A713C9E8B1F3";
background = {
paths = (
{
closed = 1;
nodes = (
"116 710 OFFCURVE",
"70 634 OFFCURVE",
"70 544 CURVE SMOOTH",
"70 175 LINE SMOOTH",
"70 72 OFFCURVE",
"135 -12 OFFCURVE",
"241 -12 CURVE SMOOTH",
"347 -12 OFFCURVE",
"414 72 OFFCURVE",
"414 175 CURVE SMOOTH",
"414 278 OFFCURVE",
"347 362 OFFCURVE",
"247 362 CURVE SMOOTH",
"197 362 OFFCURVE",
"155 342 OFFCURVE",
"128 303 CURVE",
"126 303 LINE",
"126 538 LINE SMOOTH",
"126 620 OFFCURVE",
"160 658 OFFCURVE",
"217 658 CURVE SMOOTH",
"285 658 OFFCURVE",
"337 630 OFFCURVE",
"408 630 CURVE SMOOTH",
"451 630 OFFCURVE",
"510 645 OFFCURVE",
"542 682 CURVE",
"510 716 LINE",
"477 692 OFFCURVE",
"441 686 OFFCURVE",
"408 686 CURVE SMOOTH",
"347 686 OFFCURVE",
"293 710 OFFCURVE",
"221 710 CURVE SMOOTH"
);
},
{
closed = 1;
nodes = (
"354 88 OFFCURVE",
"307 34 OFFCURVE",
"240 34 CURVE SMOOTH",
"174 34 OFFCURVE",
"126 88 OFFCURVE",
"126 174 CURVE SMOOTH",
"126 265 OFFCURVE",
"174 316 OFFCURVE",
"240 316 CURVE SMOOTH",
"307 316 OFFCURVE",
"354 265 OFFCURVE",
"354 174 CURVE SMOOTH"
);
}
);
};
layerId = "AF6F04E2-ABE8-4EC8-9701-D3ACA23530E7";
name = "Bold Jun 20 16, 20:25";
paths = (
{
closed = 1;
nodes = (
"349 -15 OFFCURVE",
"442 64 OFFCURVE",
"442 185 CURVE SMOOTH",
"442 305 OFFCURVE",
"359 385 OFFCURVE",
"260 385 CURVE SMOOTH",
"232 385 OFFCURVE",
"200 373 OFFCURVE",
"184 354 CURVE",
"181 354 LINE",
"181 519 LINE SMOOTH",
"181 564 OFFCURVE",
"190 581 OFFCURVE",
"221 581 CURVE SMOOTH",
"258 581 OFFCURVE",
"296 556 OFFCURVE",
"373 556 CURVE SMOOTH",
"467 556 OFFCURVE",
"539 594 OFFCURVE",
"574 652 CURVE",
"489 737 LINE",
"450 704 OFFCURVE",
"419 689 OFFCURVE",
"379 689 CURVE SMOOTH",
"331 689 OFFCURVE",
"283 710 OFFCURVE",
"218 710 CURVE SMOOTH",
"95 710 OFFCURVE",
"25 636 OFFCURVE",
"25 521 CURVE SMOOTH",
"25 185 LINE SMOOTH",
"25 64 OFFCURVE",
"111 -15 OFFCURVE",
"230 -15 CURVE SMOOTH"
);
},
{
closed = 1;
nodes = (
"198 118 OFFCURVE",
"179 147 OFFCURVE",
"179 185 CURVE SMOOTH",
"179 225 OFFCURVE",
"197 253 OFFCURVE",
"228 253 CURVE SMOOTH",
"260 253 OFFCURVE",
"277 226 OFFCURVE",
"277 185 CURVE SMOOTH",
"277 147 OFFCURVE",
"260 118 OFFCURVE",
"228 118 CURVE SMOOTH"
);
}
);
width = 600;
}
);
unicode = 10DC;
},
{
color = 3;
glyphname = "on-georgian";
lastChange = "2016-07-23 13:46:09 +0000";
layers = (
{
backgroundImage = {
crop = "{{0, 0}, {484.56, 131.75999999999999}}";
imagePath = venuri_symb/14_on.jpg;
locked = "1";
transform = "{7, 0, 0, 7, 24, -415}";
};
layerId = "9F5B1694-2A59-45B7-91CA-438A6316E2AD";
paths = (
{
closed = 1;
nodes = (
"191 29 LINE",
"151 62 OFFCURVE",
"110 110 OFFCURVE",
"110 184 CURVE SMOOTH",
"110 265 OFFCURVE",
"156 316 OFFCURVE",
"223 316 CURVE SMOOTH",
"289 316 OFFCURVE",
"335 265 OFFCURVE",
"335 185 CURVE SMOOTH",
"335 132 LINE",
"385 132 LINE",
"385 185 LINE SMOOTH",
"385 265 OFFCURVE",
"430 316 OFFCURVE",
"496 316 CURVE SMOOTH",
"563 316 OFFCURVE",
"610 265 OFFCURVE",
"610 184 CURVE SMOOTH",
"610 110 OFFCURVE",
"569 62 OFFCURVE",
"529 29 CURVE",
"552 -9 LINE",
"628 36 OFFCURVE",
"670 109 OFFCURVE",
"670 193 CURVE SMOOTH",
"670 278 OFFCURVE",
"603 362 OFFCURVE",
"503 362 CURVE SMOOTH",
"437 362 OFFCURVE",
"383 328 OFFCURVE",
"361 270 CURVE",
"359 270 LINE",
"336 328 OFFCURVE",
"283 362 OFFCURVE",
"216 362 CURVE SMOOTH",
"116 362 OFFCURVE",
"50 278 OFFCURVE",
"50 185 CURVE SMOOTH",
"50 86 OFFCURVE",
"103 29 OFFCURVE",
"168 -9 CURVE"
);
},
{
closed = 1;
nodes = (
"775 71 LINE",
"719 85 OFFCURVE",
"693 97 OFFCURVE",
"645 120 CURVE",
"623 77 LINE",
"680 47 OFFCURVE",
"713 32 OFFCURVE",
"767 20 CURVE"
);
}
);
width = 785;
},
{
associatedMasterId = "9F5B1694-2A59-45B7-91CA-438A6316E2AD";
backgroundImage = {
crop = "{{0, 0}, {484.56, 131.75999999999999}}";
imagePath = venuri_symb/14_on.jpg;
locked = "1";
transform = "{7, 0, 0, 7, 15, -415}";
};
layerId = "AE064402-F955-4104-911B-0F368A49EF63";
name = mokle;
paths = (
{
closed = 1;
nodes = (
"41 90 OFFCURVE",
"87 27 OFFCURVE",
"163 -5 CURVE",
"184 30 LINE",
"139 56 OFFCURVE",
"101 100 OFFCURVE",
"101 174 CURVE SMOOTH",
"101 265 OFFCURVE",
"147 316 OFFCURVE",
"214 316 CURVE SMOOTH",
"280 316 OFFCURVE",
"326 265 OFFCURVE",
"326 185 CURVE SMOOTH",
"326 132 LINE",
"376 132 LINE",
"376 185 LINE SMOOTH",
"376 265 OFFCURVE",
"421 316 OFFCURVE",
"487 316 CURVE SMOOTH",
"554 316 OFFCURVE",
"601 265 OFFCURVE",
"601 174 CURVE SMOOTH",
"601 100 OFFCURVE",
"563 56 OFFCURVE",
"518 30 CURVE",
"539 -5 LINE",
"615 27 OFFCURVE",
"661 90 OFFCURVE",
"661 175 CURVE SMOOTH",
"661 278 OFFCURVE",
"594 362 OFFCURVE",
"494 362 CURVE SMOOTH",
"428 362 OFFCURVE",
"374 328 OFFCURVE",
"352 270 CURVE",
"350 270 LINE",
"327 328 OFFCURVE",
"274 362 OFFCURVE",
"207 362 CURVE SMOOTH",
"107 362 OFFCURVE",
"41 278 OFFCURVE",
"41 175 CURVE SMOOTH"
);
}
);
width = 701;
},
{
associatedMasterId = "9F5B1694-2A59-45B7-91CA-438A6316E2AD";
backgroundImage = {
crop = "{{0, 0}, {484.56, 131.75999999999999}}";
imagePath = venuri_symb/14_on.jpg;
locked = "1";
transform = "{7, 0, 0, 7, -25, -415}";
};
layerId = "7E0C6851-140C-4A1D-B3F2-A97238ADDDDA";
name = Origanli;
paths = (
{
closed = 1;
nodes = (
"0 90 OFFCURVE",
"46 27 OFFCURVE",
"122 -5 CURVE",
"143 30 LINE",
"98 56 OFFCURVE",
"60 100 OFFCURVE",
"60 174 CURVE SMOOTH",
"60 265 OFFCURVE",
"107 316 OFFCURVE",
"174 316 CURVE SMOOTH",
"240 316 OFFCURVE",
"287 265 OFFCURVE",
"287 195 CURVE SMOOTH",
"287 171 OFFCURVE",
"284 162 OFFCURVE",
"281 153 CURVE",
"322 142 LINE",
"328 153 OFFCURVE",
"333 174 OFFCURVE",
"333 197 CURVE SMOOTH",
"333 290 OFFCURVE",
"271 362 OFFCURVE",
"167 362 CURVE SMOOTH",
"67 362 OFFCURVE",
"0 278 OFFCURVE",
"0 175 CURVE SMOOTH"
);
},
{
closed = 1;
nodes = (
"317 234 LINE",
"337 270 OFFCURVE",
"380 316 OFFCURVE",
"446 316 CURVE SMOOTH",
"513 316 OFFCURVE",
"560 265 OFFCURVE",
"560 174 CURVE SMOOTH",
"560 100 OFFCURVE",
"522 56 OFFCURVE",
"477 30 CURVE",
"498 -5 LINE",
"574 27 OFFCURVE",
"620 90 OFFCURVE",
"620 175 CURVE SMOOTH",
"620 278 OFFCURVE",
"553 362 OFFCURVE",
"453 362 CURVE SMOOTH",
"369 362 OFFCURVE",
"319 315 OFFCURVE",
"290 268 CURVE"
);
},
{
closed = 1;
nodes = (
"744 66 LINE",
"694 80 OFFCURVE",
"643 97 OFFCURVE",
"593 120 CURVE",
"581 72 LINE",
"633 49 OFFCURVE",
"684 28 OFFCURVE",
"736 15 CURVE"
);
}
);
width = 600;
},
{
background = {
paths = (
{
closed = 1;
nodes = (
"53 86 OFFCURVE",
"106 29 OFFCURVE",
"171 -9 CURVE",
"194 29 LINE",
"154 62 OFFCURVE",
"113 110 OFFCURVE",
"113 184 CURVE SMOOTH",
"113 265 OFFCURVE",
"159 316 OFFCURVE",
"226 316 CURVE SMOOTH",
"292 316 OFFCURVE",
"338 265 OFFCURVE",
"338 185 CURVE SMOOTH",
"338 132 LINE",
"388 132 LINE",
"388 185 LINE SMOOTH",
"388 265 OFFCURVE",
"433 316 OFFCURVE",
"499 316 CURVE SMOOTH",
"566 316 OFFCURVE",
"613 265 OFFCURVE",
"613 184 CURVE SMOOTH",
"613 110 OFFCURVE",
"572 62 OFFCURVE",
"532 29 CURVE",
"555 -9 LINE",
"588 10 OFFCURVE",
"617 36 OFFCURVE",
"639 70 CURVE",
"688 45 OFFCURVE",
"720 31 OFFCURVE",
"770 20 CURVE",
"778 71 LINE",
"727 84 OFFCURVE",
"701 95 OFFCURVE",
"660 114 CURVE",
"668 137 OFFCURVE",
"673 164 OFFCURVE",
"673 193 CURVE SMOOTH",
"673 278 OFFCURVE",
"606 362 OFFCURVE",
"506 362 CURVE SMOOTH",
"440 362 OFFCURVE",
"386 328 OFFCURVE",
"364 270 CURVE",
"362 270 LINE",
"339 328 OFFCURVE",
"286 362 OFFCURVE",
"219 362 CURVE SMOOTH",
"119 362 OFFCURVE",
"53 278 OFFCURVE",
"53 185 CURVE SMOOTH"
);
}
);
};
layerId = "4BC39443-182D-41DE-81B9-A713C9E8B1F3";
paths = (
{
closed = 1;
nodes = (
"251 70 LINE",
"211 105 OFFCURVE",
"191 138 OFFCURVE",
"191 186 CURVE SMOOTH",
"191 239 OFFCURVE",
"217 256 OFFCURVE",
"241 256 CURVE SMOOTH",
"264 256 OFFCURVE",
"288 241 OFFCURVE",
"288 194 CURVE SMOOTH",
"288 131 LINE",
"443 131 LINE",
"443 194 LINE SMOOTH",
"443 241 OFFCURVE",
"469 256 OFFCURVE",
"490 256 CURVE SMOOTH",
"514 256 OFFCURVE",
"540 239 OFFCURVE",
"540 186 CURVE SMOOTH",
"540 138 OFFCURVE",
"520 105 OFFCURVE",
"480 70 CURVE",
"577 -14 LINE",
"654 30 OFFCURVE",
"701 97 OFFCURVE",
"701 193 CURVE SMOOTH",
"701 304 OFFCURVE",
"615 385 OFFCURVE",
"510 385 CURVE SMOOTH",
"441 385 OFFCURVE",
"380 340 OFFCURVE",
"366 300 CURVE",
"364 300 LINE",
"349 340 OFFCURVE",
"303 385 OFFCURVE",
"221 385 CURVE SMOOTH",
"116 385 OFFCURVE",
"30 304 OFFCURVE",
"30 193 CURVE SMOOTH",
"30 97 OFFCURVE",
"77 30 OFFCURVE",
"154 -14 CURVE"
);
},
{
closed = 1;
nodes = (
"794 130 LINE",
"734 141 OFFCURVE",
"716 149 OFFCURVE",
"682 163 CURVE",
"617 63 LINE",
"667 31 OFFCURVE",
"708 19 OFFCURVE",
"775 9 CURVE"
);
}
);
width = 804;
},
{
associatedMasterId = "4BC39443-182D-41DE-81B9-A713C9E8B1F3";
background = {
paths = (
{
closed = 1;
nodes = (
"50 86 OFFCURVE",
"103 29 OFFCURVE",
"168 -9 CURVE",
"191 29 LINE",
"151 62 OFFCURVE",
"110 110 OFFCURVE",
"110 184 CURVE SMOOTH",
"110 265 OFFCURVE",
"156 316 OFFCURVE",
"223 316 CURVE SMOOTH",
"289 316 OFFCURVE",
"335 265 OFFCURVE",
"335 185 CURVE SMOOTH",
"335 132 LINE",
"385 132 LINE",
"385 185 LINE SMOOTH",
"385 265 OFFCURVE",
"430 316 OFFCURVE",
"496 316 CURVE SMOOTH",
"563 316 OFFCURVE",
"610 265 OFFCURVE",
"610 184 CURVE SMOOTH",
"610 110 OFFCURVE",
"569 62 OFFCURVE",
"529 29 CURVE",
"552 -9 LINE",
"585 10 OFFCURVE",
"614 36 OFFCURVE",
"636 70 CURVE",
"685 45 OFFCURVE",
"717 31 OFFCURVE",
"767 20 CURVE",
"775 71 LINE",
"724 84 OFFCURVE",
"698 95 OFFCURVE",
"657 114 CURVE",
"665 137 OFFCURVE",
"670 164 OFFCURVE",
"670 193 CURVE SMOOTH",
"670 278 OFFCURVE",
"603 362 OFFCURVE",
"503 362 CURVE SMOOTH",
"437 362 OFFCURVE",
"383 328 OFFCURVE",
"361 270 CURVE",
"359 270 LINE",
"336 328 OFFCURVE",
"283 362 OFFCURVE",
"216 362 CURVE SMOOTH",
"116 362 OFFCURVE",
"50 278 OFFCURVE",
"50 185 CURVE SMOOTH"
);
}
);
};
guideLines = (
{
position = "{549, 281}";
}
);
layerId = "C903A67A-BDFC-4D82-910B-FFACFFD2EA43";
name = "Bold Jun 12 16, 18:05";
paths = (
{
closed = 1;
nodes = (
"223 47 LINE",
"199 80 OFFCURVE",
"187 127 OFFCURVE",
"187 167 CURVE SMOOTH",
"187 216 OFFCURVE",
"204 256 OFFCURVE",
"244 256 CURVE SMOOTH",
"284 256 OFFCURVE",
"301 216 OFFCURVE",
"301 167 CURVE SMOOTH",
"301 87 LINE",
"457 87 LINE",
"457 167 LINE SMOOTH",
"457 216 OFFCURVE",
"474 256 OFFCURVE",
"514 256 CURVE SMOOTH",
"554 256 OFFCURVE",
"571 216 OFFCURVE",
"571 167 CURVE SMOOTH",
"571 127 OFFCURVE",
"559 80 OFFCURVE",
"535 47 CURVE",
"646 -15 LINE",
"703 36 OFFCURVE",
"732 104 OFFCURVE",
"732 170 CURVE SMOOTH",
"732 281 OFFCURVE",
"653 385 OFFCURVE",
"514 385 CURVE SMOOTH",
"461 385 OFFCURVE",
"416 367 OFFCURVE",
"380 340 CURVE",
"378 340 LINE",
"342 368 OFFCURVE",
"297 385 OFFCURVE",
"244 385 CURVE SMOOTH",
"105 385 OFFCURVE",
"26 281 OFFCURVE",
"26 170 CURVE SMOOTH",
"26 104 OFFCURVE",
"55 36 OFFCURVE",
"112 -15 CURVE"
);
},
{
closed = 0;
nodes = (
"666 30 LINE",
"698 16 OFFCURVE",
"726 7 OFFCURVE",
"760 0 CURVE",
"843 121 LINE",
"787 135 OFFCURVE",
"762 148 OFFCURVE",
"732 159 CURVE"
);
}
);
width = 845;
},
{
associatedMasterId = "4BC39443-182D-41DE-81B9-A713C9E8B1F3";
background = {
paths = (
{
closed = 1;
nodes = (
"50 86 OFFCURVE",
"103 29 OFFCURVE",
"168 -9 CURVE",
"191 29 LINE",
"151 62 OFFCURVE",
"110 110 OFFCURVE",
"110 184 CURVE SMOOTH",
"110 265 OFFCURVE",
"156 316 OFFCURVE",
"223 316 CURVE SMOOTH",
"289 316 OFFCURVE",
"335 265 OFFCURVE",
"335 185 CURVE SMOOTH",
"335 132 LINE",
"385 132 LINE",
"385 185 LINE SMOOTH",
"385 265 OFFCURVE",
"430 316 OFFCURVE",
"496 316 CURVE SMOOTH",
"563 316 OFFCURVE",
"610 265 OFFCURVE",
"610 184 CURVE SMOOTH",
"610 110 OFFCURVE",
"569 62 OFFCURVE",
"529 29 CURVE",
"552 -9 LINE",
"585 10 OFFCURVE",
"614 36 OFFCURVE",
"636 70 CURVE",
"685 45 OFFCURVE",
"717 31 OFFCURVE",
"767 20 CURVE",
"775 71 LINE",
"724 84 OFFCURVE",
"698 95 OFFCURVE",
"657 114 CURVE",
"665 137 OFFCURVE",
"670 164 OFFCURVE",
"670 193 CURVE SMOOTH",
"670 278 OFFCURVE",
"603 362 OFFCURVE",
"503 362 CURVE SMOOTH",
"437 362 OFFCURVE",
"383 328 OFFCURVE",
"361 270 CURVE",
"359 270 LINE",
"336 328 OFFCURVE",
"283 362 OFFCURVE",
"216 362 CURVE SMOOTH",
"116 362 OFFCURVE",
"50 278 OFFCURVE",
"50 185 CURVE SMOOTH"
);
}
);
};
guideLines = (
{
position = "{549, 281}";
}
);
layerId = "201A6F2B-761D-483C-858E-BC20E259A067";
name = "Bold Jun 20 16, 19:52";
paths = (
{
closed = 1;
nodes = (
"26 104 OFFCURVE",
"55 36 OFFCURVE",
"112 -15 CURVE",
"223 47 LINE",
"199 80 OFFCURVE",
"187 127 OFFCURVE",
"187 167 CURVE SMOOTH",
"187 216 OFFCURVE",
"204 256 OFFCURVE",
"244 256 CURVE SMOOTH",
"284 256 OFFCURVE",
"301 216 OFFCURVE",
"301 167 CURVE SMOOTH",
"301 87 LINE",
"457 87 LINE",
"457 167 LINE SMOOTH",
"457 216 OFFCURVE",
"474 256 OFFCURVE",
"514 256 CURVE SMOOTH",
"554 256 OFFCURVE",
"571 216 OFFCURVE",
"571 167 CURVE SMOOTH",
"571 127 OFFCURVE",
"559 80 OFFCURVE",
"535 47 CURVE",
"646 -15 LINE",
"655 -7 OFFCURVE",
"672 10 OFFCURVE",
"681 23 CURVE",
"724 5 OFFCURVE",
"758 -3 OFFCURVE",
"793 -10 CURVE",
"835 109 LINE",
"786 121 OFFCURVE",
"766 129 OFFCURVE",
"730 145 CURVE",
"731 154 OFFCURVE",
"732 161 OFFCURVE",
"732 170 CURVE SMOOTH",
"732 281 OFFCURVE",
"653 385 OFFCURVE",
"514 385 CURVE SMOOTH",
"461 385 OFFCURVE",
"416 367 OFFCURVE",
"380 340 CURVE",
"378 340 LINE",
"342 368 OFFCURVE",
"297 385 OFFCURVE",
"244 385 CURVE SMOOTH",
"105 385 OFFCURVE",
"26 281 OFFCURVE",
"26 170 CURVE SMOOTH"
);
}
);
width = 845;
}
);
unicode = 10DD;
},
{
color = 4;
glyphname = "par-georgian";
lastChange = "2016-07-23 14:01:45 +0000";
layers = (
{
background = {
paths = (
{
closed = 1;
nodes = (
"54 32 OFFCURVE",
"143 -12 OFFCURVE",
"224 -12 CURVE SMOOTH",
"334 -12 OFFCURVE",
"384 63 OFFCURVE",
"384 149 CURVE SMOOTH",
"384 288 OFFCURVE",
"236 321 OFFCURVE",
"208 333 CURVE",
"208 335 LINE",
"250 348 OFFCURVE",
"322 369 OFFCURVE",
"322 469 CURVE SMOOTH",
"322 599 OFFCURVE",
"110 596 OFFCURVE",
"110 722 CURVE",
"81 722 LINE",
"81 682 OFFCURVE",
"84 628 OFFCURVE",
"156 576 CURVE SMOOTH",
"184 556 OFFCURVE",
"262 519 OFFCURVE",
"262 462 CURVE SMOOTH",
"262 403 OFFCURVE",
"228 363 OFFCURVE",
"157 363 CURVE",
"145 325 LINE",
"152 320 OFFCURVE",
"328 267 OFFCURVE",
"328 149 CURVE SMOOTH",
"328 77 OFFCURVE",
"290 34 OFFCURVE",
"224 34 CURVE SMOOTH",
"151 34 OFFCURVE",
"96 90 OFFCURVE",
"86 157 CURVE",
"54 147 LINE"
);
}
);
};
backgroundImage = {
crop = "{{0, 0}, {364.07999999999998, 176.88}}";
imagePath = venuri_symb/15_par.jpg;
locked = "1";
transform = "{7, 0, 0, 7, 0, -465}";
};
layerId = "9F5B1694-2A59-45B7-91CA-438A6316E2AD";
paths = (
{
closed = 1;
nodes = (
"320 -12 OFFCURVE",
"381 65 OFFCURVE",
"381 167 CURVE SMOOTH",
"381 264 OFFCURVE",
"319 320 OFFCURVE",
"268 327 CURVE",
"268 329 LINE",
"319 349 OFFCURVE",
"354 386 OFFCURVE",
"354 457 CURVE SMOOTH",
"354 617 OFFCURVE",
"171 597 OFFCURVE",
"171 710 CURVE",
"121 710 LINE",
"121 555 OFFCURVE",
"298 589 OFFCURVE",
"298 450 CURVE SMOOTH",
"298 395 OFFCURVE",
"257 350 OFFCURVE",
"198 350 CURVE SMOOTH",
"160 350 LINE",
"160 304 LINE",
"205 304 LINE SMOOTH",
"266 304 OFFCURVE",
"324 258 OFFCURVE",
"324 167 CURVE SMOOTH",
"324 78 OFFCURVE",
"276 34 OFFCURVE",
"210 34 CURVE SMOOTH",
"145 34 OFFCURVE",
"105 76 OFFCURVE",
"92 146 CURVE",
"45 131 LINE",
"56 53 OFFCURVE",
"108 -12 OFFCURVE",
"210 -12 CURVE SMOOTH"
);
}
);
width = 431;
},
{
associatedMasterId = "9F5B1694-2A59-45B7-91CA-438A6316E2AD";
background = {
paths = (
{
closed = 1;
nodes = (
"314 77 OFFCURVE",
"276 34 OFFCURVE",
"210 34 CURVE SMOOTH",
"137 34 OFFCURVE",
"82 90 OFFCURVE",
"72 157 CURVE",
"40 147 LINE",
"40 32 OFFCURVE",
"129 -12 OFFCURVE",
"210 -12 CURVE SMOOTH",
"320 -12 OFFCURVE",
"370 63 OFFCURVE",
"370 149 CURVE SMOOTH",
"370 247 OFFCURVE",
"296 293 OFFCURVE",
"240 305 CURVE SMOOTH",
"188 316 OFFCURVE",
"156 322 OFFCURVE",
"138 371 CURVE",
"106 365 LINE",
"106 339 OFFCURVE",
"118 312 OFFCURVE",
"151 292 CURVE SMOOTH",
"188 269 OFFCURVE",
"314 258 OFFCURVE",
"314 149 CURVE SMOOTH"
);
}
);
};
backgroundImage = {
crop = "{{0, 0}, {364.07999999999998, 176.88}}";
imagePath = venuri_symb/15_par.jpg;
locked = "1";
transform = "{7, 0, 0, 7, -14, -465}";
};
layerId = "5CC39B38-5901-4557-86CE-C0B04B6EAB0A";
name = "Regular Apr 30 16, 10:31";
paths = (
{
closed = 1;
nodes = (
"40 32 OFFCURVE",
"129 -12 OFFCURVE",
"210 -12 CURVE SMOOTH",
"320 -12 OFFCURVE",
"370 63 OFFCURVE",
"370 149 CURVE SMOOTH",
"370 288 OFFCURVE",
"247 299 OFFCURVE",
"194 335 CURVE",
"194 337 LINE",
"236 350 OFFCURVE",
"308 369 OFFCURVE",
"308 469 CURVE SMOOTH",
"308 599 OFFCURVE",
"96 596 OFFCURVE",
"96 722 CURVE",
"67 722 LINE",
"67 682 OFFCURVE",
"70 628 OFFCURVE",
"142 576 CURVE SMOOTH",
"170 556 OFFCURVE",
"248 519 OFFCURVE",
"248 462 CURVE SMOOTH",
"248 403 OFFCURVE",
"214 363 OFFCURVE",
"143 363 CURVE",
"133 349 LINE",
"154 263 OFFCURVE",
"314 299 OFFCURVE",
"314 149 CURVE SMOOTH",
"314 77 OFFCURVE",
"276 34 OFFCURVE",
"210 34 CURVE SMOOTH",
"137 34 OFFCURVE",
"82 90 OFFCURVE",
"72 157 CURVE",
"40 147 LINE"
);
}
);
width = 410;
},
{
associatedMasterId = "9F5B1694-2A59-45B7-91CA-438A6316E2AD";
background = {
paths = (
{
closed = 1;
nodes = (
"314 77 OFFCURVE",
"276 34 OFFCURVE",
"210 34 CURVE SMOOTH",
"137 34 OFFCURVE",
"82 90 OFFCURVE",
"72 157 CURVE",
"40 147 LINE",
"40 32 OFFCURVE",
"129 -12 OFFCURVE",
"210 -12 CURVE SMOOTH",
"320 -12 OFFCURVE",
"370 63 OFFCURVE",
"370 149 CURVE SMOOTH",
"370 247 OFFCURVE",
"296 293 OFFCURVE",
"240 305 CURVE SMOOTH",
"188 316 OFFCURVE",
"156 322 OFFCURVE",
"138 371 CURVE",
"106 365 LINE",
"106 339 OFFCURVE",
"118 312 OFFCURVE",
"151 292 CURVE SMOOTH",
"188 269 OFFCURVE",
"314 258 OFFCURVE",
"314 149 CURVE SMOOTH"
);
}
);
};
backgroundImage = {
crop = "{{0, 0}, {364.07999999999998, 176.88}}";
imagePath = venuri_symb/15_par.jpg;
transform = "{7, 0, 0, 7, -14, -465}";
};
layerId = "B408E1A5-1A2C-4598-BECB-A7D87F9E339A";
name = "Regular Apr 30 16, 14:51";
paths = (
{
closed = 1;
nodes = (
"40 32 OFFCURVE",
"129 -12 OFFCURVE",
"210 -12 CURVE SMOOTH",
"320 -12 OFFCURVE",
"370 63 OFFCURVE",
"370 149 CURVE SMOOTH",
"370 288 OFFCURVE",
"243 310 OFFCURVE",
"194 335 CURVE",
"194 337 LINE",
"236 350 OFFCURVE",
"308 369 OFFCURVE",
"308 469 CURVE SMOOTH",
"308 599 OFFCURVE",
"96 596 OFFCURVE",
"96 722 CURVE",
"67 722 LINE",
"67 682 OFFCURVE",
"70 628 OFFCURVE",
"142 576 CURVE SMOOTH",
"170 556 OFFCURVE",
"248 519 OFFCURVE",
"248 462 CURVE SMOOTH",
"248 403 OFFCURVE",
"214 363 OFFCURVE",
"143 363 CURVE",
"131 332 LINE",
"145 305 OFFCURVE",
"314 267 OFFCURVE",
"314 149 CURVE SMOOTH",
"314 77 OFFCURVE",
"276 34 OFFCURVE",
"210 34 CURVE SMOOTH",
"137 34 OFFCURVE",
"82 90 OFFCURVE",
"72 157 CURVE",
"40 147 LINE"
);
}
);
width = 410;
},
{
associatedMasterId = "9F5B1694-2A59-45B7-91CA-438A6316E2AD";
background = {
paths = (
{
closed = 1;
nodes = (
"314 77 OFFCURVE",
"276 34 OFFCURVE",
"210 34 CURVE SMOOTH",
"137 34 OFFCURVE",
"82 90 OFFCURVE",
"72 157 CURVE",
"40 147 LINE",
"40 32 OFFCURVE",
"129 -12 OFFCURVE",
"210 -12 CURVE SMOOTH",
"320 -12 OFFCURVE",
"370 63 OFFCURVE",
"370 149 CURVE SMOOTH",
"370 247 OFFCURVE",
"296 293 OFFCURVE",
"240 305 CURVE SMOOTH",
"188 316 OFFCURVE",
"156 322 OFFCURVE",
"138 371 CURVE",
"106 365 LINE",
"106 339 OFFCURVE",
"118 312 OFFCURVE",
"151 292 CURVE SMOOTH",
"188 269 OFFCURVE",
"314 258 OFFCURVE",
"314 149 CURVE SMOOTH"
);
}
);
};
backgroundImage = {
crop = "{{0, 0}, {364.07999999999998, 176.88}}";
imagePath = venuri_symb/15_par.jpg;
locked = "1";
transform = "{7, 0, 0, 7, -14, -465}";
};
layerId = "A4C44568-D48C-4349-A067-70E4B7DA6E7A";
name = "Regular May 10 16, 13:23";
paths = (
{
closed = 1;
nodes = (
"40 32 OFFCURVE",
"129 -12 OFFCURVE",
"210 -12 CURVE SMOOTH",
"320 -12 OFFCURVE",
"370 63 OFFCURVE",
"370 149 CURVE SMOOTH",
"370 288 OFFCURVE",
"222 321 OFFCURVE",
"194 333 CURVE",
"194 335 LINE",
"236 348 OFFCURVE",
"308 369 OFFCURVE",
"308 469 CURVE SMOOTH",
"308 599 OFFCURVE",
"96 596 OFFCURVE",
"96 722 CURVE",
"67 722 LINE",
"67 682 OFFCURVE",
"70 628 OFFCURVE",
"142 576 CURVE SMOOTH",
"170 556 OFFCURVE",
"248 519 OFFCURVE",
"248 462 CURVE SMOOTH",
"248 403 OFFCURVE",
"214 363 OFFCURVE",
"143 363 CURVE",
"131 325 LINE",
"138 320 OFFCURVE",
"314 267 OFFCURVE",
"314 149 CURVE SMOOTH",
"314 77 OFFCURVE",
"276 34 OFFCURVE",
"210 34 CURVE SMOOTH",
"137 34 OFFCURVE",
"82 90 OFFCURVE",
"72 157 CURVE",
"40 147 LINE"
);
}
);
width = 410;
},
{
background = {
paths = (
{
closed = 1;
nodes = (
"367 -12 OFFCURVE",
"428 65 OFFCURVE",
"428 167 CURVE SMOOTH",
"428 264 OFFCURVE",
"366 320 OFFCURVE",
"315 327 CURVE",
"315 329 LINE",
"366 349 OFFCURVE",
"401 386 OFFCURVE",
"401 457 CURVE SMOOTH",
"401 617 OFFCURVE",
"218 597 OFFCURVE",
"218 710 CURVE",
"168 710 LINE",
"168 555 OFFCURVE",
"345 589 OFFCURVE",
"345 450 CURVE SMOOTH",
"345 395 OFFCURVE",
"304 350 OFFCURVE",
"245 350 CURVE SMOOTH",
"207 350 LINE",
"207 304 LINE",
"252 304 LINE SMOOTH",
"313 304 OFFCURVE",
"371 258 OFFCURVE",
"371 167 CURVE SMOOTH",
"371 78 OFFCURVE",
"323 34 OFFCURVE",
"257 34 CURVE SMOOTH",
"192 34 OFFCURVE",
"152 76 OFFCURVE",
"139 146 CURVE",
"92 131 LINE",
"103 53 OFFCURVE",
"155 -12 OFFCURVE",
"257 -12 CURVE SMOOTH"
);
}
);
};
layerId = "4BC39443-182D-41DE-81B9-A713C9E8B1F3";
paths = (
{
closed = 1;
nodes = (
"371 -15 OFFCURVE",
"473 66 OFFCURVE",
"473 179 CURVE SMOOTH",
"473 270 OFFCURVE",
"416 308 OFFCURVE",
"371 326 CURVE",
"371 328 LINE",
"420 350 OFFCURVE",
"460 391 OFFCURVE",
"460 457 CURVE SMOOTH",
"460 615 OFFCURVE",
"280 626 OFFCURVE",
"280 710 CURVE",
"126 710 LINE",
"126 524 OFFCURVE",
"295 547 OFFCURVE",
"295 442 CURVE SMOOTH",
"295 397 OFFCURVE",
"254 385 OFFCURVE",
"230 385 CURVE SMOOTH",
"193 385 LINE",
"193 252 LINE",
"239 252 LINE SMOOTH",
"276 252 OFFCURVE",
"308 231 OFFCURVE",
"308 186 CURVE SMOOTH",
"308 140 OFFCURVE",
"281 118 OFFCURVE",
"244 118 CURVE SMOOTH",
"216 118 OFFCURVE",
"183 138 OFFCURVE",
"174 186 CURVE",
"29 151 LINE",
"45 43 OFFCURVE",
"142 -15 OFFCURVE",
"248 -15 CURVE SMOOTH"
);
}
);
width = 494;
},
{
associatedMasterId = "4BC39443-182D-41DE-81B9-A713C9E8B1F3";
background = {
paths = (
{
closed = 1;
nodes = (
"358 -15 OFFCURVE",
"451 67 OFFCURVE",
"451 173 CURVE SMOOTH",
"451 266 OFFCURVE",
"398 295 OFFCURVE",
"345 330 CURVE SMOOTH",
"313 351 OFFCURVE",
"281 373 OFFCURVE",
"262 412 CURVE",
"118 368 LINE",
"134 299 OFFCURVE",
"173 269 OFFCURVE",
"209 247 CURVE SMOOTH",
"249 223 OFFCURVE",
"286 209 OFFCURVE",
"286 164 CURVE SMOOTH",
"286 143 OFFCURVE",
"269 118 OFFCURVE",
"236 118 CURVE SMOOTH",
"210 118 OFFCURVE",
"183 138 OFFCURVE",
"174 186 CURVE",
"29 151 LINE",
"39 56 OFFCURVE",
"121 -15 OFFCURVE",
"235 -15 CURVE SMOOTH"
);
}
);
};
layerId = "16F93149-2A2B-4E21-8898-52C24FDD71B6";
name = "Bold Jul 9 16, 18:05";
paths = (
{
closed = 1;
nodes = (
"381 -15 OFFCURVE",
"473 66 OFFCURVE",
"473 179 CURVE SMOOTH",
"473 270 OFFCURVE",
"407 312 OFFCURVE",
"369 336 CURVE",
"369 338 LINE",
"404 360 OFFCURVE",
"450 401 OFFCURVE",
"450 477 CURVE SMOOTH",
"450 615 OFFCURVE",
"298 616 OFFCURVE",
"250 713 CURVE",
"106 669 LINE",
"142 520 OFFCURVE",
"285 547 OFFCURVE",
"285 452 CURVE SMOOTH",
"285 405 OFFCURVE",
"250 396 OFFCURVE",
"230 396 CURVE SMOOTH",
"183 396 LINE",
"183 263 LINE",
"236 263 LINE SMOOTH",
"266 263 OFFCURVE",
"308 238 OFFCURVE",
"308 181 CURVE SMOOTH",
"308 136 OFFCURVE",
"281 118 OFFCURVE",
"244 118 CURVE SMOOTH",
"201 118 OFFCURVE",
"176 158 OFFCURVE",
"170 196 CURVE",
"28 156 LINE",
"44 48 OFFCURVE",
"142 -15 OFFCURVE",
"254 -15 CURVE SMOOTH"
);
}
);
width = 494;
},
{
associatedMasterId = "4BC39443-182D-41DE-81B9-A713C9E8B1F3";
background = {
paths = (
{
closed = 1;
nodes = (
"358 -15 OFFCURVE",
"451 67 OFFCURVE",
"451 173 CURVE SMOOTH",
"451 266 OFFCURVE",
"398 295 OFFCURVE",
"345 330 CURVE SMOOTH",
"313 351 OFFCURVE",
"281 373 OFFCURVE",
"262 412 CURVE",
"118 368 LINE",
"134 299 OFFCURVE",
"173 269 OFFCURVE",
"209 247 CURVE SMOOTH",
"249 223 OFFCURVE",
"286 209 OFFCURVE",
"286 164 CURVE SMOOTH",
"286 143 OFFCURVE",
"269 118 OFFCURVE",
"236 118 CURVE SMOOTH",
"210 118 OFFCURVE",
"183 138 OFFCURVE",
"174 186 CURVE",
"29 151 LINE",
"39 56 OFFCURVE",
"121 -15 OFFCURVE",
"235 -15 CURVE SMOOTH"
);
}
);
};
layerId = "4A19D8EE-299F-4BBD-8F49-B2EE4A738322";
name = "Bold Jul 23 16, 15:46";
paths = (
{
closed = 1;
nodes = (
"381 -15 OFFCURVE",
"473 66 OFFCURVE",
"473 179 CURVE SMOOTH",
"473 270 OFFCURVE",
"417 312 OFFCURVE",
"379 336 CURVE",
"379 338 LINE",
"414 360 OFFCURVE",
"460 401 OFFCURVE",
"460 477 CURVE SMOOTH",
"460 615 OFFCURVE",
"308 616 OFFCURVE",
"260 713 CURVE",
"116 674 LINE",
"152 525 OFFCURVE",
"295 547 OFFCURVE",
"295 452 CURVE SMOOTH",
"295 405 OFFCURVE",
"260 396 OFFCURVE",
"240 396 CURVE SMOOTH",
"193 396 LINE",
"193 263 LINE",
"246 263 LINE SMOOTH",
"276 263 OFFCURVE",
"308 238 OFFCURVE",
"308 191 CURVE SMOOTH",
"308 136 OFFCURVE",
"281 118 OFFCURVE",
"244 118 CURVE SMOOTH",
"216 118 OFFCURVE",
"183 138 OFFCURVE",
"174 186 CURVE",
"29 151 LINE",
"45 43 OFFCURVE",
"142 -15 OFFCURVE",
"254 -15 CURVE SMOOTH"
);
}
);
width = 494;
}
);
unicode = 10DE;
},
{
color = 4;
glyphname = "zhar-georgian";
lastChange = "2016-07-29 19:24:47 +0000";
layers = (
{
backgroundImage = {
crop = "{{0, 0}, {322.31999999999999, 185.28}}";
imagePath = venuri_symb/16_zhan.jpg;
locked = "1";
transform = "{7, 0, 0, 7, -734, -437}";
};
layerId = "9F5B1694-2A59-45B7-91CA-438A6316E2AD";
paths = (
{
closed = 1;
nodes = (
"376 -372 OFFCURVE",
"444 -284 OFFCURVE",
"444 -194 CURVE SMOOTH",
"444 362 LINE",
"388 362 LINE",
"354 295 OFFCURVE",
"287 247 OFFCURVE",
"135 247 CURVE",
"123 213 LINE",
"154 193 OFFCURVE",
"227 175 OFFCURVE",
"227 102 CURVE SMOOTH",
"227 52 OFFCURVE",
"199 28 OFFCURVE",
"164 28 CURVE SMOOTH",
"111 28 OFFCURVE",
"97 71 OFFCURVE",
"90 101 CURVE",
"50 89 LINE",
"53 58 OFFCURVE",
"78 -12 OFFCURVE",
"164 -12 CURVE SMOOTH",
"232 -12 OFFCURVE",
"277 45 OFFCURVE",
"277 97 CURVE SMOOTH",
"277 155 OFFCURVE",
"245 188 OFFCURVE",
"200 209 CURVE",
"200 211 LINE",
"269 211 OFFCURVE",
"361 246 OFFCURVE",
"386 303 CURVE",
"388 303 LINE",
"388 -188 LINE SMOOTH",
"388 -270 OFFCURVE",
"332 -326 OFFCURVE",
"256 -326 CURVE SMOOTH",
"177 -326 OFFCURVE",
"116 -282 OFFCURVE",
"116 -200 CURVE SMOOTH",
"116 -167 OFFCURVE",
"123 -141 OFFCURVE",
"135 -119 CURVE",
"95 -93 LINE",
"73 -118 OFFCURVE",
"58 -154 OFFCURVE",
"58 -203 CURVE SMOOTH",
"58 -299 OFFCURVE",
"133 -372 OFFCURVE",
"256 -372 CURVE SMOOTH"
);
}
);
width = 524;
},
{
associatedMasterId = "9F5B1694-2A59-45B7-91CA-438A6316E2AD";
backgroundImage = {
crop = "{{0, 0}, {322.31999999999999, 185.28}}";
imagePath = venuri_symb/16_zhan.jpg;
locked = "1";
transform = "{7, 0, 0, 7, -691, -437}";
};
layerId = "F0DA4766-2318-41D4-A128-11E8ABCFB946";
name = "Regular May 17 16, 14:29";
paths = (
{
closed = 1;
nodes = (
"432 -188 LINE SMOOTH",
"432 -270 OFFCURVE",
"381 -326 OFFCURVE",
"295 -326 CURVE SMOOTH",
"209 -326 OFFCURVE",
"148 -282 OFFCURVE",
"148 -176 CURVE SMOOTH",
"148 -137 OFFCURVE",
"158 -105 OFFCURVE",
"171 -82 CURVE",
"135 -63 LINE",
"113 -94 OFFCURVE",
"90 -141 OFFCURVE",
"90 -193 CURVE SMOOTH",
"90 -299 OFFCURVE",
"165 -372 OFFCURVE",
"295 -372 CURVE SMOOTH",
"425 -372 OFFCURVE",
"488 -284 OFFCURVE",
"488 -194 CURVE SMOOTH",
"488 440 LINE",
"442 440 LINE",
"408 366 OFFCURVE",
"360 263 OFFCURVE",
"179 263 CURVE",
"162 225 LINE",
"193 205 OFFCURVE",
"258 182 OFFCURVE",
"258 114 CURVE",
"258 62 OFFCURVE",
"228 48 OFFCURVE",
"207 48 CURVE SMOOTH",
"186 48 OFFCURVE",
"154 68 OFFCURVE",
"154 106 CURVE SMOOTH",
"154 114 OFFCURVE",
"156 123 OFFCURVE",
"159 133 CURVE",
"111 147 LINE",
"104 129 OFFCURVE",
"100 111 OFFCURVE",
"100 96 CURVE SMOOTH",
"100 40 OFFCURVE",
"144 2 OFFCURVE",
"206 0 CURVE",
"286 2 OFFCURVE",
"318 55 OFFCURVE",
"318 114 CURVE",
"318 162 OFFCURVE",
"287 209 OFFCURVE",
"254 222 CURVE",
"254 224 LINE",
"292 224 OFFCURVE",
"391 263 OFFCURVE",
"430 329 CURVE",
"432 328 LINE"
);
}
);
width = 600;
},
{
associatedMasterId = "9F5B1694-2A59-45B7-91CA-438A6316E2AD";
backgroundImage = {
crop = "{{0, 0}, {322.31999999999999, 185.28}}";
imagePath = venuri_symb/16_zhan.jpg;
locked = "1";
transform = "{7, 0, 0, 7, -691, -437}";
};
layerId = "C05EE9E8-31B5-4E98-836A-FAA936424E24";
name = "Regular May 17 16, 14:47";
paths = (
{
closed = 1;
nodes = (
"432 -188 LINE",
"432 -270 OFFCURVE",
"376 -326 OFFCURVE",
"300 -326 CURVE SMOOTH",
"221 -326 OFFCURVE",
"150 -278 OFFCURVE",
"150 -192 CURVE SMOOTH",
"150 -139 OFFCURVE",
"169 -110 OFFCURVE",
"188 -93 CURVE",
"156 -66 LINE",
"132 -81 OFFCURVE",
"92 -124 OFFCURVE",
"92 -203 CURVE SMOOTH",
"92 -289 OFFCURVE",
"177 -372 OFFCURVE",
"300 -372 CURVE SMOOTH",
"420 -372 OFFCURVE",
"488 -284 OFFCURVE",
"488 -194 CURVE",
"488 440 LINE",
"442 440 LINE",
"408 366 OFFCURVE",
"360 263 OFFCURVE",
"179 263 CURVE",
"162 229 LINE",
"193 209 OFFCURVE",
"265 182 OFFCURVE",
"265 114 CURVE",
"265 70 OFFCURVE",
"243 44 OFFCURVE",
"207 44 CURVE",
"169 44 OFFCURVE",
"147 67 OFFCURVE",
"147 106 CURVE",
"147 114 OFFCURVE",
"149 123 OFFCURVE",
"152 133 CURVE",
"111 147 LINE",
"104 129 OFFCURVE",
"100 111 OFFCURVE",
"100 96 CURVE",
"100 40 OFFCURVE",
"144 2 OFFCURVE",
"206 0 CURVE",
"286 2 OFFCURVE",
"318 55 OFFCURVE",
"318 114 CURVE",
"318 162 OFFCURVE",
"287 209 OFFCURVE",
"254 222 CURVE",
"254 224 LINE",
"292 224 OFFCURVE",
"391 263 OFFCURVE",
"430 329 CURVE",
"432 328 LINE"
);
}
);
width = 600;
},
{
associatedMasterId = "9F5B1694-2A59-45B7-91CA-438A6316E2AD";
backgroundImage = {
crop = "{{0, 0}, {322.31999999999999, 185.28}}";
imagePath = venuri_symb/16_zhan.jpg;
locked = "1";
transform = "{7, 0, 0, 7, -691, -437}";
};
layerId = "377498F4-2A0F-4987-AFA1-8DD7089A2128";
name = "Regular May 17 16, 15:50";
paths = (
{
closed = 1;
nodes = (
"432 -188 LINE",
"432 -270 OFFCURVE",
"376 -326 OFFCURVE",
"300 -326 CURVE SMOOTH",
"221 -326 OFFCURVE",
"150 -278 OFFCURVE",
"150 -192 CURVE SMOOTH",
"150 -139 OFFCURVE",
"169 -110 OFFCURVE",
"188 -93 CURVE",
"156 -66 LINE",
"132 -81 OFFCURVE",
"92 -124 OFFCURVE",
"92 -203 CURVE SMOOTH",
"92 -289 OFFCURVE",
"177 -372 OFFCURVE",
"300 -372 CURVE SMOOTH",
"420 -372 OFFCURVE",
"488 -284 OFFCURVE",
"488 -194 CURVE",
"488 440 LINE",
"442 440 LINE",
"408 366 OFFCURVE",
"360 263 OFFCURVE",
"179 263 CURVE",
"162 229 LINE",
"193 209 OFFCURVE",
"268 187 OFFCURVE",
"268 114 CURVE",
"268 64 OFFCURVE",
"246 41 OFFCURVE",
"211 41 CURVE SMOOTH",
"174 41 OFFCURVE",
"143 71 OFFCURVE",
"138 121 CURVE",
"95 114 LINE",
"95 54 OFFCURVE",
"137 0 OFFCURVE",
"211 0 CURVE SMOOTH",
"284 0 OFFCURVE",
"318 55 OFFCURVE",
"318 114 CURVE SMOOTH",
"318 162 OFFCURVE",
"287 201 OFFCURVE",
"254 222 CURVE",
"254 224 LINE",
"292 224 OFFCURVE",
"391 263 OFFCURVE",
"430 329 CURVE",
"432 328 LINE"
);
}
);
width = 600;
},
{
background = {
paths = (
{
closed = 1;
nodes = (
"414 -372 OFFCURVE",
"482 -284 OFFCURVE",
"482 -194 CURVE SMOOTH",
"482 362 LINE",
"426 362 LINE",
"392 295 OFFCURVE",
"325 247 OFFCURVE",
"173 247 CURVE",
"161 213 LINE",
"192 193 OFFCURVE",
"265 175 OFFCURVE",
"265 102 CURVE SMOOTH",
"265 52 OFFCURVE",
"237 28 OFFCURVE",
"202 28 CURVE SMOOTH",
"149 28 OFFCURVE",
"135 71 OFFCURVE",
"128 101 CURVE",
"88 89 LINE",
"91 58 OFFCURVE",
"116 -12 OFFCURVE",
"202 -12 CURVE SMOOTH",
"270 -12 OFFCURVE",
"315 45 OFFCURVE",
"315 97 CURVE SMOOTH",
"315 155 OFFCURVE",
"283 188 OFFCURVE",
"238 209 CURVE",
"238 211 LINE",
"307 211 OFFCURVE",
"399 246 OFFCURVE",
"424 303 CURVE",
"426 303 LINE",
"426 -188 LINE SMOOTH",
"426 -270 OFFCURVE",
"370 -326 OFFCURVE",
"294 -326 CURVE SMOOTH",
"215 -326 OFFCURVE",
"154 -282 OFFCURVE",
"154 -200 CURVE SMOOTH",
"154 -167 OFFCURVE",
"161 -141 OFFCURVE",
"173 -119 CURVE",
"133 -93 LINE",
"111 -118 OFFCURVE",
"96 -154 OFFCURVE",
"96 -203 CURVE SMOOTH",
"96 -299 OFFCURVE",
"171 -372 OFFCURVE",
"294 -372 CURVE SMOOTH"
);
}
);
};
layerId = "4BC39443-182D-41DE-81B9-A713C9E8B1F3";
paths = (
{
closed = 1;
nodes = (
"435 -375 OFFCURVE",
"535 -299 OFFCURVE",
"535 -164 CURVE SMOOTH",
"535 370 LINE",
"377 370 LINE",
"315 321 OFFCURVE",
"250 302 OFFCURVE",
"167 294 CURVE",
"136 204 LINE",
"168 191 OFFCURVE",
"208 180 OFFCURVE",
"208 137 CURVE SMOOTH",
"208 113 OFFCURVE",
"195 95 OFFCURVE",
"169 95 CURVE SMOOTH",
"147 95 OFFCURVE",
"129 108 OFFCURVE",
"123 142 CURVE",
"7 110 LINE",
"15 33 OFFCURVE",
"80 -15 OFFCURVE",
"171 -15 CURVE SMOOTH",
"262 -15 OFFCURVE",
"331 32 OFFCURVE",
"331 108 CURVE SMOOTH",
"331 159 OFFCURVE",
"300 194 OFFCURVE",
"272 208 CURVE",
"272 210 LINE",
"298 215 OFFCURVE",
"360 234 OFFCURVE",
"377 249 CURVE",
"379 248 LINE",
"379 -158 LINE SMOOTH",
"379 -213 OFFCURVE",
"340 -242 OFFCURVE",
"293 -242 CURVE SMOOTH",
"243 -242 OFFCURVE",
"209 -209 OFFCURVE",
"209 -163 CURVE SMOOTH",
"209 -149 OFFCURVE",
"212 -132 OFFCURVE",
"220 -115 CURVE",
"85 -63 LINE",
"59 -97 OFFCURVE",
"44 -139 OFFCURVE",
"44 -184 CURVE SMOOTH",
"44 -305 OFFCURVE",
"151 -375 OFFCURVE",
"290 -375 CURVE SMOOTH"
);
}
);
width = 565;
},
{
associatedMasterId = "4BC39443-182D-41DE-81B9-A713C9E8B1F3";
background = {
paths = (
{
closed = 1;
nodes = (
"414 -372 OFFCURVE",
"482 -284 OFFCURVE",
"482 -194 CURVE SMOOTH",
"482 362 LINE",
"426 362 LINE",
"392 295 OFFCURVE",
"325 247 OFFCURVE",
"173 247 CURVE",
"161 213 LINE",
"192 193 OFFCURVE",
"265 175 OFFCURVE",
"265 102 CURVE SMOOTH",
"265 52 OFFCURVE",
"237 28 OFFCURVE",
"202 28 CURVE SMOOTH",
"149 28 OFFCURVE",
"135 71 OFFCURVE",
"128 101 CURVE",
"88 89 LINE",
"91 58 OFFCURVE",
"116 -12 OFFCURVE",
"202 -12 CURVE SMOOTH",
"270 -12 OFFCURVE",
"315 45 OFFCURVE",
"315 97 CURVE SMOOTH",
"315 155 OFFCURVE",
"283 188 OFFCURVE",
"238 209 CURVE",
"238 211 LINE",
"307 211 OFFCURVE",
"399 246 OFFCURVE",
"424 303 CURVE",
"426 303 LINE",
"426 -188 LINE SMOOTH",
"426 -270 OFFCURVE",
"370 -326 OFFCURVE",
"294 -326 CURVE SMOOTH",
"215 -326 OFFCURVE",
"154 -282 OFFCURVE",
"154 -200 CURVE SMOOTH",
"154 -167 OFFCURVE",
"161 -141 OFFCURVE",
"173 -119 CURVE",
"133 -93 LINE",
"111 -118 OFFCURVE",
"96 -154 OFFCURVE",
"96 -203 CURVE SMOOTH",
"96 -299 OFFCURVE",
"171 -372 OFFCURVE",
"294 -372 CURVE SMOOTH"
);
}
);
};
layerId = "379BAA03-AA38-493B-B1AF-D5C103515213";
name = "Bold Jul 23 16, 16:02";
paths = (
{
closed = 1;
nodes = (
"435 -375 OFFCURVE",
"535 -299 OFFCURVE",
"535 -169 CURVE SMOOTH",
"535 370 LINE",
"376 370 LINE",
"330 295 OFFCURVE",
"236 273 OFFCURVE",
"158 268 CURVE",
"137 192 LINE",
"177 175 OFFCURVE",
"228 163 OFFCURVE",
"228 110 CURVE SMOOTH",
"228 86 OFFCURVE",
"215 65 OFFCURVE",
"190 65 CURVE SMOOTH",
"170 65 OFFCURVE",
"149 82 OFFCURVE",
"142 122 CURVE",
"30 92 LINE",
"38 15 OFFCURVE",
"101 -43 OFFCURVE",
"189 -43 CURVE SMOOTH",
"284 -43 OFFCURVE",
"354 24 OFFCURVE",
"354 99 CURVE SMOOTH",
"354 149 OFFCURVE",
"323 183 OFFCURVE",
"292 199 CURVE",
"292 201 LINE",
"318 206 OFFCURVE",
"360 220 OFFCURVE",
"377 235 CURVE",
"379 234 LINE",
"379 -163 LINE SMOOTH",
"379 -213 OFFCURVE",
"340 -246 OFFCURVE",
"293 -246 CURVE SMOOTH",
"243 -246 OFFCURVE",
"209 -209 OFFCURVE",
"209 -164 CURVE SMOOTH",
"209 -149 OFFCURVE",
"212 -132 OFFCURVE",
"220 -115 CURVE",
"83 -63 LINE",
"59 -97 OFFCURVE",
"44 -139 OFFCURVE",
"44 -184 CURVE SMOOTH",
"44 -305 OFFCURVE",
"151 -375 OFFCURVE",
"290 -375 CURVE SMOOTH"
);
}
);
width = 565;
}
);
unicode = 10DF;
},
